<svg xmlns="http://www.w3.org/2000/svg" xmlns:xlink="http://www.w3.org/1999/xlink" viewBox="0 0 542.2 90.88"><defs><style>.cls-1{fill:url(#linear-gradient);}.cls-2{fill:url(#linear-gradient-2);}.cls-3{fill:url(#linear-gradient-3);}.cls-4{fill:url(#linear-gradient-4);}.cls-5{fill:url(#linear-gradient-5);}.cls-6{fill:url(#linear-gradient-6);}.cls-7{fill:url(#linear-gradient-7);}.cls-8{fill:url(#linear-gradient-8);}.cls-9{fill:url(#linear-gradient-9);}.cls-10{fill:url(#linear-gradient-10);}.cls-11{fill:url(#linear-gradient-12);}</style><linearGradient id="linear-gradient" y1="45.44" x2="542.2" y2="45.44" gradientUnits="userSpaceOnUse"><stop offset="0" stop-color="#7ca5d6"/><stop offset="1" stop-color="#001c71"/></linearGradient><linearGradient id="linear-gradient-2" x1="265.68" y1="43.1" x2="280.14" y2="43.1" xlink:href="#linear-gradient"/><linearGradient id="linear-gradient-3" y1="43.1" x2="542.2" y2="43.1" xlink:href="#linear-gradient"/><linearGradient id="linear-gradient-4" x1="346.98" y1="35.63" x2="362.34" y2="35.63" xlink:href="#linear-gradient"/><linearGradient id="linear-gradient-5" y1="35.63" x2="542.2" y2="35.63" xlink:href="#linear-gradient"/><linearGradient id="linear-gradient-6" x1="379.98" y1="41.09" x2="393" y2="41.09" xlink:href="#linear-gradient"/><linearGradient id="linear-gradient-7" y1="41.09" x2="542.2" y2="41.09" xlink:href="#linear-gradient"/><linearGradient id="linear-gradient-8" x1="410.7" y1="47.93" x2="423.96" y2="47.93" xlink:href="#linear-gradient"/><linearGradient id="linear-gradient-9" y1="47.93" x2="542.2" y2="47.93" xlink:href="#linear-gradient"/><linearGradient id="linear-gradient-10" x1="443.34" y1="47.93" x2="456.3" y2="47.93" xlink:href="#linear-gradient"/><linearGradient id="linear-gradient-12" x1="487.98" y1="41.09" x2="501" y2="41.09" xlink:href="#linear-gradient"/></defs><title>150 people</title><g id="Layer_2" data-name="Layer 2"><g id="Body"><path class="cls-1" d="M533.13,0H9.07A9.07,9.07,0,0,0,0,9.07V81.81a9.07,9.07,0,0,0,9.07,9.07H533.13a9.08,9.08,0,0,0,9.07-9.07V9.07A9.08,9.08,0,0,0,533.13,0ZM221.28,63.5H194.34V57.14h9.9V31.76a27,27,0,0,1-11.1,2V28c5.46-.18,8.94-1.68,11.4-5.28h6.9V57.14h9.84Zm18.12.72c-9.3,0-14.4-4.14-14.46-11.7h7c.18,3.42,2.88,5.46,7.44,5.46,5.1,0,7.8-2.58,7.8-7.62s-2.64-7.56-7.44-7.56a9.88,9.88,0,0,0-7.08,2.76h-6.48l1.44-22.86h24.9v6.36H233.7l-.6,10.26a12.78,12.78,0,0,1,8.46-2.7c8.22,0,12.78,4.8,12.78,13.56C254.34,59.6,249.18,64.22,239.4,64.22Zm47.94-13.68c0,8.94-5,13.68-14.46,13.68s-14.4-4.74-14.4-13.68V35.66c0-9,5-13.68,14.4-13.68s14.46,4.68,14.46,13.68Zm33.84-2.64h-11.7V60.26h-6.06V47.9h-11.7V42h11.7V29.66h6.06V42h11.7Zm34.26.6H347v15h-7.32V22.7h15.78c10,0,14.22,3.9,14.22,13S365.4,48.5,355.44,48.5Zm44.4,1.56H380v1c0,5,2,7.38,6.66,7.38,3.78,0,5.88-1.62,6.12-4.32h6.9c-.36,6.66-5,10.14-13,10.14-9.06,0-13.86-4.56-13.86-13.26V44.84c0-8.58,4.74-13.2,13.5-13.2s13.56,4.68,13.56,13.26Zm31.32.6c0,9-4.68,13.56-13.86,13.56s-13.8-4.56-13.8-13.56V45.2c0-9,4.68-13.56,13.8-13.56s13.86,4.56,13.86,13.56Zm32.34.66c0,8.46-4.14,12.9-11.28,12.9a10.92,10.92,0,0,1-8.88-3.9v14.1h-7.2V32.36h6.12l.24,4.26a11.08,11.08,0,0,1,9.72-5c7.14,0,11.28,4.38,11.28,12.84ZM475.74,63.5h-7.2V19.7h7.2Zm32.1-13.44H488v1c0,5,2,7.38,6.66,7.38,3.78,0,5.88-1.62,6.12-4.32h6.9c-.36,6.66-5,10.14-13,10.14-9.06,0-13.86-4.56-13.86-13.26V44.84c0-8.58,4.74-13.2,13.5-13.2s13.56,4.68,13.56,13.26Z"/><path class="cls-2" d="M272.88,28.22c-4.92,0-7.2,2.46-7.2,7.8V50.18c0,5.34,2.28,7.8,7.2,7.8s7.26-2.46,7.26-7.8V36C280.14,30.68,277.86,28.22,272.88,28.22Z"/><path class="cls-3" d="M272.88,28.22c-4.92,0-7.2,2.46-7.2,7.8V50.18c0,5.34,2.28,7.8,7.2,7.8s7.26-2.46,7.26-7.8V36C280.14,30.68,277.86,28.22,272.88,28.22Z"/><path class="cls-4" d="M354.84,29.12H347v13h7.86c5.4,0,7.5-1.86,7.5-6.54S360.24,29.12,354.84,29.12Z"/><path class="cls-5" d="M354.84,29.12H347v13h7.86c5.4,0,7.5-1.86,7.5-6.54S360.24,29.12,354.84,29.12Z"/><path class="cls-6" d="M386.52,37.46c-4.56,0-6.54,2.22-6.54,7.26h13C393,39.68,391,37.46,386.52,37.46Z"/><path class="cls-7" d="M386.52,37.46c-4.56,0-6.54,2.22-6.54,7.26h13C393,39.68,391,37.46,386.52,37.46Z"/><path class="cls-8" d="M417.3,37.64c-4.56,0-6.6,2.4-6.6,7.74v5.1c0,5.34,2,7.74,6.6,7.74s6.66-2.4,6.66-7.74v-5.1C424,40,421.92,37.64,417.3,37.64Z"/><path class="cls-9" d="M417.3,37.64c-4.56,0-6.6,2.4-6.6,7.74v5.1c0,5.34,2,7.74,6.6,7.74s6.66-2.4,6.66-7.74v-5.1C424,40,421.92,37.64,417.3,37.64Z"/><path class="cls-10" d="M450.78,37.64c-3.24,0-5.76,2-7.44,5.64v9.24c1.68,3.72,4.2,5.7,7.5,5.7,3.48,0,5.46-2.22,5.46-7V44.6C456.3,39.92,454.32,37.64,450.78,37.64Z"/><path class="cls-9" d="M450.78,37.64c-3.24,0-5.76,2-7.44,5.64v9.24c1.68,3.72,4.2,5.7,7.5,5.7,3.48,0,5.46-2.22,5.46-7V44.6C456.3,39.92,454.32,37.64,450.78,37.64Z"/><path class="cls-11" d="M494.52,37.46c-4.56,0-6.54,2.22-6.54,7.26h13C501,39.68,499,37.46,494.52,37.46Z"/><path class="cls-7" d="M494.52,37.46c-4.56,0-6.54,2.22-6.54,7.26h13C501,39.68,499,37.46,494.52,37.46Z"/></g></g></svg>