<svg xmlns="http://www.w3.org/2000/svg" xmlns:xlink="http://www.w3.org/1999/xlink" viewBox="0 0 389.04 90.88"><defs><style>.cls-1{fill:url(#linear-gradient);}</style><linearGradient id="linear-gradient" y1="45.44" x2="389.04" y2="45.44" gradientUnits="userSpaceOnUse"><stop offset="0" stop-color="#7ca5d6"/><stop offset="1" stop-color="#001c71"/></linearGradient></defs><title>2 days</title><g id="Layer_2" data-name="Layer 2"><g id="Body"><path class="cls-1" d="M380,0H9.07A9.07,9.07,0,0,0,0,9.07V81.81a9.07,9.07,0,0,0,9.07,9.07H380A9.07,9.07,0,0,0,389,81.81V9.07A9.07,9.07,0,0,0,380,0Zm-169,54.57v6.35H182.07V57.26c0-7.67,3.54-12.23,12.84-16.55,6.66-3.06,8.88-5.4,8.88-9.24,0-3.54-2.22-5.82-6.9-5.82s-7.32,2.34-7.32,7.08v1h-6.84V32.07c0-8.22,5.1-12.66,14.22-12.66s14,4.5,14,12c0,6.66-3.48,10.8-12.48,14.82-6.48,2.88-8.88,5-9.24,8.34ZM260.19,45c0,11-4.86,16-15.66,16h-14.7V20.13h14.7c10.8,0,15.66,5,15.66,16Zm29.88,16H284l-.24-4.08a11.56,11.56,0,0,1-10,4.8c-6.24,0-10.08-3.47-10.08-9.59,0-6.42,4.14-10,12.6-10h6.6V40.71c0-4-1.74-5.82-5.64-5.82-3.66,0-5.52,1.56-5.7,4.5h-7c.48-6.84,4.68-10.32,12.9-10.32,8.58,0,12.6,3.72,12.6,11.7Zm8.64,10.92h-3.84V66h3.06c2,0,2.88-.6,3.6-2.76l1-3.17-10.86-30.3h7.68L306.27,51l6.42-21.24H320L308.37,64.1C306.33,70.1,304.23,71.84,298.71,71.84Zm34-10.2c-8.82,0-13-3.35-13-10.07h6.84c0,3.06,2,4.56,6.18,4.56,3.84,0,5.7-1.26,5.7-3.67,0-2.57-1.86-3.65-7.14-4.31-7.92-1-11-3.48-11-9.24,0-6.42,4.44-9.84,12.42-9.84s12.12,3.36,12.12,9.78h-6.9c0-2.88-1.68-4.26-5.28-4.26-3.42,0-5.28,1.32-5.28,3.54,0,2.46,1.86,3.48,7,4,8.1.9,11.16,3.72,11.16,9.66C345.45,58.34,341.19,61.64,332.67,61.64Zm-79.8-25.43v8.64c0,7-2.52,9.66-9.36,9.66h-6.36v-28h6.36C250.35,26.55,252.87,29.19,252.87,36.21Zm24.36,11h5.64v3.84a7.78,7.78,0,0,1-7.32,4.74c-3.12,0-4.74-1.5-4.74-4.2C270.81,48.75,272.55,47.25,277.23,47.25Z"/></g></g></svg>