<svg xmlns="http://www.w3.org/2000/svg" xmlns:xlink="http://www.w3.org/1999/xlink" viewBox="0 0 538.48 91.6"><defs><style>.cls-1{fill:url(#linear-gradient);}.cls-2{fill:url(#linear-gradient-2);}.cls-3{fill:url(#linear-gradient-3);}.cls-4{fill:url(#linear-gradient-4);}.cls-5{fill:url(#linear-gradient-5);}.cls-6{fill:url(#linear-gradient-6);}.cls-7{fill:url(#linear-gradient-7);}</style><linearGradient id="linear-gradient" y1="45.8" x2="538.48" y2="45.8" gradientUnits="userSpaceOnUse"><stop offset="0" stop-color="#7ca5d6"/><stop offset="1" stop-color="#001c71"/></linearGradient><linearGradient id="linear-gradient-2" x1="215.15" y1="43.82" x2="229.61" y2="43.82" xlink:href="#linear-gradient"/><linearGradient id="linear-gradient-3" y1="43.82" x2="538.48" y2="43.82" xlink:href="#linear-gradient"/><linearGradient id="linear-gradient-4" x1="326.39" y1="41.81" x2="339.41" y2="41.81" xlink:href="#linear-gradient"/><linearGradient id="linear-gradient-5" y1="41.81" x2="538.48" y2="41.81" xlink:href="#linear-gradient"/><linearGradient id="linear-gradient-6" x1="426.1" y1="48.65" x2="439.36" y2="48.65" xlink:href="#linear-gradient"/><linearGradient id="linear-gradient-7" y1="48.65" x2="538.48" y2="48.65" xlink:href="#linear-gradient"/></defs><title>20 sessions</title><g id="Layer_2" data-name="Layer 2"><g id="Body"><path class="cls-1" d="M529.41,0,9.07.72A9.07,9.07,0,0,0,0,9.79V82.53A9.07,9.07,0,0,0,9.07,91.6l520.34-.72a9.07,9.07,0,0,0,9.07-9.07V9.07A9.07,9.07,0,0,0,529.41,0ZM203.15,57.86v6.36H174.29V60.56c0-7.68,3.54-12.24,12.84-16.56,6.66-3.06,8.88-5.4,8.88-9.24,0-3.54-2.22-5.82-6.9-5.82s-7.32,2.34-7.32,7.08v1H175V35.36c0-8.22,5.1-12.66,14.22-12.66s14,4.5,14,12c0,6.66-3.48,10.8-12.48,14.82-6.48,2.88-8.88,5-9.24,8.34Zm33.66-6.6c0,8.94-5,13.68-14.46,13.68S208,60.2,208,51.26V36.38c0-9,5-13.68,14.4-13.68s14.46,4.68,14.46,13.68Zm33.84-2.64H259V61h-6.06V48.62h-11.7V42.74h11.7V30.38H259V42.74h11.7ZM301,64.94c-10.08,0-14.94-4.08-14.94-12.66h7.2c0,4.38,2.64,6.48,7.86,6.48q7.38,0,7.38-5.4c0-3.84-2.4-5.52-9.12-6.54-9.24-1.38-12.66-4.62-12.66-11.88,0-8.1,5-12.24,14.52-12.24,9.3,0,14,4,14,12.3H308c0-4.08-2.28-6.06-7-6.06S294,30.8,294,34.22s2.34,5.16,8.64,6c9.66,1.32,13.14,4.86,13.14,12.42C315.77,60.86,310.91,64.94,301,64.94Zm45.24-14.16H326.39v1c0,5,2,7.38,6.66,7.38,3.78,0,5.88-1.62,6.12-4.32h6.9c-.36,6.66-5,10.14-13,10.14-9.06,0-13.86-4.56-13.86-13.26V45.56c0-8.58,4.74-13.2,13.5-13.2S346.25,37,346.25,45.62ZM362,64.94c-8.82,0-13-3.36-13-10.08h6.84c0,3.06,2,4.56,6.18,4.56,3.84,0,5.7-1.26,5.7-3.66,0-2.58-1.86-3.66-7.14-4.32-7.92-1-11-3.48-11-9.24,0-6.42,4.44-9.84,12.42-9.84s12.12,3.36,12.12,9.78h-6.9c0-2.88-1.68-4.26-5.28-4.26-3.42,0-5.28,1.32-5.28,3.54,0,2.46,1.86,3.48,7,4,8.1.9,11.16,3.72,11.16,9.66C374.81,61.64,370.55,64.94,362,64.94Zm27.66,0c-8.82,0-13-3.36-13-10.08h6.84c0,3.06,2,4.56,6.18,4.56,3.84,0,5.7-1.26,5.7-3.66,0-2.58-1.86-3.66-7.14-4.32-7.92-1-11-3.48-11-9.24,0-6.42,4.44-9.84,12.42-9.84s12.12,3.36,12.12,9.78h-6.9c0-2.88-1.68-4.26-5.28-4.26-3.42,0-5.28,1.32-5.28,3.54,0,2.46,1.86,3.48,7,4,8.1.9,11.16,3.72,11.16,9.66C402.47,61.64,398.21,64.94,389.69,64.94Zm24.17-.72h-7.19V33.08h7.19Zm.24-36.12h-7.67V21.32h7.67Zm32.46,23.28c0,9-4.68,13.56-13.86,13.56s-13.8-4.56-13.8-13.56V45.92c0-9,4.68-13.56,13.8-13.56s13.86,4.56,13.86,13.56Zm30.78,12.84h-7.2V44.3c0-3.84-1.44-5.58-4.44-5.58s-5.22,1.74-7,5.28V64.22h-7.19V33.08h6.12l.23,4.26a11.06,11.06,0,0,1,9.66-5c6.48,0,9.78,3.84,9.78,11.28Zm16.68.72c-8.82,0-13-3.36-13-10.08h6.84c0,3.06,2,4.56,6.17,4.56,3.84,0,5.7-1.26,5.7-3.66,0-2.58-1.86-3.66-7.14-4.32-7.91-1-11-3.48-11-9.24,0-6.42,4.45-9.84,12.42-9.84s12.12,3.36,12.12,9.78h-6.9c0-2.88-1.68-4.26-5.28-4.26-3.42,0-5.28,1.32-5.28,3.54,0,2.46,1.86,3.48,7,4,8.1.9,11.16,3.72,11.16,9.66C506.8,61.64,502.54,64.94,494,64.94Z"/><path class="cls-2" d="M222.35,28.94c-4.92,0-7.2,2.46-7.2,7.8V50.9c0,5.34,2.28,7.8,7.2,7.8s7.26-2.46,7.26-7.8V36.74C229.61,31.4,227.33,28.94,222.35,28.94Z"/><path class="cls-3" d="M222.35,28.94c-4.92,0-7.2,2.46-7.2,7.8V50.9c0,5.34,2.28,7.8,7.2,7.8s7.26-2.46,7.26-7.8V36.74C229.61,31.4,227.33,28.94,222.35,28.94Z"/><path class="cls-4" d="M332.93,38.18c-4.56,0-6.54,2.22-6.54,7.26h13C339.41,40.4,337.43,38.18,332.93,38.18Z"/><path class="cls-5" d="M332.93,38.18c-4.56,0-6.54,2.22-6.54,7.26h13C339.41,40.4,337.43,38.18,332.93,38.18Z"/><path class="cls-6" d="M432.7,38.36c-4.56,0-6.6,2.4-6.6,7.74v5.1c0,5.34,2,7.74,6.6,7.74s6.66-2.4,6.66-7.74V46.1C439.36,40.76,437.32,38.36,432.7,38.36Z"/><path class="cls-7" d="M432.7,38.36c-4.56,0-6.6,2.4-6.6,7.74v5.1c0,5.34,2,7.74,6.6,7.74s6.66-2.4,6.66-7.74V46.1C439.36,40.76,437.32,38.36,432.7,38.36Z"/></g></g></svg>