<svg xmlns="http://www.w3.org/2000/svg" xmlns:xlink="http://www.w3.org/1999/xlink" viewBox="0 0 659.85 55.3"><defs><style>.cls-1{fill:url(#linear-gradient);}.cls-2{fill:url(#linear-gradient-2);}.cls-3{fill:#fff;}</style><linearGradient id="linear-gradient" x1="-360.64" y1="138.88" x2="299.21" y2="138.88" gradientTransform="translate(299.21 166.53) rotate(180)" gradientUnits="userSpaceOnUse"><stop offset="0" stop-color="#fff"/><stop offset="1" stop-color="#7ca5d6"/></linearGradient><linearGradient id="linear-gradient-2" x1="-360.64" y1="138.88" x2="299.21" y2="138.88" xlink:href="#linear-gradient"/></defs><title>Add to Calender Button</title><g id="Layer_2" data-name="Layer 2"><g id="Layer_2-2" data-name="Layer 2"><path class="cls-1" d="M650.78,0H274.83L315,55.3H650.78a9.07,9.07,0,0,0,9.07-9.07V9.07A9.07,9.07,0,0,0,650.78,0Z"/><path class="cls-2" d="M9.07,0A9.07,9.07,0,0,0,0,9.07V46.23A9.07,9.07,0,0,0,9.07,55.3H307.91L267.74,0Z"/><path class="cls-3" d="M19,17.3h3.37l6.42,18.35H25.24l-1.4-4.15h-6.5l-1.43,4.15H12.56Zm4,11.36L20.6,21.13l-2.37,7.53Z"/><path class="cls-3" d="M30.54,30.2V27.12c0-3.8,1.83-5.8,5.07-5.8a4.86,4.86,0,0,1,4,1.78V16h3.24v19.7H40.09L40,33.71A5,5,0,0,1,35.61,36C32.37,36,30.54,34,30.54,30.2Zm9.07.46v-4c-.73-1.7-1.86-2.62-3.38-2.62s-2.45,1-2.45,3.13v3c0,2.1.89,3.13,2.48,3.13S38.88,32.36,39.61,30.66Z"/><path class="cls-3" d="M46.2,30.2V27.12c0-3.8,1.83-5.8,5.07-5.8a4.86,4.86,0,0,1,4,1.78V16h3.24v19.7H55.75l-.1-1.94A5,5,0,0,1,51.27,36C48,36,46.2,34,46.2,30.2Zm9.07.46v-4c-.73-1.7-1.86-2.62-3.38-2.62s-2.45,1-2.45,3.13v3c0,2.1.89,3.13,2.48,3.13S54.54,32.36,55.27,30.66Z"/><path class="cls-3" d="M69.74,31.17v-7H67.53v-2.5H69.8l.21-3.6h3v3.6h3.16v2.5H73v6.92c0,1.53.35,2,1.73,2h1.56v2.61H73.71C70.93,35.65,69.74,34.33,69.74,31.17Z"/><path class="cls-3" d="M78.19,29.88V27.42c0-4.05,2.11-6.1,6.21-6.1s6.24,2.05,6.24,6.1v2.46c0,4.05-2.11,6.1-6.24,6.1S78.19,33.93,78.19,29.88Zm9.21-.08V27.5c0-2.4-.92-3.48-3-3.48s-3,1.08-3,3.48v2.3c0,2.4.92,3.48,3,3.48S87.4,32.2,87.4,29.8Z"/><path class="cls-3" d="M107.78,27.85v7.8h-3.29V27.91L98.28,17.3h3.78l4.21,7.29,4.18-7.29H114Z"/><path class="cls-3" d="M113.1,29.88V27.42c0-4.05,2.11-6.1,6.21-6.1s6.24,2.05,6.24,6.1v2.46c0,4.05-2.11,6.1-6.24,6.1S113.1,33.93,113.1,29.88Zm9.21-.08V27.5c0-2.4-.92-3.48-3-3.48s-3,1.08-3,3.48v2.3c0,2.4.92,3.48,3,3.48S122.31,32.2,122.31,29.8Z"/><path class="cls-3" d="M128.71,30.9V21.65H132v9c0,1.75.65,2.51,2,2.51s2.43-.76,3.21-2.43v-9h3.24v14h-2.75l-.11-2a5,5,0,0,1-4.4,2.3C130.22,36,128.71,34.25,128.71,30.9Z"/><path class="cls-3" d="M144.37,21.65h2.75l.14,2.56A3.6,3.6,0,0,1,151,21.37h1v3.08h-.73c-2.16,0-3.27.92-3.7,3.16v8h-3.24Z"/><path class="cls-3" d="M160.65,28.61V24.34c0-5,2.27-7.36,7-7.36,4.54,0,6.75,2.15,6.88,6.66h-3.18c-.11-2.62-1.19-3.78-3.67-3.78-2.65,0-3.73,1.35-3.73,4.54v4.16c0,3.18,1.08,4.53,3.73,4.53,2.48,0,3.56-1.16,3.67-3.75h3.18c-.13,4.48-2.34,6.64-6.88,6.64C162.92,36,160.65,33.6,160.65,28.61Z"/><path class="cls-3" d="M177.12,31.66c0-2.89,1.86-4.48,5.67-4.48h3v-.62c0-1.78-.79-2.62-2.54-2.62s-2.48.7-2.56,2h-3.14c.22-3.07,2.11-4.64,5.81-4.64,3.86,0,5.67,1.67,5.67,5.26v9.07h-2.76l-.11-1.83A5.2,5.2,0,0,1,181.65,36C178.85,36,177.12,34.41,177.12,31.66Zm8.64-.43V29.5h-2.54c-2.11,0-2.89.67-2.89,2s.73,1.89,2.13,1.89A3.5,3.5,0,0,0,185.76,31.23Z"/><path class="cls-3" d="M192.7,16h3.24v19.7H192.7Z"/><path class="cls-3" d="M199.29,30V27.26c0-3.86,2.13-5.94,6.07-5.94s6.1,2.11,6.1,6v2.32h-8.93V30c0,2.27.91,3.32,3,3.32,1.7,0,2.65-.73,2.75-1.94h3.11c-.16,3-2.24,4.56-5.86,4.56C201.45,36,199.29,33.93,199.29,30Zm9.09-2.81c0-2.26-.89-3.26-2.91-3.26s-2.94,1-2.94,3.26Z"/><path class="cls-3" d="M214.76,21.65h2.75l.11,1.91A5,5,0,0,1,222,21.32c2.92,0,4.4,1.73,4.4,5.08v9.25h-3.24v-9c0-1.73-.64-2.51-2-2.51s-2.35.78-3.13,2.38v9.09h-3.24Z"/><path class="cls-3" d="M229.55,30.2V27.12c0-3.8,1.84-5.8,5.08-5.8a4.85,4.85,0,0,1,4,1.78V16h3.24v19.7h-2.75L239,33.71A4.94,4.94,0,0,1,234.63,36C231.39,36,229.55,34,229.55,30.2Zm9.07.46v-4c-.73-1.7-1.86-2.62-3.37-2.62s-2.46,1-2.46,3.13v3c0,2.1.89,3.13,2.48,3.13S237.89,32.36,238.62,30.66Z"/><path class="cls-3" d="M245.21,30V27.26c0-3.86,2.13-5.94,6.08-5.94s6.1,2.11,6.1,6v2.32h-8.94V30c0,2.27.92,3.32,3,3.32,1.7,0,2.64-.73,2.75-1.94h3.1c-.16,3-2.24,4.56-5.85,4.56C247.37,36,245.21,33.93,245.21,30Zm9.1-2.81c0-2.26-.89-3.26-2.92-3.26s-2.94,1-2.94,3.26Z"/><path class="cls-3" d="M260.68,21.65h2.76l.13,2.56a3.6,3.6,0,0,1,3.78-2.84h1v3.08h-.73c-2.16,0-3.27.92-3.7,3.16v8h-3.24Z"/></g></g></svg>