<svg xmlns="http://www.w3.org/2000/svg" viewBox="0 0 2198.57 1853.09"><defs><style>.cls-1{opacity:0.27;}.cls-2{fill:#666;opacity:0.3;}</style></defs><title>Center</title><g id="Layer_2" data-name="Layer 2"><g id="Layer_3" data-name="Layer 3"><g class="cls-1"><path class="cls-2" d="M1999.9,1844a7.35,7.35,0,0,0-8.91-5.34,7.22,7.22,0,0,0-3.23,1.81l-216.71-205.92a7.32,7.32,0,0,0-4.6-12l26.8-331.29a10.82,10.82,0,0,0,8.44-18.15l41.36-41a4.37,4.37,0,0,0,1.92,1,4.32,4.32,0,0,0,5.09-3.37,4.28,4.28,0,0,0-1-3.6l28-27.78a5,5,0,0,0,8.16-2.73,5,5,0,0,0-1.13-4.23l60.92-60.45a7.33,7.33,0,1,0-2.29-6.89,7.43,7.43,0,0,0,.23,3.7l-165.77,63.61-57.86-304.36.23-.06a5.94,5.94,0,1,0-6.5-9.61l-74.23-57.06a5.93,5.93,0,0,0,.53-5.44,6.59,6.59,0,0,0-.44-.83l151.66-108.57,46.25,19.48,18.83,198.93a10.85,10.85,0,1,0,9.78,17.63l46.35,35.26a3.93,3.93,0,0,0-.69,2.06,4.3,4.3,0,0,0,7.51,3.12l31.34,23.85a5,5,0,0,0,7.86,6l68.31,52a7.32,7.32,0,1,0,6.51-3.23,7,7,0,0,0-2.11.22L1947.65,777c.11,0,.22,0,.32-.09a7.36,7.36,0,0,0,4.06-9.57,7.6,7.6,0,0,0-1-1.66l123.26-104.22a5.9,5.9,0,0,0,9-7.61l99.36-84a9.19,9.19,0,1,0-2.11-3.88L1836.45,673.18a4.27,4.27,0,0,0-3.69-2.65,4.37,4.37,0,0,0-1.4.16L1812.93,625a5.91,5.91,0,0,0-2.25-11.21,5.59,5.59,0,0,0-.92,0l-30.57-185.62,117.5-104.6a7.34,7.34,0,1,0,5.64-12.51,7.2,7.2,0,0,0-1.92.17l-41.06-156.09a5.93,5.93,0,0,0-1.52-11.55,6.13,6.13,0,0,0-1.49.12L1823.23,17.9a9.19,9.19,0,1,0-4.53.22l-51.64,327-.3-.05a7.34,7.34,0,0,0-7.17,4.44l-168.91-62a5.73,5.73,0,0,0,.24-1.3,5.94,5.94,0,0,0-5.56-6.29,6,6,0,0,0-1.6.15L1534.58,108.3a9.4,9.4,0,0,0,3.17-1.83,9.17,9.17,0,1,0-13.69-1.83l-267.73,194.7c-.06-.07-.11-.17-.18-.24a7.32,7.32,0,0,0-8.21-1.93L1172.35,133.9a5.77,5.77,0,0,0,1.09-.76,6,6,0,1,0-4.55,1.45L1161,356.32a7.32,7.32,0,0,0-5.37,12.19,7.38,7.38,0,0,0,2.27,1.72l-63.11,148.29a5.91,5.91,0,0,0-6.41,9.5,6,6,0,0,0,1.79,1.37l-19.3,45.36a4.08,4.08,0,0,0-5.47,2.93L1018.81,570l-13-31.86a7.34,7.34,0,1,0-10.48-6.71l-116.61,4.93-56.09-63.58a4,4,0,0,0,.83-1.25,4.31,4.31,0,1,0-5.65,2.28,4.25,4.25,0,0,0,1.84.33l7.7,58.87a6,6,0,0,0-4.37,3.51,6,6,0,0,0-.46,2.22l-49.2,2.08a4.3,4.3,0,0,0-8.58.36l-39.2,1.65L662.9,489c.23-.31.48-.59.68-.92A9.17,9.17,0,1,0,651,491.18a8.91,8.91,0,0,0,2.32.94l-10.74,47.42a7.34,7.34,0,0,0-7.44,3.34L525.77,482.49c.1-.21.24-.4.34-.62a10.85,10.85,0,1,0-19.27,1.35L458.12,515.1a4.28,4.28,0,0,0-7.37.95,4.29,4.29,0,0,0,.2,3.74L418,541.37a4.77,4.77,0,0,0-2-1.58,4.94,4.94,0,0,0-6.26,7l-71.81,47a7.32,7.32,0,0,0-13.23,4.56l-74.48,6.28L277.47,468a7.24,7.24,0,0,0,5.09-1.12A7.35,7.35,0,1,0,273,455.92L146.2,356.05a5.92,5.92,0,0,0-8.15-8.3,5.41,5.41,0,0,0-1.12,1L34.71,268.25a9.19,9.19,0,1,0-3.49,2.9L187,563.28c-.08.05-.17.08-.26.14a7.32,7.32,0,0,0-3.05,7.85L11.48,623.52a6.18,6.18,0,0,0-.6-1.17,6,6,0,1,0,1,3.18l217.8-18.37,16.14,15.38-7.32,36.73a7.27,7.27,0,0,0-5.09,1.12,7.35,7.35,0,1,0,10.13,10.24l138.12,83a5.88,5.88,0,0,0,.29,6,5.93,5.93,0,0,0,9.84.08L434,785.15a4.27,4.27,0,0,0,6.18,5.51,4,4,0,0,0,1.13-1.12L490,818.82,388.72,844.44a7.24,7.24,0,0,0-3.21-4.12A7.35,7.35,0,0,0,378,852.93a7.72,7.72,0,0,0,2.67,1l-15.56,160.41a5.88,5.88,0,0,0-4.73,9.69L221.62,1157.82a5.46,5.46,0,0,0-.71-.53,5,5,0,1,0-5.12,8.51,4.86,4.86,0,0,0,3.44.62l38.58,144.31a10.71,10.71,0,0,0-6.13,4.74A10.85,10.85,0,0,0,265.24,1331l24.83,52.67a4.07,4.07,0,0,0-1.56,1.5,4.31,4.31,0,0,0,5.22,6.25l16.8,35.62a4.78,4.78,0,0,0-1.86,1.77,4.95,4.95,0,0,0,6.06,7.16l36.61,77.64a7.46,7.46,0,1,0,3.7-.87l-7.63-298.85a7.26,7.26,0,0,0,5.71-3.52,7.34,7.34,0,0,0-2.52-10.07,7.24,7.24,0,0,0-2.67-1l11.22-115.69a4.31,4.31,0,0,0,2.13-8,4,4,0,0,0-1.31-.5l4.76-49.08a5.86,5.86,0,0,0,5.21-2.84,5.93,5.93,0,0,0-.46-6.74L487.94,907.92l116.33,66.62A10.83,10.83,0,1,0,624.66,980l58.26.22a4.25,4.25,0,0,0,8.48,0l39.49.15a4.87,4.87,0,0,0,.75,2.42,5,5,0,0,0,6.89,1.4,4.9,4.9,0,0,0,2.12-3.79l85.9.35a7.19,7.19,0,0,0,1.19,3.68,7.35,7.35,0,1,0,8.9-10.86l63.41-183.51a10.54,10.54,0,0,0,4.21.42l7.84,57.75a4.25,4.25,0,0,0-2,.93,4.31,4.31,0,0,0-.37,6.09,4.24,4.24,0,0,0,3.46,1.38l5.3,39.08a4.85,4.85,0,0,0-2.29,1.13,5,5,0,0,0,3.63,8.66l11.55,85.05a7.26,7.26,0,0,0-3.49,1.69,7.35,7.35,0,1,0,10.83,1.27l312.74-249.08a5.8,5.8,0,0,0,2,1.39,5.91,5.91,0,0,0,6.75-1.54l204.6,150.47a9.15,9.15,0,0,0,9.82,14,10.07,10.07,0,0,0,2.31-1l25.94,41.12a7.31,7.31,0,0,0-2.9,7.61L1380,991.2c-.08-.23-.12-.45-.21-.68a10.85,10.85,0,1,0-12.67,14.56l-11.91,57.05a4.25,4.25,0,0,0-1.74,8.3l-8,38.6a4.87,4.87,0,0,0-2.54.3,5,5,0,0,0,.51,9.37l-17.53,84a7.23,7.23,0,0,0-7.63,3.93l-121.59-53.41a8.38,8.38,0,0,0,.34-1.11,7.35,7.35,0,1,0-14.5-1l-160.28,19a5.93,5.93,0,0,0-11.65-.1,6.75,6.75,0,0,0-.09,1.49l-129.18,15.36a9.19,9.19,0,1,0-.42,4.51l316.68,96.45c0,.1-.07.18-.09.28a7.33,7.33,0,0,0,3.41,7.72L1116,1454.58a5.72,5.72,0,0,0-1.25-.41,6,6,0,1,0,3.89,2.77l181.78-127.23a7.25,7.25,0,0,0,4.3,2.68,7.34,7.34,0,0,0,8.67-8.58l156.38-39a5.92,5.92,0,0,0,11.46-2.86l47.84-11.91a4.26,4.26,0,0,0,3.18,2.91,4.32,4.32,0,0,0,5.08-3.38,3.87,3.87,0,0,0,0-1.59l55.16-13.74L1539,1344a7.27,7.27,0,0,0-5.17-.64,7.34,7.34,0,1,0,3.56,14.25h0l103.45,326.52a5,5,0,1,0,6.42,6.56l133,45.76,3.46,24.26c-.23,0-.46,0-.69.1a10.86,10.86,0,1,0,12.67,14.58l54.84,19.69a4.37,4.37,0,0,0-.07,2.16,4.26,4.26,0,0,0,8,.71l37.12,13.32a5,5,0,0,0-.06,2.56,5,5,0,0,0,9.36.78l80.78,29a7.14,7.14,0,0,0-.11,3.87,7.35,7.35,0,0,0,14.25-3.57Zm-13.09-3.32L1910.75,1782a4.26,4.26,0,0,0,.55-3.34,4.31,4.31,0,0,0-5.23-3.14,4.2,4.2,0,0,0-2.83,2.45l-122.21-42-14.14-99a1.41,1.41,0,0,0,.35,0,7.38,7.38,0,0,0,3.24-1.79Zm-221.17-218.18a6.69,6.69,0,0,0-2,.17,7.28,7.28,0,0,0-2.56,1.21L1687.2,1534a4.21,4.21,0,0,0,1.12-4,4.3,4.3,0,0,0-5.22-3.14,4,4,0,0,0-1.27.6l-31.34-38.09a5.91,5.91,0,0,0-5.54-10,5.78,5.78,0,0,0-2,.91l-102.44-124.43a7.3,7.3,0,0,0,2.22-6.92l240.64-65.38a10.78,10.78,0,0,0,8.16,7.42,6.71,6.71,0,0,0,.89.09ZM1712,883.94a5.89,5.89,0,0,0,4,3.18l-71.45,276a7.06,7.06,0,0,0-3.23.06,6.58,6.58,0,0,0-1.77.72l-86.14-136.5a5.93,5.93,0,0,0-4.91-10.56,6.12,6.12,0,0,0-1.39.56l-35.68-56.53a7.29,7.29,0,0,0,2.77-8Zm-210.53,75.61a7.35,7.35,0,0,0,8.42,2.19,9,9,0,0,0,.81-.43l35.68,56.54a5.92,5.92,0,0,0,4.95,10.52,5.5,5.5,0,0,0,1.35-.53l86.13,136.51a7,7,0,0,0-1.67,1.67l-222.48-143Zm143.38,217.9a7.29,7.29,0,0,0,3.88-2.49l58.87,43-43.75,16.81a7.34,7.34,0,0,0-13.9,1.53,7.54,7.54,0,0,0,0,2.84l-55.74,13.9,45.46-76.23A7.33,7.33,0,0,0,1644.87,1177.45Zm140.38,96.24-76-55.49,67.28-25.82,14.74,77.45A10.81,10.81,0,0,0,1785.25,1273.69Zm-.51.63a10.28,10.28,0,0,0-1.2,2.47l-119.27-37.23a3.18,3.18,0,0,1,.1-.33,7.36,7.36,0,0,0-.23-3.71l44.25-17Zm-129-29.35a7.32,7.32,0,0,0,8.31-4.65l119.28,37.24c-.06.23-.16.44-.21.68a10.57,10.57,0,0,0,.09,4.59l-240.63,65.38a7.56,7.56,0,0,0-1.31-2.38L1652.08,1243A7.36,7.36,0,0,0,1655.71,1245Zm287.52-116.55a7.23,7.23,0,0,0,1.21,1.87l-60.94,60.46a4.91,4.91,0,0,0-2.18-1.07,4.95,4.95,0,0,0-4.81,8l-28,27.78a4.11,4.11,0,0,0-1.83-.91,4.3,4.3,0,0,0-5.07,3.38,4.26,4.26,0,0,0,.88,3.5l-41.37,41a10.6,10.6,0,0,0-5.23-2.73,10.75,10.75,0,0,0-3.79-.06l-14.76-77.61Zm-166.81,63.15-67.9,26-59.29-43.3a7.29,7.29,0,0,0-3.93-11l71.49-276.11a5.74,5.74,0,0,0,1.75-.08Zm-63.87-313.69a5.88,5.88,0,0,0-.84,5.3l-197.76,69a7.45,7.45,0,0,0-1.54-2.33l78.69-85.65a4.2,4.2,0,0,0,4.1.56,4.29,4.29,0,0,0,2.37-5.61,3.82,3.82,0,0,0-.76-1.16l33.38-36.33a5.84,5.84,0,0,0,8.13-.78Zm-129.82-105a4.27,4.27,0,0,0-5.1-2.48l-68.48-184a9.11,9.11,0,0,0,4.59-4.33L1745,686a7.3,7.3,0,0,0,0,5.38,7,7,0,0,0,1.55,2.37l-109,118.67a5.83,5.83,0,0,0-8.1.61l-47.15-36.24A4.23,4.23,0,0,0,1582.73,772.89ZM1097.78,521a6.16,6.16,0,0,0-.57-.8,6.57,6.57,0,0,0-.68-.62l109.65-152.87,157,9.12a7.36,7.36,0,0,0,.68,3.11Zm157.74-211.48a6.85,6.85,0,0,0,1.19-1.4l107.36,64.32a7,7,0,0,0-.8,2.59l-156.53-9.09,40-55.76A7.31,7.31,0,0,0,1255.52,309.47Zm207-80.05a5.59,5.59,0,0,0,1.2-1.52l115.82,55.74a5.69,5.69,0,0,0-.43,1.84,5.91,5.91,0,0,0,9.68,4.92L1739.9,452.84a7.31,7.31,0,0,0-2.06,4.63,4.42,4.42,0,0,0,0,.63l-131.07,10.6a8.56,8.56,0,0,0-.44-1.76,7.36,7.36,0,0,0-9.57-4.06,7.27,7.27,0,0,0-3.85,3.66L1377.46,378.2a7.34,7.34,0,0,0-1.41-7.27,7,7,0,0,0-1.48-1.24l81.35-139.42A5.87,5.87,0,0,0,1462.49,229.42Zm282.87,455.81L1514.1,581.4a9.14,9.14,0,0,0-2.22-10l83.17-95.9a7.32,7.32,0,0,0,7.24,1,7.1,7.1,0,0,0,1.09-.58l144,206.9A7.3,7.3,0,0,0,1745.36,685.23ZM1375.42,381.3a7.33,7.33,0,0,0,1.76-2.34l215.44,88.34a7.29,7.29,0,0,0,.1,5.14,7.06,7.06,0,0,0,1.7,2.52l-83.15,95.89a9.33,9.33,0,0,0-2.09-1.27,9.12,9.12,0,0,0-8.32.61L1374.93,381.65C1375.09,381.53,1375.27,381.43,1375.42,381.3Zm263,432c-.09-.12-.18-.24-.27-.34l109-118.68a7.26,7.26,0,0,0,11.23-2.44L1789.7,705Zm152.89-108.48,37.91-27.13a4.26,4.26,0,0,0,3,1.48,2.26,2.26,0,0,0,.26,0l4.24,44.79Zm147.3,62.08-82.52-34.78-21.55-53.48a4.26,4.26,0,0,0,.94-.7l103.87,87.76A7.74,7.74,0,0,0,1938.63,766.87Zm-104.82-87.93,21.25,52.7-17.48-7.36-4.29-45.22A4,4,0,0,0,1833.81,678.94Zm3.84,46.26,17.83,7.5,21.79,54a7.3,7.3,0,0,0,1.51,13.77L1858.42,923.8c-.23,0-.45-.1-.69-.11a9,9,0,0,0-1.28,0Zm192.08,335.61a7.5,7.5,0,0,0-3.13,2.18l-68.32-52a4.84,4.84,0,0,0,.76-2.32,5,5,0,0,0-4.67-5.26,4.91,4.91,0,0,0-3.93,1.61l-31.36-23.86a4.35,4.35,0,0,0,.62-2,4.31,4.31,0,0,0-7.43-3.22l-46.35-35.26a10.69,10.69,0,0,0,2-5.57,10.81,10.81,0,0,0-8.67-11.25l20.36-123.28c.12,0,.22.05.34.06a7.35,7.35,0,1,0,.89-14.67,7.26,7.26,0,0,0-2.8.39l-21.48-53.29,81.8,34.47a7.24,7.24,0,0,0,.07,5.22,7.33,7.33,0,0,0,8.48,4.38Zm151.08-494.08c0,.11.05.23.08.34a9.2,9.2,0,0,0,1.28,2.14l-99.35,84a5.91,5.91,0,0,0-9,7.62L1950.54,765a7.35,7.35,0,0,0-8.08-1.78,7.49,7.49,0,0,0-2.58,1.78L1836,677.3a4.16,4.16,0,0,0,.67-3.35ZM1830.61,671a4.29,4.29,0,0,0-2.42,3.6,4.17,4.17,0,0,0,.58,2.45l-38.3,27.4-31.71-13.36a7.32,7.32,0,0,0-9.65-9.28,9.4,9.4,0,0,0-1.09.58l-144-206.9a7.36,7.36,0,0,0,2.82-5.95l131-10.6a7.31,7.31,0,0,0,6.83,6.33,6.94,6.94,0,0,0,2.81-.38l60.24,149.48A5.92,5.92,0,0,0,1810,625.6a6,6,0,0,0,2.25-.31Zm-21.65-57-.43.1-60.25-149.49a7.33,7.33,0,0,0,4.23-6.18,7.25,7.25,0,0,0-1.61-5l27.58-24.54Zm-29.91-186.71-11.15-67.69a7.33,7.33,0,0,0,5.74-6.7,6.83,6.83,0,0,0-.14-1.82l121.38-30.43a7.48,7.48,0,0,0,1.27,2.38Zm40.44-409a3.85,3.85,0,0,0,.47.08,8.89,8.89,0,0,0,2.49-.23l33.1,125.82a5.93,5.93,0,0,0,1.56,11.53,5.8,5.8,0,0,0,1.45-.11l41.06,156.1a7.37,7.37,0,0,0-5.08,6.53,7.9,7.9,0,0,0,.15,1.83l-121.38,30.43a7.32,7.32,0,0,0-5.46-5Zm-60.18,332a7.23,7.23,0,0,0,6.56,9.48,8.52,8.52,0,0,0,1.24-.05l11.22,68.19-28,24.9a7.25,7.25,0,0,0-9.88-.48l-151.17-162.4a6,6,0,0,0,1.09-1.63Zm-176.33-70a5.91,5.91,0,0,0-3.11,2.65l-115.82-55.74a5.92,5.92,0,0,0-1-6.12,6.23,6.23,0,0,0-1.15-1l65.55-112.37a9.17,9.17,0,0,0,6.38.78Zm-58.45-175c.1.13.17.27.28.39a9.33,9.33,0,0,0,1.92,1.6l-65.56,112.37a5.93,5.93,0,0,0-7.05,9.26,5.43,5.43,0,0,0,1.1.94l-81.33,139.42a7.22,7.22,0,0,0-9.43,2.45l-107.33-64.34a7.29,7.29,0,0,0-.33-7.39Zm-354.84,29.32a5.81,5.81,0,0,0,1.93-.38l75.59,163.27a7.07,7.07,0,0,0-1.43,1,7.35,7.35,0,0,0-.64,10.37,9.37,9.37,0,0,0,.94.85l-40.3,56.14-37.37-2.17a7.29,7.29,0,0,0-6.66-7.32Zm-11.1,235.91a7.33,7.33,0,0,0,7.37-1.38,7.22,7.22,0,0,0,2.4-4.67l36.86,2.14L1095.87,519.06c-.13-.08-.25-.17-.37-.23Zm-67.72,159.16a5.88,5.88,0,0,0,7.27-8l266.14-142.06a6.44,6.44,0,0,0,.76,1.06,7.34,7.34,0,0,0,9.23,1.45L1500.2,570.65a8.94,8.94,0,0,0-3,3.78,9.17,9.17,0,0,0,4.85,12,9,9,0,0,0,6.38.26l68.48,184a4.29,4.29,0,0,0,3.47,7.84,4.21,4.21,0,0,0,1.53-1.08L1629,813.62a5.93,5.93,0,0,0-.6,5.58,5.79,5.79,0,0,0,1.24,1.9l-33.36,36.29a4.22,4.22,0,0,0-6.75,4.39L1481,896.7a9.13,9.13,0,0,0-10.77-5.7,8.25,8.25,0,0,0-1.42.51l-64-131a9.14,9.14,0,1,0-12.25-12.62L1073.4,580.39a4.27,4.27,0,0,0-.73-4.48,4.12,4.12,0,0,0-1.11-.84ZM1258.13,735a5.92,5.92,0,0,0-7.77,3.15,5.32,5.32,0,0,0-.38,1.39L1089.14,726a7.3,7.3,0,0,0-7.54-7.54l-11.4-135.55a4.09,4.09,0,0,0,2.1-.94,3.77,3.77,0,0,0,.69-.91l319.18,167.54c-.05.1-.11.19-.16.3a8.71,8.71,0,0,0-.62,2.42l-129.65-10.86A5.9,5.9,0,0,0,1258.13,735ZM935.22,990.9l82.62-287.31a7.35,7.35,0,0,0,6.52-1.64,7.59,7.59,0,0,0,1.57-2L1075,723.06a7.32,7.32,0,0,0,2.94,9L936,991.17A6.21,6.21,0,0,0,935.22,990.9ZM911.33,772.58c-.3-.32-.62-.58-.94-.87L995,669.35l19.31,21.89a7.28,7.28,0,0,0-1,9.14L911.74,773.16C911.59,773,911.48,772.76,911.33,772.58ZM1037.49,618l7.3,17.91L1022,689.57a7.31,7.31,0,0,0-7,1.13l-19.38-22ZM995,668.12,890.41,549.54l127.82,21.17,18.92,46.47Zm31.25,31.08a7.31,7.31,0,0,0-3.55-9.34L1045.21,637l33.47,82.21a7.3,7.3,0,0,0-3.31,3.13Zm53.15,19.7L1045.66,636l22.59-53.11a4.57,4.57,0,0,0,1.14.21l11.4,135.52A8,8,0,0,0,1079.42,718.9Zm-11.94-136.3-22.25,52.29-7.15-17.57,29-35C1067.21,582.38,1067.33,582.52,1067.48,582.6Zm-2.34-4.13a4.37,4.37,0,0,0,1.07,3.17c.06.06.15.09.21.15l-28.69,34.68-18.57-45.62Zm-69.72-46.26a7.26,7.26,0,0,0,9.67,6.2l12.78,31.41L889.56,548.58l-10.12-11.47Zm-161.08,7.23a3.13,3.13,0,0,0,0-.42l44-1.87,9.89,11.22ZM820.48,474a4.25,4.25,0,0,0,1.58-.71l55.65,63.09-43.36,1.83a5.87,5.87,0,0,0-6.16-5.31Zm-55.66,68a4.31,4.31,0,0,0,8.22,1,4.19,4.19,0,0,0,.31-1.36l49.26-2.08a5.82,5.82,0,0,0,6.3,5.18l12.14,92.82a6,6,0,0,0-3.28,1.69l-111.3-95.63Zm62.54,435.13L554.28,855.45a7.33,7.33,0,0,0-12.92-6.72l-49.24-29.6,86-21.75a7.29,7.29,0,0,0,12.61,2.51l237,176.48A7.09,7.09,0,0,0,827.36,977.09ZM588.93,788.9a7.41,7.41,0,0,0-1.77-.75l35.62-157.42a5.91,5.91,0,0,0,2.61-11.52L640.14,554a7.33,7.33,0,0,0,8.55-7.14l76.6-3.24,112,96.2a5.33,5.33,0,0,0-.73,1.22,6,6,0,0,0,.43,5.45L591.25,791.14A7.31,7.31,0,0,0,588.93,788.9ZM338.36,594.46l71.82-47a4.89,4.89,0,0,0,1.94,1.48,4.95,4.95,0,0,0,6.31-6.88l33-21.59a4.46,4.46,0,0,0,1.64,1.25,4.32,4.32,0,0,0,5.66-2.29,4,4,0,0,0,.19-.62l175.19,27.25a6.44,6.44,0,0,0,0,1.52l-294.91,49A7.26,7.26,0,0,0,338.36,594.46Zm324-104.87,62,53.26-75.75,3.21a7.33,7.33,0,0,0-4.4-6c-.29-.12-.58-.18-.86-.27l10.73-47.43A9.14,9.14,0,0,0,662.39,489.59Zm-27.63,54a2,2,0,0,0-.17.32,6.7,6.7,0,0,0-.42,1.34L459,518a4.48,4.48,0,0,0-.46-2.22l48.72-31.89a10.77,10.77,0,0,0,18.1-.69ZM196.88,565.48a6.79,6.79,0,0,0-1.23-1.38l78.57-97.4a7.21,7.21,0,0,0,2.45,1.14L249.36,604.69,230,606.33l-33.64-32A7.34,7.34,0,0,0,196.88,565.48ZM31.93,270.78c.14-.08.29-.14.42-.23a8.46,8.46,0,0,0,1.85-1.67l102.21,80.49a5.93,5.93,0,0,0,8.19,8.27,6.76,6.76,0,0,0,1.09-.95L272.5,456.54a7.32,7.32,0,0,0-.12,8.27,6.46,6.46,0,0,0,1.22,1.38L195,563.59a7.3,7.3,0,0,0-7.36-.68Zm-20.14,354-.09-.42,172.17-52.26a7,7,0,0,0,.76,1.55,7.35,7.35,0,0,0,10.19,2.06,8.23,8.23,0,0,0,1-.79l33.1,31.55Zm218.94-17.66,18.47-1.55L246,621.61Zm13.18,62.85a7.26,7.26,0,0,0-4.64-10.5l7.23-36.21L382.33,752.62c-.09.12-.2.23-.28.35ZM441.67,788.81a4.26,4.26,0,0,0-.27-4.13,4.33,4.33,0,0,0-6-1.21,4.65,4.65,0,0,0-1,1l-42.27-25.41a5.92,5.92,0,0,0-8.56-7.6,6.87,6.87,0,0,0-.71.58L246.68,622.27,250,605.44l74.73-6.29a7.32,7.32,0,0,0,14.52-1.82l294.91-49a7.31,7.31,0,0,0,4.28,5.17c.29.11.58.18.88.27L624.6,619A5.92,5.92,0,0,0,622,630.54L586.37,788A7.29,7.29,0,0,0,578,796.6l-86.82,21.94ZM491,819.41l50,30a7.45,7.45,0,0,0-.82,2.73L389.07,846.5a7.72,7.72,0,0,0-.15-1.28ZM360.87,1024.58a7.23,7.23,0,0,0,.93.69,6.08,6.08,0,0,0,2.13.77l-4.76,49a4.3,4.3,0,0,0-2.32,8,4.15,4.15,0,0,0,1.5.53L347.12,1199.3a7.3,7.3,0,0,0-6.6,3.53,6.29,6.29,0,0,0-.47,1l-116.91-41a4.94,4.94,0,0,0-1-4.39ZM220,1166.21a4.92,4.92,0,0,0,2.61-2.1,3.87,3.87,0,0,0,.25-.55l116.91,41a7.32,7.32,0,0,0,2.33,7.65l-75,100c-.2-.14-.37-.31-.58-.43a10.78,10.78,0,0,0-8-1.25Zm46,164.45a10.75,10.75,0,0,0,1.82-18l75-100a3,3,0,0,0,.29.2,7.39,7.39,0,0,0,1.27.61L293.05,1383.2a4.36,4.36,0,0,0-2.24.14Zm88.26,182.1a7.68,7.68,0,0,0-2.16.53l-36.61-77.65a4.94,4.94,0,0,0,0-8.53,5,5,0,0,0-4.23-.39l-16.81-35.64a4.29,4.29,0,0,0,0-7.37,5.38,5.38,0,0,0-.6-.28l51.26-169.72a6,6,0,0,0,1.51.2Zm14.71-496.87a6.69,6.69,0,0,0-1-.79,6.07,6.07,0,0,0-2-.75l15.56-160.42a7.35,7.35,0,0,0,6.45-3.32l99.32,56.88Zm118.89-109-99.56-57a7.1,7.1,0,0,0,.76-2.61L540.09,853a7.34,7.34,0,0,0,1.21,3.94,6.33,6.33,0,0,0,.47.56Zm.74.43,53.72-49.25a7.33,7.33,0,0,0,8.17,1.42l58,110.67a5.41,5.41,0,0,0-.63.33,10.58,10.58,0,0,0-3.19,3.31Zm252.1,72.3A4.86,4.86,0,0,0,733,976a4.9,4.9,0,0,0-2.13,3.65l-39.49-.16a4.06,4.06,0,0,0-.64-1.93,4.31,4.31,0,0,0-6-1.21,4.23,4.23,0,0,0-1.84,3.11l-58.28-.23a10.69,10.69,0,0,0-1.78-5.64,10.81,10.81,0,0,0-13.69-3.75l-58-110.66c.11-.07.22-.1.32-.17a7.32,7.32,0,0,0,2.44-2.79L827,977.83a7.55,7.55,0,0,0-.44,2.17Zm95.2-6.26a7.28,7.28,0,0,0-6.07.93,6.62,6.62,0,0,0-1.55,1.43l-237-176.51c0-.09.13-.17.19-.26a7.35,7.35,0,0,0,.21-7.15L837.44,647.14a5.85,5.85,0,0,0,2.22,1.69,5.93,5.93,0,1,0,4.64-10.92,5.84,5.84,0,0,0-2.44-.46L829.72,544.6a5.92,5.92,0,0,0,4.22-3.47,7.15,7.15,0,0,0,.27-.9l54.94,9.1L994.5,668.74,909.79,771.17a10.83,10.83,0,1,0-10.48,18.68Zm84.8-67.94a5,5,0,0,0-1.32-9.78L914,856.58a4.19,4.19,0,0,0,1.83-.9,4.32,4.32,0,0,0,.37-6.09,4.23,4.23,0,0,0-3.34-1.4l-7.85-57.76a10.75,10.75,0,0,0,7.16-16.62L1013.77,701c.08.09.13.2.21.29a7.41,7.41,0,0,0,3.09,2l-82.62,287.3a6.9,6.9,0,0,0-2.22-.14Zm17.63,87.47a7.45,7.45,0,0,0-1.62-1.32l142-259.17.27.16a7.38,7.38,0,0,0,9.65-3.89,7.84,7.84,0,0,0,.48-1.86l160.85,13.47a6,6,0,0,0,1.1,3.55ZM1260.75,743.7a6.36,6.36,0,0,0,.53-1,6.93,6.93,0,0,0,.39-1.45l129.64,10.86a9.12,9.12,0,0,0,12.79,8.75l64,131a8.76,8.76,0,0,0-2.75,2.3Zm220.6,154c0-.07,0-.13-.08-.19l108.46-34.92a4.89,4.89,0,0,0,.73,1.1l-78.67,85.61a7.29,7.29,0,0,0-7.38-1.16,5.48,5.48,0,0,0-.8.41l-25.94-41.12A9.17,9.17,0,0,0,1481.35,897.67Zm18.9,59.66c0,.12,0,.23.09.35a8.18,8.18,0,0,0,.66,1.24l-87.06,63.62L1379,1000.08a10.8,10.8,0,0,0,1.19-8.11Zm-132.36,47.92a10.7,10.7,0,0,0,5.89-.6,10.85,10.85,0,0,0,4.83-3.87l34.63,22.27-55.38,40.46a4.49,4.49,0,0,0-1.88-1.21Zm-50,202.16a7.32,7.32,0,0,0,9.62,9.36,7.17,7.17,0,0,0,3.64-3.25L1470,1280.87a6.45,6.45,0,0,0-.32,1,6,6,0,0,0-.1.93l-188.06,4.54-87.33-130.84a7.37,7.37,0,0,0,2.15-2.55Zm-111.79,75a6.63,6.63,0,0,0-1.83-.1l-13.31-124.43a7,7,0,0,0,2.54-.93l87,130.43-68.59,1.66A7.31,7.31,0,0,0,1206.08,1282.43Zm-325-91.74c0-.16.11-.3.14-.44a9.24,9.24,0,0,0,.12-2.5l129.19-15.38a5.92,5.92,0,0,0,11.63.06,5.45,5.45,0,0,0,.09-1.45l160.28-19a7.32,7.32,0,0,0,5.77,5.94,7.07,7.07,0,0,0,1.83.11l13.33,124.42a7.31,7.31,0,0,0-5.69,4.72Zm320.47,105.59a7.26,7.26,0,0,0,10.3-5.18,8.78,8.78,0,0,0,.11-1.24l69.08-1.66,20.78,31.14a7.25,7.25,0,0,0-1.83,9.72L1118.2,1456.27a6.22,6.22,0,0,0-1.45-1.3ZM1313.21,1323a7.29,7.29,0,0,0-10.71-4.15l-20.5-30.71,187.55-4.53c0,.14,0,.3,0,.44Zm167.84-41.81a5.9,5.9,0,0,0-10.74-1.08l-138.8-67.33c.06-.16.09-.32.14-.47L1528.91,1268a4.29,4.29,0,0,0,0,1.29Zm56.06-14a4.19,4.19,0,0,0-7.91,0l-197.3-55.66a7.29,7.29,0,0,0-5.28-8.68l17.56-84a5.1,5.1,0,0,0,2.42-.31,5,5,0,0,0,2.73-6.47,4.93,4.93,0,0,0-3.14-2.87l8.06-38.61a4.22,4.22,0,0,0,4.41-5.87,5.07,5.07,0,0,0-.36-.54l55.66-40.68,222.75,143.18a7.32,7.32,0,0,0-.76,5.41,7.22,7.22,0,0,0,3,4.29l-45.88,76.92Zm56.52-13.26,56.55-14.09a7.24,7.24,0,0,0,1.36,2.52l-110.85,102.81a6.32,6.32,0,0,0-1-.79ZM1540,1356.43l102.42,124.43a5.91,5.91,0,0,0,5.46,10.08,6.11,6.11,0,0,0,2-1l31.34,38.07a4.23,4.23,0,0,0-1.26,4.12,4.31,4.31,0,0,0,5.23,3.14,4.22,4.22,0,0,0,1.45-.69l73.88,89.77a7.33,7.33,0,0,0-2.18,7.16,6.87,6.87,0,0,0,.37,1L1647,1686.23a5,5,0,0,0-5.39-2.33l-103.45-326.55A7.75,7.75,0,0,0,1540,1356.43ZM1647.55,1690a4.76,4.76,0,0,0,0-2.43c0-.2-.13-.39-.2-.59l111.67-53.65a7.29,7.29,0,0,0,7,3.75l14.1,98.55Zm133.61,46.81,121.81,41.9c0,.12-.1.2-.1.32l-106.36-7.29a10.7,10.7,0,0,0-11.94-11.08Zm124.09,77.09a5.24,5.24,0,0,0,0-2.43,5,5,0,0,0-9.31-.89l-37.12-13.34a4.17,4.17,0,0,0,0-2,4.25,4.25,0,0,0-8-.81l-54.86-19.7a10.22,10.22,0,0,0,.45-2.13l106.42,7.29a5.67,5.67,0,0,0,0,.92,4.32,4.32,0,0,0,5.24,3.14,4.12,4.12,0,0,0,2-1.29l76.54,59a7.47,7.47,0,0,0-.71,1.3Z"/></g></g></g></svg>