<svg xmlns="http://www.w3.org/2000/svg" viewBox="0 0 471.71 244.17"><defs><style>.cls-1{opacity:0.6;}.cls-2{fill:#fff;}</style></defs><title>dots right</title><g id="Layer_2" data-name="Layer 2"><g id="footer"><g class="cls-1"><path class="cls-2" d="M403.58,20.1a2.74,2.74,0,1,1-2.75,2.72A2.74,2.74,0,0,1,403.58,20.1Z"/><path class="cls-2" d="M371.83,180.34a2.74,2.74,0,1,1-2.75,2.72A2.74,2.74,0,0,1,371.83,180.34Z"/><path class="cls-2" d="M331.05,74.19a2.74,2.74,0,1,1-2.75,2.72A2.74,2.74,0,0,1,331.05,74.19Z"/><path class="cls-2" d="M380.31,96.53a2.74,2.74,0,1,1-2.75,2.72A2.73,2.73,0,0,1,380.31,96.53Z"/><path class="cls-2" d="M222.87,238.7a2.74,2.74,0,1,1-2.75,2.71A2.74,2.74,0,0,1,222.87,238.7Z"/><path class="cls-2" d="M63.29,71.68a2.74,2.74,0,1,1-2.76,2.72A2.73,2.73,0,0,1,63.29,71.68Z"/><path class="cls-2" d="M118.3,170a2.73,2.73,0,1,1-2.76,2.71A2.73,2.73,0,0,1,118.3,170Z"/><path class="cls-2" d="M201.48,191.33a2.74,2.74,0,1,1-2.76,2.72A2.73,2.73,0,0,1,201.48,191.33Z"/><path class="cls-2" d="M139.56,22a2.74,2.74,0,1,1-2.75,2.72A2.74,2.74,0,0,1,139.56,22Z"/><path class="cls-2" d="M32.41,208.87a2.74,2.74,0,1,1-2.75,2.72A2.73,2.73,0,0,1,32.41,208.87Z"/><path class="cls-2" d="M302.64,16.32A2.74,2.74,0,1,1,299.88,19,2.73,2.73,0,0,1,302.64,16.32Z"/><path class="cls-2" d="M164.14,142a2.73,2.73,0,1,1-2.75,2.71A2.73,2.73,0,0,1,164.14,142Z"/><path class="cls-2" d="M53.53,122.6a2.74,2.74,0,1,1-2.75,2.72A2.74,2.74,0,0,1,53.53,122.6Z"/><path class="cls-2" d="M2.75,161.15A2.73,2.73,0,1,1,0,163.86,2.74,2.74,0,0,1,2.75,161.15Z"/><path class="cls-2" d="M209.94,173.22a2.74,2.74,0,1,1-2.75,2.71A2.74,2.74,0,0,1,209.94,173.22Z"/><path class="cls-2" d="M242,111.16a2.73,2.73,0,1,1-2.75,2.71A2.74,2.74,0,0,1,242,111.16Z"/><path class="cls-2" d="M211.6,62a2.74,2.74,0,1,1-2.75,2.72A2.74,2.74,0,0,1,211.6,62Z"/><path class="cls-2" d="M212.79,149.94a2.74,2.74,0,1,1-2.75,2.72A2.74,2.74,0,0,1,212.79,149.94Z"/><path class="cls-2" d="M438.34,188.3a2.74,2.74,0,1,1-2.76,2.72A2.73,2.73,0,0,1,438.34,188.3Z"/><path class="cls-2" d="M469,151.56a2.74,2.74,0,1,1-2.75,2.72A2.74,2.74,0,0,1,469,151.56Z"/><path class="cls-2" d="M292.47,212.09a2.73,2.73,0,1,1-2.75,2.71A2.74,2.74,0,0,1,292.47,212.09Z"/><path class="cls-2" d="M263,83.72a2.74,2.74,0,1,1-2.75,2.72A2.74,2.74,0,0,1,263,83.72Z"/><path class="cls-2" d="M342.7,59.27A2.74,2.74,0,1,1,339.94,62,2.73,2.73,0,0,1,342.7,59.27Z"/><path class="cls-2" d="M29.69,0a2.74,2.74,0,1,1-2.75,2.72A2.74,2.74,0,0,1,29.69,0Z"/><path class="cls-2" d="M272,200.11a2.74,2.74,0,1,1-2.76,2.72A2.74,2.74,0,0,1,272,200.11Z"/></g></g></g></svg>