<svg xmlns="http://www.w3.org/2000/svg" viewBox="0 0 466.78 253.5"><defs><style>.cls-1{opacity:0.6;}.cls-2{fill:#fff;}</style></defs><title>dots left</title><g id="Layer_2" data-name="Layer 2"><g id="footer"><g class="cls-1"><path class="cls-2" d="M2.74,198.34a2.74,2.74,0,1,1,2.73-2.74A2.74,2.74,0,0,1,2.74,198.34Z"/><path class="cls-2" d="M100.65,238.52a2.74,2.74,0,1,1,2.73-2.74A2.74,2.74,0,0,1,100.65,238.52Z"/><path class="cls-2" d="M393.46,183.64a2.74,2.74,0,1,1,2.73-2.74A2.74,2.74,0,0,1,393.46,183.64Z"/><path class="cls-2" d="M33.2,37.85a2.74,2.74,0,1,1,2.73-2.74A2.74,2.74,0,0,1,33.2,37.85Z"/><path class="cls-2" d="M72.09,140.94a2.74,2.74,0,1,1,5.47,0"/><path class="cls-2" d="M25.4,121.73A2.74,2.74,0,1,1,28.13,119,2.74,2.74,0,0,1,25.4,121.73Z"/><path class="cls-2" d="M342.61,144a2.74,2.74,0,1,1,2.73-2.74A2.74,2.74,0,0,1,342.61,144Z"/><path class="cls-2" d="M366.45,221.06a2.74,2.74,0,1,1,2.73-2.74A2.73,2.73,0,0,1,366.45,221.06Z"/><path class="cls-2" d="M464.05,69.8a2.74,2.74,0,1,1,2.73-2.74A2.73,2.73,0,0,1,464.05,69.8Z"/><path class="cls-2" d="M279.89,177.35a2.74,2.74,0,1,1,2.73-2.74A2.74,2.74,0,0,1,279.89,177.35Z"/><path class="cls-2" d="M402.93,212.6a2.74,2.74,0,1,1,2.73-2.74A2.73,2.73,0,0,1,402.93,212.6Z"/><path class="cls-2" d="M119.36,9.47a2.73,2.73,0,1,1,5.46,0"/><path class="cls-2" d="M18.92,208a2.74,2.74,0,1,1,2.73-2.74A2.73,2.73,0,0,1,18.92,208Z"/><path class="cls-2" d="M421.75,182.9a2.74,2.74,0,1,1,2.73-2.74A2.73,2.73,0,0,1,421.75,182.9Z"/><path class="cls-2" d="M34.28,86.07A2.74,2.74,0,1,1,37,83.33,2.74,2.74,0,0,1,34.28,86.07Z"/><path class="cls-2" d="M372.38,6.59a2.73,2.73,0,1,1,2.73-2.73A2.74,2.74,0,0,1,372.38,6.59Z"/><path class="cls-2" d="M366.27,59.71A2.74,2.74,0,1,1,369,57,2.74,2.74,0,0,1,366.27,59.71Z"/><path class="cls-2" d="M241.19,74.57a2.74,2.74,0,1,1,2.73-2.74A2.74,2.74,0,0,1,241.19,74.57Z"/><path class="cls-2" d="M352,93a2.74,2.74,0,1,1,2.73-2.74A2.73,2.73,0,0,1,352,93Z"/><path class="cls-2" d="M402.42,54.08a2.74,2.74,0,1,1,2.73-2.74A2.74,2.74,0,0,1,402.42,54.08Z"/><path class="cls-2" d="M454.62,64.51a2.74,2.74,0,1,1,2.73-2.74A2.74,2.74,0,0,1,454.62,64.51Z"/><path class="cls-2" d="M192.48,67a2.74,2.74,0,1,1,2.73-2.74A2.74,2.74,0,0,1,192.48,67Z"/><path class="cls-2" d="M233.4,221.69a2.74,2.74,0,1,1,2.73-2.74A2.74,2.74,0,0,1,233.4,221.69Z"/><path class="cls-2" d="M202.21,113.19a2.74,2.74,0,1,1,2.73-2.74A2.74,2.74,0,0,1,202.21,113.19Z"/><path class="cls-2" d="M316.1,253.5a2.74,2.74,0,0,1,5.47,0"/><path class="cls-2" d="M112.3,5.47A2.74,2.74,0,1,1,115,2.73,2.74,2.74,0,0,1,112.3,5.47Z"/><path class="cls-2" d="M142.78,133.59a2.74,2.74,0,1,1,2.73-2.74A2.74,2.74,0,0,1,142.78,133.59Z"/><path class="cls-2" d="M376.78,215.43a2.73,2.73,0,1,1,2.73-2.73A2.73,2.73,0,0,1,376.78,215.43Z"/><path class="cls-2" d="M151.21,226.91a2.74,2.74,0,1,1,2.72-2.74A2.74,2.74,0,0,1,151.21,226.91Z"/></g></g></g></svg>