<svg xmlns="http://www.w3.org/2000/svg" viewBox="0 0 1003.95 549.43"><defs><style>.cls-1{opacity:0.6;}.cls-2{fill:#fff;}</style></defs><title>dots</title><g id="Layer_2" data-name="Layer 2"><g id="footer"><g class="cls-1"><path class="cls-2" d="M406.12,532.33a2.74,2.74,0,1,1,2.73-2.74A2.73,2.73,0,0,1,406.12,532.33Z"/><path class="cls-2" d="M503.48,250.05a2.74,2.74,0,1,1,2.73-2.74A2.74,2.74,0,0,1,503.48,250.05Z"/><path class="cls-2" d="M796.29,195.17a2.74,2.74,0,1,1,2.73-2.74A2.74,2.74,0,0,1,796.29,195.17Z"/><path class="cls-2" d="M436.58,371.84a2.74,2.74,0,1,1,2.73-2.74A2.73,2.73,0,0,1,436.58,371.84Z"/><path class="cls-2" d="M478.21,477.66a2.74,2.74,0,1,1,2.73-2.74A2.74,2.74,0,0,1,478.21,477.66Z"/><path class="cls-2" d="M428.77,455.72A2.74,2.74,0,1,1,431.5,453,2.73,2.73,0,0,1,428.77,455.72Z"/><path class="cls-2" d="M585.06,312.29a2.74,2.74,0,1,1,2.73-2.74A2.74,2.74,0,0,1,585.06,312.29Z"/><path class="cls-2" d="M23.19,144.28a2.74,2.74,0,1,1,2.73-2.74A2.74,2.74,0,0,1,23.19,144.28Z"/><path class="cls-2" d="M575.08,155.77a2.74,2.74,0,1,1,2.73-2.74A2.74,2.74,0,0,1,575.08,155.77Z"/><path class="cls-2" d="M746,478a2.74,2.74,0,1,1,2.73-2.74A2.74,2.74,0,0,1,746,478Z"/><path class="cls-2" d="M610.59,277.27a2.74,2.74,0,1,1,2.73-2.74A2.74,2.74,0,0,1,610.59,277.27Z"/><path class="cls-2" d="M769.28,232.59a2.73,2.73,0,1,1,2.73-2.73A2.74,2.74,0,0,1,769.28,232.59Z"/><path class="cls-2" d="M867.43,403.79a2.74,2.74,0,1,1,2.73-2.74A2.74,2.74,0,0,1,867.43,403.79Z"/><path class="cls-2" d="M906.27,360.18a2.74,2.74,0,1,1,2.73-2.74A2.74,2.74,0,0,1,906.27,360.18Z"/><path class="cls-2" d="M925.62,318.47a2.74,2.74,0,1,1,2.73-2.74A2.74,2.74,0,0,1,925.62,318.47Z"/><path class="cls-2" d="M846.16,278.68a2.74,2.74,0,1,1,2.73-2.74A2.74,2.74,0,0,1,846.16,278.68Z"/><path class="cls-2" d="M1001.22,292.86a2.74,2.74,0,1,1,2.73-2.74A2.73,2.73,0,0,1,1001.22,292.86Z"/><path class="cls-2" d="M682.72,188.88a2.73,2.73,0,1,1,2.73-2.73A2.72,2.72,0,0,1,682.72,188.88Z"/><path class="cls-2" d="M805.75,224.14a2.74,2.74,0,1,1,2.73-2.74A2.74,2.74,0,0,1,805.75,224.14Z"/><path class="cls-2" d="M690.19,380.2a2.74,2.74,0,1,1,2.73-2.74A2.74,2.74,0,0,1,690.19,380.2Z"/><path class="cls-2" d="M2.74,338.42a2.74,2.74,0,1,1,2.73-2.74A2.74,2.74,0,0,1,2.74,338.42Z"/><path class="cls-2" d="M336.36,276.09a2.74,2.74,0,1,1,2.73-2.74A2.73,2.73,0,0,1,336.36,276.09Z"/><path class="cls-2" d="M143.22,175.77A2.74,2.74,0,1,1,146,173,2.74,2.74,0,0,1,143.22,175.77Z"/><path class="cls-2" d="M606.84,359.48a2.74,2.74,0,1,1,2.73-2.74A2.74,2.74,0,0,1,606.84,359.48Z"/><path class="cls-2" d="M491.19,212.62a2.74,2.74,0,1,1,2.73-2.74A2.74,2.74,0,0,1,491.19,212.62Z"/><path class="cls-2" d="M552.31,133.15a2.74,2.74,0,1,1,2.73-2.74A2.74,2.74,0,0,1,552.31,133.15Z"/><path class="cls-2" d="M272.22,290.6a2.74,2.74,0,1,1,2.73-2.74A2.74,2.74,0,0,1,272.22,290.6Z"/><path class="cls-2" d="M152.94,546.8a2.74,2.74,0,1,1,2.73-2.74A2.74,2.74,0,0,1,152.94,546.8Z"/><path class="cls-2" d="M923.57,387.78a2.73,2.73,0,1,1,2.73-2.73A2.73,2.73,0,0,1,923.57,387.78Z"/><path class="cls-2" d="M420.77,286.71A2.74,2.74,0,1,1,423.5,284,2.74,2.74,0,0,1,420.77,286.71Z"/><path class="cls-2" d="M524.92,23.74A2.74,2.74,0,1,1,527.65,21,2.74,2.74,0,0,1,524.92,23.74Z"/><path class="cls-2" d="M421.74,219.58a2.74,2.74,0,1,1,2.73-2.74A2.73,2.73,0,0,1,421.74,219.58Z"/><path class="cls-2" d="M824.58,194.43a2.74,2.74,0,1,1,2.73-2.74A2.74,2.74,0,0,1,824.58,194.43Z"/><path class="cls-2" d="M437.1,97.6a2.73,2.73,0,1,1,2.73-2.73A2.72,2.72,0,0,1,437.1,97.6Z"/><path class="cls-2" d="M144.56,331.46a2.74,2.74,0,1,1,2.73-2.74A2.74,2.74,0,0,1,144.56,331.46Z"/><path class="cls-2" d="M270.27,111.85a2.74,2.74,0,1,1,2.73-2.74A2.74,2.74,0,0,1,270.27,111.85Z"/><path class="cls-2" d="M223.32,331.75a2.74,2.74,0,1,1,2.73-2.74A2.74,2.74,0,0,1,223.32,331.75Z"/><path class="cls-2" d="M231.15,476.77a2.74,2.74,0,1,1,2.73-2.74A2.74,2.74,0,0,1,231.15,476.77Z"/><path class="cls-2" d="M775.76,340.59a2.74,2.74,0,1,1,2.73-2.74A2.74,2.74,0,0,1,775.76,340.59Z"/><path class="cls-2" d="M254.38,409.92a2.74,2.74,0,1,1,2.73-2.74A2.74,2.74,0,0,1,254.38,409.92Z"/><path class="cls-2" d="M349.67,167.62a2.74,2.74,0,1,1,2.73-2.74A2.74,2.74,0,0,1,349.67,167.62Z"/><path class="cls-2" d="M769.09,71.25a2.74,2.74,0,1,1,2.73-2.74A2.73,2.73,0,0,1,769.09,71.25Z"/><path class="cls-2" d="M507.09,535.3a2.74,2.74,0,1,1,2.73-2.74A2.74,2.74,0,0,1,507.09,535.3Z"/><path class="cls-2" d="M644.57,408.56a2.74,2.74,0,1,1,2.73-2.74A2.74,2.74,0,0,1,644.57,408.56Z"/><path class="cls-2" d="M755.33,427a2.74,2.74,0,1,1,2.73-2.74A2.74,2.74,0,0,1,755.33,427Z"/><path class="cls-2" d="M805.8,388.07a2.74,2.74,0,1,1,2.73-2.74A2.74,2.74,0,0,1,805.8,388.07Z"/><path class="cls-2" d="M858,398.5a2.74,2.74,0,1,1,2.73-2.74A2.74,2.74,0,0,1,858,398.5Z"/><path class="cls-2" d="M598.52,377.66a2.74,2.74,0,1,1,2.73-2.74A2.73,2.73,0,0,1,598.52,377.66Z"/><path class="cls-2" d="M567,440a2.74,2.74,0,1,1,2.73-2.74A2.74,2.74,0,0,1,567,440Z"/><path class="cls-2" d="M597.75,488.88a2.74,2.74,0,1,1,2.73-2.74A2.73,2.73,0,0,1,597.75,488.88Z"/><path class="cls-2" d="M595.86,401a2.74,2.74,0,1,1,2.73-2.74A2.74,2.74,0,0,1,595.86,401Z"/><path class="cls-2" d="M636.22,233.22a2.73,2.73,0,1,1,2.73-2.73A2.72,2.72,0,0,1,636.22,233.22Z"/><path class="cls-2" d="M605,124.72a2.74,2.74,0,1,1,2.73-2.74A2.74,2.74,0,0,1,605,124.72Z"/><path class="cls-2" d="M721.67,267.76A2.73,2.73,0,1,1,724.4,265,2.73,2.73,0,0,1,721.67,267.76Z"/><path class="cls-2" d="M295.08,216.54a2.73,2.73,0,1,1,2.73-2.73A2.74,2.74,0,0,1,295.08,216.54Z"/><path class="cls-2" d="M370,364.42a2.74,2.74,0,1,1,2.73-2.74A2.74,2.74,0,0,1,370,364.42Z"/><path class="cls-2" d="M339.65,401.4a2.74,2.74,0,1,1,2.73-2.74A2.74,2.74,0,0,1,339.65,401.4Z"/><path class="cls-2" d="M308.1,491.65a2.74,2.74,0,1,1,2.73-2.74A2.74,2.74,0,0,1,308.1,491.65Z"/><path class="cls-2" d="M722,296a2.74,2.74,0,1,1,2.73-2.74A2.74,2.74,0,0,1,722,296Z"/><path class="cls-2" d="M753.62,282a2.74,2.74,0,1,1,2.73-2.74A2.74,2.74,0,0,1,753.62,282Z"/><path class="cls-2" d="M788.39,307a2.74,2.74,0,1,1,2.73-2.74A2.74,2.74,0,0,1,788.39,307Z"/><path class="cls-2" d="M515.68,339.46a2.74,2.74,0,1,1,2.73-2.74A2.74,2.74,0,0,1,515.68,339.46Z"/><path class="cls-2" d="M546.16,467.58a2.74,2.74,0,1,1,2.73-2.74A2.74,2.74,0,0,1,546.16,467.58Z"/><path class="cls-2" d="M466.68,492.67a2.74,2.74,0,1,1,2.73-2.74A2.73,2.73,0,0,1,466.68,492.67Z"/><path class="cls-2" d="M780.16,549.43a2.74,2.74,0,1,1,2.73-2.74A2.74,2.74,0,0,1,780.16,549.43Z"/><path class="cls-2" d="M536.24,351.27a2.74,2.74,0,1,1,2.73-2.74A2.74,2.74,0,0,1,536.24,351.27Z"/><path class="cls-2" d="M554,238.44a2.74,2.74,0,1,1,2.73-2.74A2.74,2.74,0,0,1,554,238.44Z"/><path class="cls-2" d="M359.76,122.56a2.74,2.74,0,1,1,2.73-2.74A2.74,2.74,0,0,1,359.76,122.56Z"/><path class="cls-2" d="M241,5.47a2.74,2.74,0,1,1,2.73-2.74A2.73,2.73,0,0,1,241,5.47Z"/></g></g></g></svg>