<svg xmlns="http://www.w3.org/2000/svg" xmlns:xlink="http://www.w3.org/1999/xlink" viewBox="0 0 761.26 205.04"><defs><style>.cls-1{fill:url(#linear-gradient);}.cls-2{fill:url(#linear-gradient-2);}.cls-3{fill:url(#linear-gradient-4);}.cls-4{fill:url(#linear-gradient-5);}.cls-5{fill:url(#linear-gradient-6);}.cls-6{fill:url(#linear-gradient-7);}.cls-7{font-size:85.18px;fill:#001c71;font-family:NexaBold, Nexa Bold;letter-spacing:-0.04em;}.cls-8{letter-spacing:-0.02em;}</style><linearGradient id="linear-gradient" y1="55.17" x2="761.26" y2="55.17" gradientUnits="userSpaceOnUse"><stop offset="0" stop-color="#7ca5d6"/><stop offset="1" stop-color="#001c71"/></linearGradient><linearGradient id="linear-gradient-2" x1="0" y1="55.32" x2="761.26" y2="55.32" xlink:href="#linear-gradient"/><linearGradient id="linear-gradient-4" x1="0" y1="55.17" x2="761.26" y2="55.17" xlink:href="#linear-gradient"/><linearGradient id="linear-gradient-5" x1="0" y1="55.4" x2="761.26" y2="55.4" xlink:href="#linear-gradient"/><linearGradient id="linear-gradient-6" x1="0" y1="55.24" x2="761.26" y2="55.24" xlink:href="#linear-gradient"/><linearGradient id="linear-gradient-7" x1="14.03" y1="55.24" x2="756.62" y2="55.24" xlink:href="#linear-gradient"/></defs><title>EMPOWER 2019</title><g id="Layer_2" data-name="Layer 2"><g id="Layer_2-2" data-name="Layer 2"><path class="cls-1" d="M264.38,2c-13.68,0-27.36.1-41,.14a9.08,9.08,0,0,0-9.06,9.07v97.18h20V77.1h30C316.43,77.1,316.28,2,264.38,2Zm0,56.76h-30V21.1h30C289.87,21.1,290,58.73,264.38,58.73Z"/><path class="cls-2" d="M89.09,13.34,81,2.12H9.07A9.08,9.08,0,0,0,0,11.19v97.17H79.53V88.63H19.88v-24H77.4V46H19.88V21.55H89.09v87h20V41.18L95,21.55Z"/><polygon class="cls-2" points="145.39 47.96 112.15 2.28 88.16 2.12 89.09 3.41 101.06 20.04 109.81 32.2 142.96 77.55 146.91 77.55 181.51 31.42 181.51 108.51 201.55 108.51 201.55 2.28 178.63 2.28 145.39 47.96"/><path class="cls-3" d="M729.09,70.72C749.27,66.63,756,51.9,756,37.33c0-18.36-13.21-35-38.25-35.21-13.81,0-27.63-.1-41.45-.13a9.06,9.06,0,0,0-9.08,9.07V76.59l20,27.84V72.85h19.27l31,35.51h23.83V107ZM687.2,54.79v-34h30.5c12.6,0,18.22,8.5,18.22,17s-5.47,17-18.22,17Z"/><path class="cls-4" d="M360.75,0C324,0,306.11,28.08,306.11,56s17.3,54.79,54.64,54.79,54.18-27.47,54.48-54.94C415.54,28.08,397.33,0,360.75,0Zm0,92.43c-25,0-34.45-18.67-34.91-36.12-.45-17.91,9.87-38.1,34.91-38.1s35.06,20,34.75,37.94C395.2,73.61,385.79,92.43,360.75,92.43Z"/><path class="cls-5" d="M667.17,88.63H598v-24h57.52V46H598V21.55H657.6V2.12H587.15a9.08,9.08,0,0,0-9.07,9.08v97.16h104.8L667.17,86.53Z"/><path class="cls-6" d="M525.42,78.77,498.86,2.12H485.81L460,78.77,435,2.12H425.5A9.08,9.08,0,0,0,417,14.32l34.53,94h17l12.9-33.08,11.08-33.85L503.71,75l13.21,33.39h17L572.16,2.12H549.7Z"/><text class="cls-7" transform="translate(569.09 178.8)">20<tspan class="cls-8" x="108.27" y="0">1</tspan><tspan x="138.08" y="0">9</tspan></text></g></g></svg>