<svg xmlns="http://www.w3.org/2000/svg" xmlns:xlink="http://www.w3.org/1999/xlink" viewBox="0 0 282.75 146.51"><defs><style>.cls-1{fill:url(#linear-gradient);}.cls-2{fill:url(#linear-gradient-2);}.cls-3{fill:url(#linear-gradient-3);}.cls-4{fill:url(#linear-gradient-4);}.cls-5{fill:url(#linear-gradient-5);}.cls-6{fill:url(#linear-gradient-6);}.cls-7{fill:url(#linear-gradient-7);}.cls-8{fill:url(#linear-gradient-8);}.cls-9{fill:url(#linear-gradient-9);}.cls-10{fill:url(#linear-gradient-10);}.cls-11{fill:url(#linear-gradient-11);}.cls-12{fill:url(#linear-gradient-12);}.cls-13{fill:url(#linear-gradient-13);}.cls-14{fill:url(#linear-gradient-14);}.cls-15{fill:url(#linear-gradient-15);}.cls-16{fill:url(#linear-gradient-16);}.cls-17{fill:url(#linear-gradient-17);}.cls-18{fill:url(#linear-gradient-20);}.cls-19{fill:url(#linear-gradient-21);}.cls-20{fill:url(#linear-gradient-22);}</style><linearGradient id="linear-gradient" x1="-21.5" y1="80.7" x2="304.25" y2="80.7" gradientUnits="userSpaceOnUse"><stop offset="0" stop-color="#7ca5d6"/><stop offset="1" stop-color="#fff"/></linearGradient><linearGradient id="linear-gradient-2" x1="-21.5" y1="108.11" x2="304.25" y2="108.11" xlink:href="#linear-gradient"/><linearGradient id="linear-gradient-3" x1="-21.5" y1="84.05" x2="304.25" y2="84.05" xlink:href="#linear-gradient"/><linearGradient id="linear-gradient-4" x1="-21.5" y1="89.86" x2="304.25" y2="89.86" xlink:href="#linear-gradient"/><linearGradient id="linear-gradient-5" x1="-21.5" y1="93.46" x2="304.25" y2="93.46" xlink:href="#linear-gradient"/><linearGradient id="linear-gradient-6" x1="-21.5" y1="103.14" x2="304.25" y2="103.14" xlink:href="#linear-gradient"/><linearGradient id="linear-gradient-7" x1="-21.5" y1="53.11" x2="304.25" y2="53.11" xlink:href="#linear-gradient"/><linearGradient id="linear-gradient-8" x1="-21.5" y1="56.52" x2="304.25" y2="56.52" xlink:href="#linear-gradient"/><linearGradient id="linear-gradient-9" x1="-21.5" y1="136.42" x2="304.25" y2="136.42" xlink:href="#linear-gradient"/><linearGradient id="linear-gradient-10" x1="-21.5" y1="73.96" x2="304.25" y2="73.96" xlink:href="#linear-gradient"/><linearGradient id="linear-gradient-11" x1="-21.5" y1="136.48" x2="304.25" y2="136.48" xlink:href="#linear-gradient"/><linearGradient id="linear-gradient-12" x1="-21.5" y1="43.91" x2="304.25" y2="43.91" xlink:href="#linear-gradient"/><linearGradient id="linear-gradient-13" x1="-21.5" y1="136.42" x2="304.25" y2="136.42" xlink:href="#linear-gradient"/><linearGradient id="linear-gradient-14" x1="-21.5" y1="136.48" x2="304.25" y2="136.48" xlink:href="#linear-gradient"/><linearGradient id="linear-gradient-15" x1="-21.5" y1="136.48" x2="304.25" y2="136.48" xlink:href="#linear-gradient"/><linearGradient id="linear-gradient-16" x1="-21.5" y1="136.48" x2="304.25" y2="136.48" xlink:href="#linear-gradient"/><linearGradient id="linear-gradient-17" x1="-21.5" y1="136.42" x2="304.25" y2="136.42" xlink:href="#linear-gradient"/><linearGradient id="linear-gradient-20" x1="-21.5" y1="99.1" x2="304.25" y2="99.1" xlink:href="#linear-gradient"/><linearGradient id="linear-gradient-21" x1="-21.5" y1="94.49" x2="304.25" y2="94.49" xlink:href="#linear-gradient"/><linearGradient id="linear-gradient-22" x1="-21.5" y1="101.69" x2="304.25" y2="101.69" xlink:href="#linear-gradient"/></defs><title>KTL_Logo_Gradient_Lb_W</title><g id="Layer_2" data-name="Layer 2"><g id="footer"><path class="cls-1" d="M31.44,96.54c-.32-.34-.62-.68-.93-1-7.59,5.63-13.26,8.22-13.22,5.38.05-3.71,6.1-10.46,6.1-10.46l-.63-1c-1.72,1.93-6.25,7.12-8.39,10.83a15.9,15.9,0,0,0-1.57,4C10.22,117,41.89,95.11,71,59.53a9.62,9.62,0,0,0,2.15-6.08s-1.27,1.42-2,2.17c-4,4.14-13.29,14.51-22.45,23.74.33.56.65,1.14,1,1.69l-9.06,7.7-.73-.93c-1,.88-2,1.74-2.93,2.56.22.3.44.61.68.9Z"/><path class="cls-2" d="M79.21,114.54c1-.05,2-.12,3-.22a.3.3,0,0,0,.27-.3.32.32,0,0,0-.3-.29c-13.31-1-24.83-5.18-34.07-12.15-1.57,1.46-3.17,2.92-4.78,4.36A63.34,63.34,0,0,0,79.21,114.54Z"/><path class="cls-3" d="M49.67,81.05c-.33-.55-.65-1.13-1-1.69-1.49,1.51-3,3-4.45,4.41s-2.91,2.76-4.36,4l.73.93Z"/><path class="cls-4" d="M7,113.11C4.16,127,35.25,110.66,70.3,69.45a11.89,11.89,0,0,0,2.84-7.68C44.13,97.38,11,120.05,9.4,111.18a9.66,9.66,0,0,1,.86-5.18A28.05,28.05,0,0,0,7,113.11Z"/><path class="cls-5" d="M31.44,96.54l6.19-5.26c-.24-.29-.46-.6-.68-.9-2.24,1.9-4.41,3.63-6.44,5.14C30.82,95.86,31.12,96.2,31.44,96.54Z"/><path class="cls-6" d="M41.83,105c.49.31,1,.61,1.49.91,1.61-1.44,3.21-2.9,4.78-4.36l-1.6-1.24Z"/><path class="cls-7" d="M30.51,95.52c2-1.51,4.2-3.24,6.44-5.14a62.34,62.34,0,0,1-8.18-14.71c-8.89-22.48-3.43-47,13.12-64.45a.31.31,0,0,0,0-.41.3.3,0,0,0-.41,0C19.44,27.83,10.88,55.51,20.19,79.06A53.83,53.83,0,0,0,30.51,95.52Z"/><path class="cls-8" d="M79.87,97.34H95.06a1,1,0,0,0,1-1V52.05l58.16,58.16a5.39,5.39,0,0,0,3.81,1.58h24.19a2,2,0,0,0,2-2v-62h27.61a4.81,4.81,0,0,0,3.4-1.41l14.05-14.07a1,1,0,0,0-.68-1.63H147.33a7.3,7.3,0,0,0-5,2L128.06,46.06a1,1,0,0,0,.66,1.66H167.1v51.2L117.41,49.24,162.52,4.13a1,1,0,0,0-.68-1.64H141.07a2.68,2.68,0,0,0-1.89.79L96,46.43V2.22a1,1,0,0,0-1-1H79.87a1,1,0,0,0-1,1V96.38A1,1,0,0,0,79.87,97.34Z"/><path class="cls-9" d="M253.56,128.21v12.27L238.39,127l-.64-.53h-1a2.39,2.39,0,0,0-2.4,2.39v17.55h2.5a1.56,1.56,0,0,0,1.57-1.56V132.89l15.17,13.5H256a1.64,1.64,0,0,0,1.64-1.64v-18.3h-2.31A1.76,1.76,0,0,0,253.56,128.21Z"/><path class="cls-10" d="M217.33,53.48v40a18.29,18.29,0,0,0,18.29,18.3h45.79a1.34,1.34,0,0,0,1.34-1.34V96.57a2,2,0,0,0-2-2H243.85a9.28,9.28,0,0,1-9.28-9.28V37.1a1,1,0,0,0-1.64-.69L218.44,50.82A3.74,3.74,0,0,0,217.33,53.48Z"/><path class="cls-11" d="M266.91,130.52h13.72a2.12,2.12,0,0,0,2.12-2.11v-2H266.91a6,6,0,0,0,0,12.07h9.8a2,2,0,0,1,0,3.92H263a2.12,2.12,0,0,0-2.11,2.12v1.95h15.83a6,6,0,1,0,0-12.06h-9.8a2,2,0,0,1,0-3.93Z"/><path class="cls-12" d="M48.69,79.36a72.16,72.16,0,0,1-4.39-9.15C34.19,44.66,39.57,17.29,58,.51a.29.29,0,0,0,0-.4.29.29,0,0,0-.4,0c-25.32,19-35.58,48.82-25.54,74.22a54.34,54.34,0,0,0,7.78,13.54c1.45-1.29,2.9-2.65,4.36-4S47.2,80.87,48.69,79.36Z"/><rect class="cls-13" x="200.34" y="126.45" width="4.07" height="19.94"/><path class="cls-14" d="M113.61,126.45h-6.15a5.16,5.16,0,0,0-5.16,5.16v9.74a5.15,5.15,0,0,0,5.16,5.16H120.4a5.15,5.15,0,0,0,5.16-5.16v-9.74a5.16,5.16,0,0,0-5.16-5.16Zm7.88,5.81v8.44a1.74,1.74,0,0,1-1.74,1.74H108.11a1.74,1.74,0,0,1-1.74-1.74v-8.44a1.74,1.74,0,0,1,1.74-1.74h11.64A1.74,1.74,0,0,1,121.49,132.26Z"/><path class="cls-15" d="M128.54,126.45v14.91a5.16,5.16,0,0,0,5.16,5.15h14.93a4.07,4.07,0,0,0-4.07-4.07H134.35a1.74,1.74,0,0,1-1.74-1.74V126.45Z"/><path class="cls-16" d="M154.43,126.45h-4.08v14.91a5.16,5.16,0,0,0,5.16,5.15h13a5.16,5.16,0,0,0,5.16-5.15V126.45h-4.07V140.7a1.74,1.74,0,0,1-1.74,1.74H156.16a1.73,1.73,0,0,1-1.73-1.74V126.45Z"/><path class="cls-17" d="M189.13,146.4V130.52H196a1.75,1.75,0,0,0,1.75-1.75v-2.32H176.3v1.86a2.21,2.21,0,0,0,2.21,2.21h6.55V146.4Z"/><path class="cls-14" d="M231,141.35v-9.74a5.16,5.16,0,0,0-5.16-5.16h-13a5.16,5.16,0,0,0-5.16,5.16v9.74a5.15,5.15,0,0,0,5.16,5.16h13A5.15,5.15,0,0,0,231,141.35Zm-4.08-8.47v7.82a1.73,1.73,0,0,1-1.74,1.74H213.54a1.74,1.74,0,0,1-1.74-1.74v-8.44a1.74,1.74,0,0,1,1.74-1.74h11.64a1.73,1.73,0,0,1,1.74,1.74Z"/><path class="cls-11" d="M83.61,130.52H97.33a2.12,2.12,0,0,0,2.12-2.11v-2H83.61a6,6,0,0,0,0,12.07h9.8a2,2,0,1,1,0,3.92H79.69a2.12,2.12,0,0,0-2.11,2.12v1.95H93.41a6,6,0,1,0,0-12.06h-9.8a2,2,0,0,1,0-3.93Z"/><path class="cls-18" d="M31.33,115.91c4-3.08,8.05-6.47,12-10-.5-.3-1-.6-1.49-.91l4.67-4.69,1.6,1.24,3.07-2.9c-.58-.43-1.17-.85-1.73-1.3l7-7.08c.49.55,1,1.08,1.5,1.62,5.13-5.25,9.56-10.18,12.75-14.09A10.76,10.76,0,0,0,73.14,71C33.06,117.59,5.23,128.48,3.43,118.71c-.44-2.38.93-5.78,3-9.33,5-8.73,13.36-18.15,15.76-20.78l-.5-.78S-6.59,114,1.43,125.16C4.9,130,18.3,125.92,31.33,115.91Z"/><path class="cls-19" d="M49.44,97.38c.56.45,1.15.87,1.73,1.3,2.37-2.28,4.64-4.55,6.8-6.76-.5-.54-1-1.07-1.5-1.62Z"/><path class="cls-20" d="M51.17,98.68c12.19,8.91,28.21,13.59,45.59,12.68,1.56-.09,3.14-.22,4.72-.39a.29.29,0,0,0,.26-.31.29.29,0,0,0-.29-.27A58.08,58.08,0,0,1,58,91.92C55.81,94.13,53.54,96.4,51.17,98.68Z"/></g></g></svg>