<svg xmlns="http://www.w3.org/2000/svg" viewBox="0 0 1470.56 1253.1"><defs><style>.cls-1{opacity:0.27;}.cls-2{opacity:0.85;}.cls-3{fill:#4d4d4d;}</style></defs><title>Left</title><g id="Layer_2" data-name="Layer 2"><g id="Layer_3" data-name="Layer 3"><g class="cls-1"><g class="cls-2"><path class="cls-3" d="M1468.16,632.71a4.32,4.32,0,0,0-5.8,1.94,4.39,4.39,0,0,0-.44,2.25L1286.83,655a4.31,4.31,0,0,0-7.23-2.57L1141.68,513.54a6.39,6.39,0,0,0-4.93-10.82l-2.51-34.17a2.43,2.43,0,0,0,1.28-.52,2.53,2.53,0,0,0-1.65-4.53l-1.71-23.12a2.92,2.92,0,0,0-.42-5.82l-3.7-50.39a4.25,4.25,0,0,0,2.21-.88,4.33,4.33,0,1,0-6.07-.75,4.27,4.27,0,0,0,1.85,1.35L1091,482.52,932.54,391.79a2.29,2.29,0,0,0,.1-.23,3.5,3.5,0,1,0-6.76-.67l-54,11.35a3.46,3.46,0,0,0-2.27-2.42,3.5,3.5,0,0,0-.64-.15l9.52-109.47,26.54-13.28,96.26,67.8a6.39,6.39,0,1,0,11.56,2.35l33.49-7.22a2.64,2.64,0,0,0,.69,1.21,2.54,2.54,0,0,0,3.6-.07,2.51,2.51,0,0,0,.67-2.2L1074,333.9a3,3,0,0,0,.79,1.4,2.93,2.93,0,0,0,4.92-2.63L1129.1,322a4.22,4.22,0,0,0,1.18,2.07,4.33,4.33,0,1,0-.1-6.12,4.11,4.11,0,0,0-.76,1.12L970.81,247.54a2.36,2.36,0,0,0,.12-.28,4.32,4.32,0,0,0-2.72-5.48,4.79,4.79,0,0,0-1.23-.2l.59-95.05a3.48,3.48,0,0,0,1-6.79,3.4,3.4,0,0,0-1-.16L968.1,63a5.39,5.39,0,1,0-2.35-.49l-83.81,195a2.55,2.55,0,0,0-2.71.61,2.84,2.84,0,0,0-.52.79l-27.49-9.27a3.48,3.48,0,0,0-5.85-3.38,3.9,3.9,0,0,0-.4.51l-94.78-57.45L748.4,96.59a4.27,4.27,0,0,0,2.89-1.3,4.32,4.32,0,1,0-6.21-6,3.83,3.83,0,0,0-.71,1L658.81,48.88a3.48,3.48,0,0,0-6.26-3l-69-33.38a5.42,5.42,0,1,0-1.51,1.94L708.57,162.74c-.07.07-.15.12-.21.19a4.29,4.29,0,0,0-.71,5l-92.43,51.81a3.22,3.22,0,0,0-.54-.69,3.48,3.48,0,0,0-4.94.08,3.81,3.81,0,0,0-.6.86l-95.67-43.78a5.29,5.29,0,0,0,.44-2.21,5.4,5.4,0,1,0-5.94,5.43L492.52,373.76l-.28,0a4.31,4.31,0,0,0-4,3l-102-28.72a3.6,3.6,0,0,0,.11-.88,3.48,3.48,0,1,0-1,2.52l96.13,88.46a4.31,4.31,0,0,0,3.33,7.15,4.43,4.43,0,0,0,1.74-.4l42.16,85a3.48,3.48,0,0,0,1.69,6.56,3.39,3.39,0,0,0,1.4-.32l12.89,26a2.51,2.51,0,0,0-.83,3.77l-21.29,17.87-19.27-6.41a4.32,4.32,0,1,0-8,.68,4.47,4.47,0,0,0,1.1,1.4l-42.48,54.08-50,.75a2.6,2.6,0,0,0-.26-1,2.54,2.54,0,1,0-1.15,3.41,2.47,2.47,0,0,0,.92-.8L432.7,655a3.51,3.51,0,0,0-.16,3.39,3.57,3.57,0,0,0,.9,1.13l-17.91,22.8a2.53,2.53,0,0,0-3.78,3.17,2.45,2.45,0,0,0,.65.81l-14.3,18.2L350,711.94a5.28,5.28,0,0,0-.19-.76,5.4,5.4,0,1,0-3.41,6.83,4.94,4.94,0,0,0,1.41-.72l17.08,22.93a4.31,4.31,0,0,0-1.39,4.79l-68.89,25.8a3.61,3.61,0,0,0-.21-.49,6.39,6.39,0,1,0-6.67,9.17l-4.39,34a2.43,2.43,0,0,0-1.36.25,2.53,2.53,0,0,0-1.15,3.4,2.5,2.5,0,0,0,1.86,1.37l-3,23a2.83,2.83,0,0,0-1.58.29,2.92,2.92,0,0,0,.83,5.5l-6.47,50.1a4.31,4.31,0,0,0-4.31,6.22,4.22,4.22,0,0,0,1.26,1.5l-25.8,35.86-50.76-64.63a4.33,4.33,0,1,0-7.06-3.84,4.21,4.21,0,0,0,0,1.23L92.63,892.18a3.48,3.48,0,0,0-6.86.36,3.64,3.64,0,0,0,0,1L10.66,908.42a5.41,5.41,0,1,0,0,2.47l190.31,42.2c0,.1-.05.2-.07.29a4.32,4.32,0,0,0,2.45,4.42l-42.56,97a4,4,0,0,0-.86-.23,3.53,3.53,0,1,0,1.71.72l75.23-104.5L250,949.46l13.65,17.39a4.25,4.25,0,0,0-1.52,2.78,4.32,4.32,0,0,0,8.58,1.06,4.17,4.17,0,0,0-.15-1.77l90-30a3.45,3.45,0,0,0,2.84,2.27,3.49,3.49,0,0,0,3.9-3,3.36,3.36,0,0,0-.13-1.42l27.51-9.17a2.51,2.51,0,0,0,2.07,1.66,2.54,2.54,0,0,0,2.83-2.21,2.63,2.63,0,0,0-.1-1l32-10.66-27.46,55.36a4.27,4.27,0,0,0-3.17-.17,4.32,4.32,0,1,0,4.27,7.3L471,1046.18a3.47,3.47,0,0,0,2.56,5.92l6.75,113.29a2.83,2.83,0,0,0-.63.13,2.93,2.93,0,1,0,3.51,4.15l79.3,38a6.38,6.38,0,1,0,11.93,4.45l33,9.06a2.53,2.53,0,0,0,4.88,1.34l22.35,6.13a3,3,0,0,0,.06,1.6,2.93,2.93,0,0,0,5.58-.06L689,1243.55a4.33,4.33,0,1,0,2.83-3.09,4.19,4.19,0,0,0-1.89,1.28l-136.6-111a4.29,4.29,0,0,0,.68-4,4.32,4.32,0,0,0-7-1.84l-47.45-49.31a2.54,2.54,0,0,0-2.69-4.11,2.75,2.75,0,0,0-.82.46L476,1051a3.46,3.46,0,0,0-2.51-5.87l-3.2-94.66,74.41-26.54a6.39,6.39,0,1,0,10.24-7L577.28,891a2.6,2.6,0,0,0,1.27.55,2.54,2.54,0,0,0,2-4.38l15.14-17.55a2.75,2.75,0,0,0,1.48.63,2.92,2.92,0,0,0,2.34-5l33-38.26a4.15,4.15,0,0,0,2.19,1,4.32,4.32,0,1,0-1.55-8.08l-57.79-98.63a6.28,6.28,0,0,0,2-1.88l28.8,18.58a2.48,2.48,0,0,0-.37,1.34,2.54,2.54,0,0,0,4.62,1.41l19.47,12.56a3,3,0,0,0-.42,1.56,2.93,2.93,0,0,0,5.33,1.61l42.46,27.4a4.28,4.28,0,0,0-.64,2.3,4.33,4.33,0,1,0,4.61-4.37l8.35-235.28a3.46,3.46,0,0,0,3.37-4.07l145.68-33.9a5.37,5.37,0,0,0,10,1.06,5.19,5.19,0,0,0,.47-1.51l28.32,4.15a4.31,4.31,0,0,0,2.39,4.37l-30.47,66.94a4.14,4.14,0,0,0-.49-.19,6.39,6.39,0,1,0,1.76,11.2l20.92,27.13a2.48,2.48,0,0,0-.78,1.14,2.52,2.52,0,0,0,1.6,3.21,2.49,2.49,0,0,0,2.28-.34l14.15,18.35a3,3,0,0,0-.92,1.32,2.93,2.93,0,0,0,1.84,3.71,2.9,2.9,0,0,0,2.64-.4l30.86,40a4.25,4.25,0,0,0-1.2,5.1L851.58,727.6a4.08,4.08,0,0,0-.43-.68,4.33,4.33,0,0,0-6.82,5.34,4.47,4.47,0,0,0,.91.83l-52.86,79a3.48,3.48,0,0,0-4.59,5.1,3.31,3.31,0,0,0,.72.68L745.9,881.54a5.43,5.43,0,1,0,1.71,1.77L912.05,778.58a1.05,1.05,0,0,0,.15.24,4.33,4.33,0,0,0,4.85,1.4l38.51,98.7a3.59,3.59,0,0,0-.76.44,3.5,3.5,0,1,0,2.61-.7l12.71-130a4.32,4.32,0,0,0,3.72-7,4.52,4.52,0,0,0-1.37-1.15l42.45-84.86a3.48,3.48,0,0,0,4.22-5.3,3.36,3.36,0,0,0-1.1-.93l13-25.93a2.53,2.53,0,0,0,3.07-3.85,2.3,2.3,0,0,0-.8-.67l15.08-30.17,19.73,58.56a4.32,4.32,0,1,0,5.37,6c0-.05,0-.1,0-.14L1259.2,732a2.92,2.92,0,1,0,5.31-.36l71.47-42,12.21,7.77c-.09.15-.18.29-.26.45a6.39,6.39,0,1,0,11.33-.19l29.77-17a2.52,2.52,0,0,0,4.43-.19,2.53,2.53,0,0,0,0-2.32l20.14-11.46a3,3,0,0,0,1.18,1.09,2.92,2.92,0,0,0,3.89-4l43.9-25a4.31,4.31,0,0,0,7.56-.31A4.33,4.33,0,0,0,1468.16,632.71Zm-6.22,4.44a1.06,1.06,0,0,0,0,.19L1406.31,649a2.53,2.53,0,1,0-4.69,1.81L1336,689.35l-49.74-31.6c0-.1.12-.18.17-.27a4.27,4.27,0,0,0,.42-2.26Zm-183.27,16.46a4.47,4.47,0,0,0-.44,1.73L1209.8,654a2.52,2.52,0,0,0-1.39-2.14A2.56,2.56,0,0,0,1205,653a2.7,2.7,0,0,0-.25.9l-29-.56a3.48,3.48,0,0,0-6.6-1.47,3.44,3.44,0,0,0-.36,1.33l-94.88-1.83a4.31,4.31,0,0,0-2.35-3.81l62.91-132.65a6.33,6.33,0,0,0,6.55-.79c.17-.12.33-.27.49-.4l137.92,138.85A4.66,4.66,0,0,0,1278.67,653.61ZM1063.06,550.44a4.34,4.34,0,0,0-.75,6.08,4.27,4.27,0,0,0,1.37,1.14l-15.26,30.5-16.76-49.78a4.32,4.32,0,0,0,2.36-2.12,4.23,4.23,0,0,0,.36-2.8l42-9.9-9.31,26.18A4.32,4.32,0,0,0,1063.06,550.44ZM928.34,393.78a3.52,3.52,0,0,0,3.15-.59l96.1,137.68a4.34,4.34,0,0,0-1.31,1.53,4.25,4.25,0,0,0-.37,1.18l-94.05-13.75a3.48,3.48,0,0,0-6.58-2,3.74,3.74,0,0,0-.3,1L886,513.12a4.31,4.31,0,0,0-2.61-4.44ZM885.84,514a3.31,3.31,0,0,0,.14-.64l39,5.7a3.49,3.49,0,0,0,6.59,1.93,3.63,3.63,0,0,0,.29-.92l94,13.75a4.42,4.42,0,0,0,.12,1.62L876.65,580.24l4.89-63.3A4.31,4.31,0,0,0,885.84,514Zm245-3.57-54.09,12.76,14.33-40.3L1131.48,506A6.44,6.44,0,0,0,1130.85,510.44Zm.05.26a7.07,7.07,0,0,0,.71,1.69l-62.31,39.07a2.33,2.33,0,0,0-.17-.26,4.24,4.24,0,0,0-1.85-1.36l9.37-26.35Zm-62.51,46.57a4.33,4.33,0,0,0,1-5.6l62.32-39.07a4.25,4.25,0,0,0,.31.43,6.28,6.28,0,0,0,2.18,1.78l-62.91,132.66a4.28,4.28,0,0,0-1.77-.36L1066,558.17A4.29,4.29,0,0,0,1068.39,557.27ZM1126.27,384a4.31,4.31,0,0,0,1.51.2l3.71,50.4a2.8,2.8,0,0,0-1.43.58,2.93,2.93,0,0,0,1.85,5.23l1.7,23.12a2.52,2.52,0,0,0-1.65,4.07,2.46,2.46,0,0,0,2,1l2.51,34.19a6.37,6.37,0,0,0-3.33,1.32,6.47,6.47,0,0,0-1.55,1.76l-40.43-23.17Zm-35.4,98.78-14.41,40.5-42.15,9.94a4.24,4.24,0,0,0-2.23-2.75,4.29,4.29,0,0,0-4.29.27L931.67,393a3.12,3.12,0,0,0,.76-1ZM925.92,391.14a3.5,3.5,0,0,0,2.18,2.56L883.2,508.57l-.07,0a4.19,4.19,0,0,0-1.78-.2l-8.17-68a2.53,2.53,0,0,0-.6-5l-3.46-28.8a3.48,3.48,0,0,0,2.75-2.31,3.65,3.65,0,0,0,.11-1.76ZM678.69,782.31l-96.86-147a4.31,4.31,0,0,0,1.84-3.61,4.43,4.43,0,0,0-.34-1.58l29.13-13.09s0,0,0,0a4.34,4.34,0,0,0,5.29,2.15L679.3,782A4.42,4.42,0,0,0,678.69,782.31Zm-47.36,43-159,75.56a4.33,4.33,0,0,0-8.15,1.44,4.42,4.42,0,0,0,.16,1.78L432,914.88l23.34-47a4.35,4.35,0,0,0,3.18.18,4.3,4.3,0,0,0,2.85-4.93L631.1,824.66A4.39,4.39,0,0,0,631.33,825.33ZM406.28,973a4.31,4.31,0,0,0-1-1.52l60.4-65.38a4.41,4.41,0,0,0,2.31,1,4.91,4.91,0,0,0,.54,0L470,950.3ZM455.8,859.8a3.85,3.85,0,0,0-1.1.58l-56.78-76.23a3.5,3.5,0,0,0,1.15-3.8l78-29.08L457.79,859.65A4.1,4.1,0,0,0,455.8,859.8ZM275.93,899.74a4.35,4.35,0,0,0-1.53-1.7l24.11-39.9,71.31,49.8-2.59,12.69-90.92-18.24A4.17,4.17,0,0,0,275.93,899.74ZM438,654.21,454,633.79l9.17-.14-24.89,20.91C438.17,654.44,438.07,654.32,438,654.21Zm.84,1.1a2.93,2.93,0,0,0-.35-.56l25.13-21.11,93.9-1.4,13.39,77.22a6.35,6.35,0,0,0-4.87,4.33l-75-22.11a3.47,3.47,0,0,0-6.14-2.94l-46.18-30.11A3.46,3.46,0,0,0,438.79,655.31Zm140.48-27.85a4.77,4.77,0,0,0-1.74.41l-15.15-30.54,49.83,16.6a4.31,4.31,0,0,0,.16,2.89l-29.15,13.09A4.32,4.32,0,0,0,579.27,627.46Zm33-13.78L562.23,597l-15.11-30.45a2.2,2.2,0,0,0,.69-.6l65,46.8A4.1,4.1,0,0,0,612.3,613.68Zm-65.4-47,15,30.21L551,593.26l-4.58-26.41A2.18,2.18,0,0,0,546.9,566.68Zm15.15,30.53L577.31,628a4.3,4.3,0,0,0-2.29,3.74l-17.34.26L551,593.54ZM557.43,632l-93.55,1.38,58.7-49.31,28.16,9.38Zm-72.94,60.42a3.39,3.39,0,0,0,.73,1l-87.07,85.53a3.46,3.46,0,0,0-3.51-.81,3,3,0,0,0-.87.47L370.25,747a4.3,4.3,0,0,0,1.19-5.3,4.39,4.39,0,0,0-1.11-1.4l27.91-35.53,86-13.25A3.15,3.15,0,0,0,484.49,692.42Zm-115,55.07a3.87,3.87,0,0,0,.55-.34l23.52,31.57a3.47,3.47,0,0,0,1.37,6.09L369.88,907.67l-71.24-49.74,66.8-110.54A4.27,4.27,0,0,0,369.49,747.49Zm.56,160.61,24.84,17.35a2.44,2.44,0,0,0-.25.67l-27.16-5.45Zm25,17.14L370.1,907.83l25.08-123a3.56,3.56,0,0,0,.47,0l1.12,139.28A2.54,2.54,0,0,0,395,925.24ZM399,780.11a3.33,3.33,0,0,0-.64-1l87.08-85.52a3.38,3.38,0,0,0,1.79.76L477.12,751Zm88.48-85.76a3.49,3.49,0,0,0,1.72-.36,3.45,3.45,0,0,0,1.77-2.06l75,22.11a6.23,6.23,0,0,0-.22,1.79,6.39,6.39,0,0,0,.36,2l-88.65,33Zm84.52,15a6.11,6.11,0,0,0-.86.07l-13.38-77.17L575,632a4.3,4.3,0,0,0,3.81,4.09l-6.34,73.28A4.64,4.64,0,0,0,572,709.34Zm42.45-98.06a4.36,4.36,0,0,0-1.49,1.26l-65-46.79a2.43,2.43,0,0,0,.41-1.41,2.7,2.7,0,0,0-.15-.78l63.52-25.33,74.3,4.66a3.43,3.43,0,0,0,.35,1.58,3.21,3.21,0,0,0,.55.78L619.32,612A4.32,4.32,0,0,0,614.42,611.28ZM496.64,378a4.17,4.17,0,0,0-.21-1.17l69.89-23.38a4.14,4.14,0,0,0,1,1.53l-64.15,66.68-9.67-39.43A4.32,4.32,0,0,0,496.64,378ZM540.1,254.75a3.55,3.55,0,0,0-.26-1.23l69.27-30.45a3.81,3.81,0,0,0,.71,1,3.62,3.62,0,0,0,1.24.77l-39.5,123a4.16,4.16,0,0,0-1.27-.19,3.82,3.82,0,0,0-1.22.22l-31.22-89.78A3.5,3.5,0,0,0,540.1,254.75Zm206.18-38.63a4.22,4.22,0,0,0,1.29,2.8,2.18,2.18,0,0,0,.38.3L736,235.65,615.72,221.82c0-.09,0-.19,0-.28ZM531.17,529.63,569.55,356.2a5.14,5.14,0,0,0,.88.07,4.32,4.32,0,0,0,4.2-3.68l132.55,15.88a5.34,5.34,0,0,0,.53,2.91,5,5,0,0,0,.75,1.11L532.81,530.58A3.47,3.47,0,0,0,531.17,529.63ZM614.76,224a3.38,3.38,0,0,0,.93-1.9l120.17,13.81-33.37,46a4.31,4.31,0,0,0-6.33,5.42l-122,62.54a4.25,4.25,0,0,0-2.34-2l39.51-123A3.45,3.45,0,0,0,614.76,224Zm237.62,78.91-135,63.68a5.36,5.36,0,0,0-5.49-2.92l-11-73.94a4.28,4.28,0,0,0,3.33-2.86,3.48,3.48,0,0,0,.19-.82L852,300.86A4.12,4.12,0,0,0,852.38,302.89ZM826.49,413.13l-72.28,66a5.38,5.38,0,0,0-5.45-1.43L714.35,374c.2-.07.4-.13.6-.22a5.42,5.42,0,0,0,2.6-2.87L826,410.77A2.52,2.52,0,0,0,826.49,413.13Zm-252.23-63,122-62.54a4.28,4.28,0,0,0,4.29,2.21l11,73.93a5.07,5.07,0,0,0-1.48.46,5.38,5.38,0,0,0-2.94,4.06L574.65,352.33c0-.15,0-.3,0-.46A4.24,4.24,0,0,0,574.26,350.09Zm139.86,24,34.39,103.66a5.13,5.13,0,0,0-3.22,6.93l-50.55,20.15L712,374.34A5.68,5.68,0,0,0,714.12,374.13Zm40.26,105.18,72.29-66a2.45,2.45,0,0,0,2.05.72l2.3,14.27-76.31,51.42A4.35,4.35,0,0,0,754.38,479.31ZM829,414a2.54,2.54,0,0,0,1.89-1.67,2.39,2.39,0,0,0,.09-1.21l34.21-7.19a3.8,3.8,0,0,0,.45,1.06l-34.36,23.15Zm36.27-12a3.33,3.33,0,0,0-.12,1.65l-34.22,7.2a2.53,2.53,0,0,0-4.78-.34L717.65,370.72a5.34,5.34,0,0,0-.19-3.92l135-63.67a4.3,4.3,0,0,0,4.25,2.34l11.33,94.22A3.47,3.47,0,0,0,865.24,402Zm-13-102.23a4.64,4.64,0,0,0-.19.82L704.37,285.77a4.32,4.32,0,0,0-1.68-3.71l33.46-46.14,108.27,12.44a3.43,3.43,0,0,0,3.85,3.72l7.25,44.86A4.28,4.28,0,0,0,852.23,299.79Zm-7.8-51.68L736.32,235.68l11.83-16.3a4.31,4.31,0,0,0,5.53-.56,4.16,4.16,0,0,0,.94-1.51l89.93,30.3C844.51,247.77,844.46,247.94,844.43,248.11Zm-277,107a4.25,4.25,0,0,0,1.85,1L530.93,529.56a3.82,3.82,0,0,0-.68-.06,4.44,4.44,0,0,0-.65.08L503.2,421.94ZM533,530.77l175.66-158.1a5.32,5.32,0,0,0,3.07,1.63L694.47,505l-82.76,33-77.93-4.88c0-.06,0-.1,0-.15A3.49,3.49,0,0,0,533,530.77Zm161.45-25.5-4.51,34.17a3.6,3.6,0,0,0-1.95.34,3.48,3.48,0,0,0-1.91,2.85L612.3,538Zm-4.26,34.22,4.53-34.33L745.38,485c0,.1.07.21.12.3a5.35,5.35,0,0,0,.92,1.28L691.9,540.37A3.49,3.49,0,0,0,690.17,539.49Zm65-59.05c-.1-.17-.21-.32-.32-.49l76.22-51.37,11.78,73.22a5.35,5.35,0,0,0-3.85,2.87,5.87,5.87,0,0,0-.35.93l-83.09-21.53A5.41,5.41,0,0,0,755.17,480.44Zm87.93,21.3-11.8-73.31,34.44-23.23a3.45,3.45,0,0,0,1.7,1.24,3.54,3.54,0,0,0,1.43.17l3.46,28.78a2.55,2.55,0,0,0-2,1.7,2.53,2.53,0,0,0,1.41,3.12l-25.91,61.87A5.33,5.33,0,0,0,843.1,501.74Zm25.67-102.08a3.85,3.85,0,0,0-.48,0L857,305.43a4.29,4.29,0,0,0,3.28-6.08l18-9ZM878.3,290l-18.17,9.09a4.5,4.5,0,0,0-1.48-1.59l21.22-35.47a2.38,2.38,0,0,0,.84.28Zm84.61-42.33-47.19,23.62-32.21-10.86a2.8,2.8,0,0,0,.06-.91l79-12.85A4.45,4.45,0,0,0,962.91,247.7Zm-79.47,13,31.95,10.77-10.28,5.14L883.2,261.19A3.07,3.07,0,0,0,883.44,260.71Zm-4.88,29.19,2.4-27.54a2.51,2.51,0,0,0,1.91-.76,1.57,1.57,0,0,0,.17-.21l21.81,15.36Zm26.78-13.11,10.39-5.2,32.57,11a4.3,4.3,0,0,0,6.79,4.63l47.33,56.3-.38.36a4.89,4.89,0,0,0-.55.67Zm224,42.54a4.29,4.29,0,0,0-.26,2.45l-49.4,10.64a2.8,2.8,0,0,0-.78-1.33,2.92,2.92,0,0,0-4.13.07,3,3,0,0,0-.78,2.49l-22.66,4.89a2.61,2.61,0,0,0-.67-1.14,2.54,2.54,0,0,0-3.59.06,2.48,2.48,0,0,0-.68,2.14l-33.5,7.23a6.32,6.32,0,0,0-1.78-3.13,6.38,6.38,0,0,0-8.46-.37L955.28,287c.08-.07.17-.12.25-.2a4.32,4.32,0,1,0-7.17-4.51l-32.3-10.88,47-23.5a4.37,4.37,0,0,0,2.43,2.06,4.31,4.31,0,0,0,5.25-2.22ZM966,62.59l.29.11a5.77,5.77,0,0,0,1.56.28l-.47,76.59a3.49,3.49,0,0,0-1,6.79,3.16,3.16,0,0,0,1,.16l-.59,95a4.32,4.32,0,0,0-4,2.93,4.2,4.2,0,0,0-.17,1.95l-79,12.84a2.5,2.5,0,0,0-.7-1.29,2.71,2.71,0,0,0-.66-.44Zm-87.35,196.5a2.52,2.52,0,0,0,.65,2.57,2.39,2.39,0,0,0,.35.28L858.43,297.4a3.38,3.38,0,0,0-.72-.33,4.32,4.32,0,0,0-1.94-.18l-7.25-44.83a3.56,3.56,0,0,0,1.88-1,3.47,3.47,0,0,0,.76-1.22Zm-33.79-12.16a1.94,1.94,0,0,0-.22.43l-89.94-30.29a4.27,4.27,0,0,0-4.07-5.57l-.43-21.93Zm-130.38-84.1a4.64,4.64,0,0,0-1-.69l32.88-65.95a4.37,4.37,0,0,0,1.77.41l1.78,92.5-34.72-21A4.29,4.29,0,0,0,714.47,162.83ZM582.27,14.25a3.73,3.73,0,0,0,.3-.26,5.22,5.22,0,0,0,.9-1.3l69,33.38a3.49,3.49,0,0,0,5.71,3.82,3.21,3.21,0,0,0,.55-.79l85.56,41.42a4.22,4.22,0,0,0,1.9,5.56l-32.88,66a4.29,4.29,0,0,0-4.5.55Zm125.5,153.91a4.78,4.78,0,0,0,.68.89,4.34,4.34,0,0,0,6.12-.1,4.56,4.56,0,0,0,.52-.66l34.85,21.12.42,22.09a4.31,4.31,0,0,0-4.11,4.36l-130.53,5.42a3.24,3.24,0,0,0-.38-1.31ZM609,220.22a3.49,3.49,0,0,0,0,2.62l-69.27,30.45a3.48,3.48,0,0,0-3.2-2,3.14,3.14,0,0,0-1,.17l-25.16-72.37a5.33,5.33,0,0,0,2.94-2.68ZM508.22,179.45a2.56,2.56,0,0,0,.39,0,5.38,5.38,0,0,0,1.56-.28l25.16,72.37a3.48,3.48,0,0,0,1.33,6.73,3.63,3.63,0,0,0,1-.16l31.22,89.78A4.31,4.31,0,0,0,566,352a4.17,4.17,0,0,0,.21,1.18l-69.89,23.39a4.26,4.26,0,0,0-3.58-2.79ZM488.13,377a4.58,4.58,0,0,0-.15,1.12,4.32,4.32,0,0,0,4.4,4.25,3.7,3.7,0,0,0,.83-.1l9.71,39.57L487.6,437.79a4.32,4.32,0,0,0-6,.17L385.48,349.5a3.51,3.51,0,0,0,.66-1.2Zm-1.41,67.77a4.3,4.3,0,0,0,1.06-6.83L503,422.15l26.36,107.5c-.16.05-.31.09-.46.15ZM532,536a3.44,3.44,0,0,0,1.77-2.69l77.4,4.84-63,25.13a2.51,2.51,0,0,0-2.35-1.49,3,3,0,0,0-.91.2Zm12,30.05a2.5,2.5,0,0,0,1.9.82l.26,0,4.55,26.27-27.88-9.28ZM496.56,579.6a4.32,4.32,0,0,0,6.62-2L522.31,584l-58.83,49.41-9.28.13Zm-93,56.12a2.47,2.47,0,0,0,.33-1.19l49.77-.74-15.93,20.28a3.47,3.47,0,0,0-3.62-.33,3.21,3.21,0,0,0-1.27,1.09Zm9,50.76a2.53,2.53,0,0,0,3.68-3.23,2.5,2.5,0,0,0-.56-.75l17.91-22.81a3.43,3.43,0,0,0,4.9-.86L484.71,689a3.45,3.45,0,0,0-.55,2.32l-85.69,13.21ZM348,717.13a5.4,5.4,0,0,0,2-4.94l47.84-7.37-27.76,35.34a4.3,4.3,0,0,0-4.48-.41,3.24,3.24,0,0,0-.54.33Zm-60,62.38a6.39,6.39,0,0,0,6.72-8.47l68.89-25.79c0,.1.06.2.11.3a5.07,5.07,0,0,0,.51.79l-79.27,67.9a2.55,2.55,0,0,0-1.35-.74Zm-5,39a2.55,2.55,0,0,0,2.44-3.67,3,3,0,0,0-.26-.42l79.26-67.9a4.51,4.51,0,0,0,.86.71l-66.8,110.54-16.68-11.65a2.89,2.89,0,0,0-1.79-4.62Zm-3.71,28.76a2.8,2.8,0,0,0,1.51-.29,2.7,2.7,0,0,0,.86-.66L298.3,858l-24.11,39.9a4.38,4.38,0,0,0-1.45-.5Zm-35.74,93.87-6.78,9.42-27.26,2.77a4.23,4.23,0,0,0-4.94-3.69L191,877.2a4.44,4.44,0,0,0,1.66-.73ZM10.69,910.64c0-.12.05-.26.07-.38a5.62,5.62,0,0,0,0-1.59l75.13-14.89a3.48,3.48,0,0,0,6.85-.4,3.36,3.36,0,0,0,0-1L185.91,874a4.34,4.34,0,0,0,3.67,3.34,5.23,5.23,0,0,0,1.19,0l13.48,72.44a4.29,4.29,0,0,0-3.25,3.16Zm150.72,144.52a4.36,4.36,0,0,0-.42-.23l42.57-97a4.25,4.25,0,0,0,5.9-3.47,3.86,3.86,0,0,0,0-.83l27-2.75ZM237,950.53l6.61-9.17,6.18,7.87Zm6.76-9.38,25.85-35.92a4.29,4.29,0,0,0,6.61-2.59l90.92,18.23-2.74,13.44-.15,0a3.5,3.5,0,0,0-3.89,3,4.75,4.75,0,0,0,0,.65L250.13,949.19Zm26.67,27.53a4.3,4.3,0,0,0-3.52-2.81,4.25,4.25,0,0,0-3.09.82l-13.55-17.25,110.12-11.22a2,2,0,0,0,.08.48Zm96.65-32.19a3.46,3.46,0,0,0-2.43-2.13l2.74-13.44,27.15,5.45v0a2.39,2.39,0,0,0,.06.93Zm32.32-10.76a2.57,2.57,0,0,0-2-1.55,1.27,1.27,0,0,0-.39,0L395.9,784.91a3.47,3.47,0,0,0,1-.18,3.15,3.15,0,0,0,.86-.43l56.78,76.23a4.3,4.3,0,0,0-1.43,4.74,4.23,4.23,0,0,0,2.07,2.44L431.68,915Zm32.42-10.53,32.61-10.85a4.26,4.26,0,0,0,1,1.59l-60.4,65.4a5,5,0,0,0-.8-.56Zm51.38,254.24a2.84,2.84,0,0,0,.1-2.07,3.3,3.3,0,0,0-.19-.43l63.1-36.57a4.31,4.31,0,0,0,4.48,1.94l16,71.8a4.84,4.84,0,0,0-.51.14,6.34,6.34,0,0,0-3.68,3.19Zm91.2,42.44a6.26,6.26,0,0,0-.14-3.58,6.38,6.38,0,0,0-7.32-4.25l-16-71.79.31-.07a3.91,3.91,0,0,0,.85-.4l56.27,87.91a2.62,2.62,0,0,0-.92,1.24Zm115.33,30a4.42,4.42,0,0,0-.69,1.37l-48.73-13.36a3,3,0,0,0-.08-1.54,2.92,2.92,0,0,0-5.54,0l-22.37-6.13a2.39,2.39,0,0,0-.07-1.32,2.54,2.54,0,0,0-3.21-1.6,2.78,2.78,0,0,0-.46.21l-56.27-87.91a4.93,4.93,0,0,0,.83-.74ZM495.88,1072.09a2.54,2.54,0,0,0,3.52,3.65l47.44,49.33a4.33,4.33,0,0,0-1,4.39,5.24,5.24,0,0,0,.31.68L483,1166.72a2.91,2.91,0,0,0-2.5-1.33l-6.75-113.3a3.42,3.42,0,0,0,2-.89Zm-22.69-26.94a2.84,2.84,0,0,0-.86.16,3.4,3.4,0,0,0-1.2.69l-65.79-68.39a4.32,4.32,0,0,0,1-4.35L470,950.57Zm-3-94.93-1.45-43a4.32,4.32,0,0,0,3.9-3.23l71.69,16.43c0,.17-.07.34-.09.52a6.23,6.23,0,0,0,.29,2.8Zm81.17-34.89a6.4,6.4,0,0,0-7,4.8l-71.7-16.43a2.82,2.82,0,0,0,.07-.31,4.21,4.21,0,0,0-.35-2.26l159-75.57a4.47,4.47,0,0,0,.94,1.22l-33,38.25a2.82,2.82,0,0,0-1.42-.59,2.92,2.92,0,0,0-2.39,5L580.39,887a2.46,2.46,0,0,0-1.22-.5,2.53,2.53,0,0,0-2.08,4.33L554.7,916.76A6.38,6.38,0,0,0,551.4,915.33ZM633,819.94a4.32,4.32,0,0,0-2,3.12,4.64,4.64,0,0,0,.07,1.35L461.33,862.83a2.47,2.47,0,0,0-.06-.29,4.33,4.33,0,0,0-3.22-2.86l19.3-108.51,88.79-33.1a6.41,6.41,0,0,0,6,4,6.51,6.51,0,0,0,3-.82Zm1.94-63.81a2.88,2.88,0,0,0,.39-1.49,2.93,2.93,0,0,0-3-2.88A2.88,2.88,0,0,0,630,753L610.55,740.4a2.51,2.51,0,0,0,.33-1.27,2.53,2.53,0,0,0-4.57-1.47l-28.8-18.58a6.37,6.37,0,0,0-4.75-9.7l6.34-73.29a3,3,0,0,0,.31,0,4.21,4.21,0,0,0,2.19-.66l96.87,147a4.34,4.34,0,0,0-1.08,1.1ZM681,781.66h-.1a4.18,4.18,0,0,0-1.33.25L618,619.15l.28-.11a4.28,4.28,0,0,0,1.22-6.81l67.63-66.79a3.55,3.55,0,0,0,2.2.95Zm11.93-239.59a3,3,0,0,0-.26-.7,3.24,3.24,0,0,0-.57-.82l54.51-53.83a5.36,5.36,0,0,0,8.91-2.4l83.09,21.53a5.24,5.24,0,0,0,0,2.33Zm156.26-34.34a5.37,5.37,0,0,0-2.92-5.47,2,2,0,0,0-.22-.09l25.9-61.86a2.52,2.52,0,0,0,1,.11l8.16,68a4.31,4.31,0,0,0-3.46,2.88,3.27,3.27,0,0,0-.14.62Zm30.9,8.87a2.71,2.71,0,0,0,.3.13,3.72,3.72,0,0,0,.91.2l-4.89,63.38-23.47,7a6.38,6.38,0,0,0-3.32-3.8Zm-29.23,77.69A6.39,6.39,0,0,0,853,587.6l23.37-7L873.25,621a2.49,2.49,0,0,0-1.48.43Zm71.29,99.61a4.32,4.32,0,0,0,7.94-.6,4.37,4.37,0,0,0-.1-3L1013.24,654a3.15,3.15,0,0,0,.39.63,5.27,5.27,0,0,0,.46.48l-70,85.91L852,730a4.36,4.36,0,0,0-.35-2.16Zm-3.9,78.84a4.31,4.31,0,0,0-5.28,0,4.53,4.53,0,0,0-.83.87l-60.76-41.69a4.28,4.28,0,0,0,.65-1.69l91.87,11ZM747.48,883.08c-.08-.1-.12-.22-.21-.32a4.89,4.89,0,0,0-1.16-1.07L788.72,818a3.49,3.49,0,0,0,4.57-5.12,3.64,3.64,0,0,0-.7-.66l52.86-79a4.31,4.31,0,0,0,4.95-.24,4,4,0,0,0,.82-.87L912,773.82a4.27,4.27,0,0,0-.08,4.54Zm209.68-4.43a3.19,3.19,0,0,0-1.36.19l-38.51-98.72a4.1,4.1,0,0,0,1-.56,4.31,4.31,0,0,0,.73-6.07,3.67,3.67,0,0,0-.58-.6l25.74-31.58,22,2.63a4.3,4.3,0,0,0,3.75,4.68Zm15.07-138.23a4.29,4.29,0,0,0-6.08,3.27l-21.78-2.61,69.92-85.8a3.6,3.6,0,0,0,.4.28Zm45.57-91.09a3.46,3.46,0,0,0-4.64,4.45l-83.29,36.29a3.14,3.14,0,0,0-.25-.44l100.43-66.91,0,.06a2.59,2.59,0,0,0,.71.61Zm15.25-30.45a2.52,2.52,0,0,0-2.53.32,2.56,2.56,0,0,0-.61,3.31L929.49,689.42a4.31,4.31,0,0,0-6.06-1l-30.86-40a2.91,2.91,0,0,0-3.55-4.61l-14.16-18.36a2.52,2.52,0,0,0-.87-4.31,2.08,2.08,0,0,0-.48-.11l3.12-40.5,149.42-44.81a4.31,4.31,0,0,0,2.16,2.5,4.26,4.26,0,0,0,3.2.25l16.85,50Zm15.49-30.39,15.37-30.73a4.3,4.3,0,0,0,1.85.41l3.54,89a4.61,4.61,0,0,0-1,.17ZM1073.61,653a4.64,4.64,0,0,0,.31-1.35l94.87,1.84a3.48,3.48,0,0,0,6.6,1.53,3.4,3.4,0,0,0,.37-1.4l29,.56a2.54,2.54,0,0,0,4.81,1.12,2.65,2.65,0,0,0,.26-1l68.43,1.33a4.31,4.31,0,0,0,2.38,3.83,5.8,5.8,0,0,0,.69.27l-18.75,70.48a2.93,2.93,0,0,0-3.25,1.55.43.43,0,0,0,0,0Zm190.78,78.45a3,3,0,0,0-1.15-1,3.2,3.2,0,0,0-.43-.17l18.75-70.48a4.31,4.31,0,0,0,4.55-1.79l49.62,31.54Zm71.83-41.92L1401.75,651a2.6,2.6,0,0,0,.25.33l-44,44.76a6.08,6.08,0,0,0-1.52-1.06,6.38,6.38,0,0,0-8.19,2.18Zm82.29-25.88a2.91,2.91,0,0,0-5.06,2.88L1393.3,678a2.53,2.53,0,0,0-4.39,2.5l-29.77,17a6.76,6.76,0,0,0-.93-1.2l44-44.77a2.73,2.73,0,0,0,.55.39,2.54,2.54,0,0,0,3.64-2.67L1462,637.59a4,4,0,0,0,.38,1Z"/><path class="cls-3" d="M1006.63,359.68A11.39,11.39,0,1,1,1018,348.3,11.39,11.39,0,0,1,1006.63,359.68Zm0-22.51a11.13,11.13,0,1,0,11.14,11.13A11.14,11.14,0,0,0,1006.63,337.17Z"/><path class="cls-3" d="M856.33,309.67a8.5,8.5,0,1,1,8.5-8.5A8.51,8.51,0,0,1,856.33,309.67Zm0-16.74a8.24,8.24,0,1,0,8.24,8.24A8.25,8.25,0,0,0,856.33,292.93Z"/><path class="cls-3" d="M1065.72,562.35a8.5,8.5,0,1,1,8.49-8.49A8.5,8.5,0,0,1,1065.72,562.35Zm0-16.74a8.24,8.24,0,1,0,8.24,8.25A8.26,8.26,0,0,0,1065.72,545.61Z"/><path class="cls-3" d="M1131.86,444.05a6.57,6.57,0,1,1,6.57-6.57A6.57,6.57,0,0,1,1131.86,444.05Zm0-12.89a6.32,6.32,0,1,0,6.31,6.32A6.32,6.32,0,0,0,1131.86,431.16Z"/><path class="cls-3" d="M929.32,397.79a7.35,7.35,0,1,1,7.36-7.35A7.35,7.35,0,0,1,929.32,397.79Zm0-14.45a7.1,7.1,0,1,0,7.1,7.1A7.11,7.11,0,0,0,929.32,383.34Z"/><path class="cls-3" d="M966.83,254.47a8.58,8.58,0,1,1,8.59-8.58A8.59,8.59,0,0,1,966.83,254.47Zm0-16.92a8.33,8.33,0,1,0,8.33,8.34A8.34,8.34,0,0,0,966.83,237.55Z"/><path class="cls-3" d="M968,67.82a10.24,10.24,0,1,1,10.24-10.24A10.24,10.24,0,0,1,968,67.82Zm0-20.22a10,10,0,1,0,10,10A10,10,0,0,0,968,47.6Z"/><path class="cls-3" d="M578.69,20.48a10.24,10.24,0,1,1,10.24-10.24A10.25,10.25,0,0,1,578.69,20.48Zm0-20.22a10,10,0,1,0,10,10A10,10,0,0,0,578.69.26Z"/><path class="cls-3" d="M750.57,226.05a10.24,10.24,0,1,1,10.24-10.24A10.24,10.24,0,0,1,750.57,226.05Zm0-20.22a10,10,0,1,0,10,10A10,10,0,0,0,750.57,205.83Z"/><path class="cls-3" d="M748.18,101.53a9.25,9.25,0,1,1,9.25-9.25A9.26,9.26,0,0,1,748.18,101.53Zm0-18.25a9,9,0,1,0,9,9A9,9,0,0,0,748.18,83.28Z"/><path class="cls-3" d="M536.6,262.5a7.69,7.69,0,1,1,7.69-7.69A7.7,7.7,0,0,1,536.6,262.5Zm0-15.13a7.44,7.44,0,1,0,7.44,7.44A7.45,7.45,0,0,0,536.6,247.37Z"/><path class="cls-3" d="M712.54,381.11A12.13,12.13,0,1,1,724.67,369,12.14,12.14,0,0,1,712.54,381.11Zm0-24A11.87,11.87,0,1,0,724.42,369,11.88,11.88,0,0,0,712.54,357.11Z"/><path class="cls-3" d="M492.31,387.39a9.33,9.33,0,1,1,9.33-9.32A9.34,9.34,0,0,1,492.31,387.39Zm0-18.4a9.08,9.08,0,1,0,9.07,9.08A9.08,9.08,0,0,0,492.31,369Z"/><path class="cls-3" d="M530.3,540.73A7.74,7.74,0,1,1,538,533,7.74,7.74,0,0,1,530.3,540.73Zm0-15.21a7.48,7.48,0,1,0,7.48,7.47A7.48,7.48,0,0,0,530.3,525.52Z"/><path class="cls-3" d="M401.38,640.64a6.21,6.21,0,1,1,6.2-6.2A6.21,6.21,0,0,1,401.38,640.64Zm0-12.15a5.95,5.95,0,1,0,5.95,6A6,6,0,0,0,401.38,628.49Z"/><path class="cls-3" d="M579.34,640.12a8.33,8.33,0,1,1,8.33-8.33A8.34,8.34,0,0,1,579.34,640.12Zm0-16.39a8.07,8.07,0,1,0,8.07,8.06A8.07,8.07,0,0,0,579.34,623.73Z"/><path class="cls-3" d="M681,795.16a9.18,9.18,0,1,1,9.18-9.18A9.19,9.19,0,0,1,681,795.16Zm0-18.1a8.92,8.92,0,1,0,8.92,8.92A8.93,8.93,0,0,0,681,777.06Z"/><path class="cls-3" d="M550.62,934.31a12.63,12.63,0,1,1,12.63-12.63A12.65,12.65,0,0,1,550.62,934.31Zm0-25A12.37,12.37,0,1,0,563,921.68,12.39,12.39,0,0,0,550.62,909.31Z"/><path class="cls-3" d="M395.75,789.86a8.43,8.43,0,1,1,8.42-8.43A8.44,8.44,0,0,1,395.75,789.86Zm0-16.6a8.17,8.17,0,1,0,8.17,8.17A8.17,8.17,0,0,0,395.75,773.26Z"/><path class="cls-3" d="M288.67,785.54A12.38,12.38,0,1,1,301,773.16,12.39,12.39,0,0,1,288.67,785.54Zm0-24.5a12.12,12.12,0,1,0,12.12,12.12A12.14,12.14,0,0,0,288.67,761Z"/><path class="cls-3" d="M363.87,945.55a7.82,7.82,0,1,1,7.81-7.81A7.81,7.81,0,0,1,363.87,945.55Zm0-15.37a7.56,7.56,0,1,0,7.56,7.56A7.57,7.57,0,0,0,363.87,930.18Z"/><path class="cls-3" d="M272.06,910a8.33,8.33,0,1,1,8.33-8.33A8.34,8.34,0,0,1,272.06,910Zm0-16.4a8.08,8.08,0,1,0,8.08,8.07A8.09,8.09,0,0,0,272.06,893.59Z"/><path class="cls-3" d="M159.48,1065.19a7.13,7.13,0,1,1,7.12-7.13A7.14,7.14,0,0,1,159.48,1065.19Zm0-14a6.88,6.88,0,1,0,6.87,6.87A6.88,6.88,0,0,0,159.48,1051.19Z"/><path class="cls-3" d="M473.44,1055.74a7.13,7.13,0,1,1,7.12-7.12A7.13,7.13,0,0,1,473.44,1055.74Zm0-14a6.87,6.87,0,1,0,6.87,6.87A6.88,6.88,0,0,0,473.44,1041.75Z"/><path class="cls-3" d="M480.56,1174.8a6.5,6.5,0,1,1,6.5-6.5A6.51,6.51,0,0,1,480.56,1174.8Zm0-12.75a6.25,6.25,0,1,0,6.24,6.25A6.25,6.25,0,0,0,480.56,1162.05Z"/><path class="cls-3" d="M609.88,1227.71a6,6,0,1,1,6-6A5.95,5.95,0,0,1,609.88,1227.71Zm0-11.64a5.69,5.69,0,1,0,5.69,5.69A5.7,5.7,0,0,0,609.88,1216.07Z"/><path class="cls-3" d="M693.21,1253.1a8.54,8.54,0,1,1,8.54-8.54A8.55,8.55,0,0,1,693.21,1253.1Zm0-16.82a8.29,8.29,0,1,0,8.29,8.28A8.3,8.3,0,0,0,693.21,1236.28Z"/><path class="cls-3" d="M89.23,901.63A8.66,8.66,0,1,1,97.9,893,8.68,8.68,0,0,1,89.23,901.63Zm0-17.07A8.41,8.41,0,1,0,97.64,893,8.42,8.42,0,0,0,89.23,884.56Z"/><path class="cls-3" d="M1353.65,712.94a12.21,12.21,0,1,1,12.2-12.21A12.22,12.22,0,0,1,1353.65,712.94Zm0-24.16a12,12,0,1,0,11.95,12A12,12,0,0,0,1353.65,688.78Z"/><path class="cls-3" d="M1207.28,660.93a6.79,6.79,0,1,1,6.78-6.79A6.8,6.8,0,0,1,1207.28,660.93Zm0-13.32a6.54,6.54,0,1,0,6.52,6.53A6.55,6.55,0,0,0,1207.28,647.61Z"/><path class="cls-3" d="M970.42,752a7.68,7.68,0,1,1,7.67-7.67A7.69,7.69,0,0,1,970.42,752Zm0-15.11a7.43,7.43,0,1,0,7.42,7.44A7.44,7.44,0,0,0,970.42,736.9Z"/><path class="cls-3" d="M743,896.69a10.61,10.61,0,1,1,10.6-10.61A10.62,10.62,0,0,1,743,896.69Zm0-21a10.35,10.35,0,1,0,10.34,10.35A10.36,10.36,0,0,0,743,875.73Z"/><path class="cls-3" d="M846.85,602.12a12.81,12.81,0,1,1,12.8-12.81A12.83,12.83,0,0,1,846.85,602.12Zm0-25.37a12.56,12.56,0,1,0,12.55,12.56A12.58,12.58,0,0,0,846.85,576.75Z"/><path class="cls-3" d="M750.32,493.56A10.71,10.71,0,1,1,761,482.85,10.72,10.72,0,0,1,750.32,493.56Zm0-21.16a10.45,10.45,0,1,0,10.46,10.45A10.46,10.46,0,0,0,750.32,472.4Z"/><path class="cls-3" d="M847.74,739.62a10,10,0,1,1,10-10A10,10,0,0,1,847.74,739.62Zm0-19.81a9.78,9.78,0,1,0,9.79,9.78A9.78,9.78,0,0,0,847.74,719.81Z"/></g></g></g></g></svg>