<svg xmlns="http://www.w3.org/2000/svg" xmlns:xlink="http://www.w3.org/1999/xlink" viewBox="0 0 77.41 77.41"><defs><style>.cls-1{fill:url(#linear-gradient);}</style><linearGradient id="linear-gradient" x1="-83.36" y1="38.7" x2="242.39" y2="38.7" gradientUnits="userSpaceOnUse"><stop offset="0" stop-color="#7ca5d6"/><stop offset="1" stop-color="#fff"/></linearGradient></defs><title>Linked In_ML</title><g id="Layer_2" data-name="Layer 2"><g id="footer"><path class="cls-1" d="M0,77.41H77.41V0H0ZM28.84,56.94H20.08V30.59h8.76Zm4.85-26.35h8.76v3.73A8.69,8.69,0,0,1,50.34,30c5.76,0,10.08,3.77,10.08,11.86V56.94H51.67V42.84c0-3.54-1.27-6-4.44-6a4.78,4.78,0,0,0-4.49,3.21,5.78,5.78,0,0,0-.29,2.13V56.94H33.69S33.8,33.06,33.69,30.59ZM24.52,17.88a4.56,4.56,0,0,1,4.9,4.56c0,2.53-1.91,4.55-5,4.55H24.4a4.53,4.53,0,0,1-4.84-4.55C19.56,19.85,21.52,17.88,24.52,17.88Z"/></g></g></svg>