<svg xmlns="http://www.w3.org/2000/svg" xmlns:xlink="http://www.w3.org/1999/xlink" viewBox="0 0 259.56 177.42"><defs><style>.cls-1{fill:none;}.cls-2{fill:#7ba4dd;}.cls-3{clip-path:url(#clip-path);}.cls-4{fill:#001c71;}.cls-5{fill:#82a5d6;}</style><clipPath id="clip-path" transform="translate(-20.39 -36.25)"><rect class="cls-1" width="298.43" height="298.73"/></clipPath></defs><title>Powered By</title><g id="Layer_2" data-name="Layer 2"><g id="Layer_2-2" data-name="Layer 2"><path class="cls-2" d="M53.23,38.54H65.28c7.6,0,10.86,3,10.86,9.89s-3.26,9.8-10.86,9.8H58.82V69.68H53.23ZM64.82,53.38c4.12,0,5.73-1.42,5.73-5s-1.61-4.94-5.73-4.94h-6v9.94Z" transform="translate(-20.39 -36.25)"/><path class="cls-2" d="M78.52,59.88V55.71c0-6.87,3.57-10.35,10.53-10.35s10.58,3.48,10.58,10.35v4.17c0,6.87-3.57,10.35-10.58,10.35S78.52,66.75,78.52,59.88Zm15.62-.13v-3.9c0-4.08-1.56-5.91-5.09-5.91s-5,1.83-5,5.91v3.9c0,4.07,1.56,5.9,5,5.9S94.14,63.82,94.14,59.75Z" transform="translate(-20.39 -36.25)"/><path class="cls-2" d="M100.23,45.91H106l4.49,17,5-17h5l5,17,4.49-17h5.54l-7.1,23.77h-5.68L118,53.38l-4.86,16.3h-5.77Z" transform="translate(-20.39 -36.25)"/><path class="cls-2" d="M136.23,60.11V55.44c0-6.55,3.62-10.08,10.31-10.08s10.35,3.57,10.35,10.12v3.94H141.73v.74c0,3.84,1.56,5.63,5.09,5.63,2.88,0,4.48-1.24,4.67-3.3h5.27c-.28,5.09-3.81,7.74-9.94,7.74C139.9,70.23,136.23,66.75,136.23,60.11Zm15.44-4.76c0-3.85-1.51-5.55-4.95-5.55s-5,1.7-5,5.55Z" transform="translate(-20.39 -36.25)"/><path class="cls-2" d="M160.65,45.91h4.67l.23,4.35c1-3.3,3.07-4.81,6.41-4.81h1.7v5.23h-1.24c-3.66,0-5.54,1.55-6.27,5.35V69.68h-5.5Z" transform="translate(-20.39 -36.25)"/><path class="cls-2" d="M174.62,60.11V55.44c0-6.55,3.62-10.08,10.31-10.08s10.35,3.57,10.35,10.12v3.94H180.12v.74c0,3.84,1.55,5.63,5.08,5.63,2.89,0,4.49-1.24,4.67-3.3h5.27c-.27,5.09-3.8,7.74-9.94,7.74C178.29,70.23,174.62,66.75,174.62,60.11Zm15.44-4.76c0-3.85-1.51-5.55-4.95-5.55s-5,1.7-5,5.55Z" transform="translate(-20.39 -36.25)"/><path class="cls-2" d="M198.07,60.43V55.21c0-6.46,3.12-9.85,8.62-9.85a8.24,8.24,0,0,1,6.77,3V36.25H219V69.68h-4.67l-.18-3.29a8.41,8.41,0,0,1-7.42,3.84C201.19,70.23,198.07,66.89,198.07,60.43Zm15.39.78V54.39c-1.23-2.89-3.16-4.45-5.72-4.45s-4.17,1.7-4.17,5.32v5.08c0,3.57,1.51,5.31,4.21,5.31C210.3,65.65,212.23,64.1,213.46,61.21Z" transform="translate(-20.39 -36.25)"/><path class="cls-2" d="M233.94,38.54h12.27c7.06,0,10.27,2.52,10.27,8.1,0,3.44-1.24,5.59-4.17,6.65v.09c3.66,1.1,5.17,3.52,5.17,7.6,0,6-3.2,8.7-10.3,8.7H233.94Zm11.59,12.87c4,0,5.4-1.06,5.4-4s-1.42-4-5.22-4h-6.18v8Zm.73,13.42c4.12,0,5.63-1.19,5.63-4.26s-1.6-4.31-6.18-4.31h-6.18v8.57Z" transform="translate(-20.39 -36.25)"/><path class="cls-2" d="M260.64,73.58H263c1.56,0,2.2-.46,2.75-2.11l.78-2.43-8.3-23.13h5.87l5.27,16.22,4.9-16.22h5.54L271,72.11c-1.56,4.58-3.16,5.91-7.38,5.91h-2.93Z" transform="translate(-20.39 -36.25)"/><g class="cls-3"><g class="cls-3"><path class="cls-4" d="M218,121.68l12.89-12.91a.88.88,0,0,0-.62-1.5H155.64a6.75,6.75,0,0,0-4.63,1.84l-13.07,12.34a.88.88,0,0,0,.61,1.52h35.23v47l-45.61-45.61L169.58,83a.88.88,0,0,0-.62-1.51H149.89a2.47,2.47,0,0,0-1.74.72L108.53,121.8V81.21a.87.87,0,0,0-.88-.88H93.71a.88.88,0,0,0-.89.88v86.43a.89.89,0,0,0,.89.89l13.94,0a.87.87,0,0,0,.88-.88V127l53.4,53.39a4.91,4.91,0,0,0,3.49,1.45h22.2a1.87,1.87,0,0,0,1.87-1.87V123h25.35a4.4,4.4,0,0,0,3.12-1.29" transform="translate(-20.39 -36.25)"/><path class="cls-4" d="M220.91,125.82a3.47,3.47,0,0,0-1,2.45V165a16.79,16.79,0,0,0,16.79,16.79h42a1.23,1.23,0,0,0,1.23-1.22V167.82a1.87,1.87,0,0,0-1.86-1.86H244.24a8.51,8.51,0,0,1-8.52-8.52V113.22a.88.88,0,0,0-1.51-.62Z" transform="translate(-20.39 -36.25)"/><path class="cls-4" d="M57.67,160.64,66,153.58a66.33,66.33,0,0,1-4.94-10c-9.27-23.46-4.33-48.58,12.59-64a.27.27,0,0,0-.34-.41C50.06,96.66,40.64,124,49.85,147.36a50.07,50.07,0,0,0,7.82,13.28" transform="translate(-20.39 -36.25)"/><path class="cls-4" d="M113.51,180.5a53.38,53.38,0,0,1-41.28-18.43l-6.46,6.5c11.37,9,26.72,13.7,43.44,12.82,1.44-.07,2.88-.19,4.34-.35a.28.28,0,0,0,.24-.28.28.28,0,0,0-.28-.26" transform="translate(-20.39 -36.25)"/><path class="cls-5" d="M95.82,183.58c-12.93-1-24-5.22-32.74-12.3l-4.29,4.31a57.93,57.93,0,0,0,34.31,8.73c.91,0,1.83-.11,2.74-.2a.27.27,0,0,0,.25-.28.28.28,0,0,0-.27-.26" transform="translate(-20.39 -36.25)"/><path class="cls-5" d="M54.93,163a57.18,57.18,0,0,1-8.14-14.34c-8.15-20.63-3.14-43.1,12.05-59.16a.27.27,0,0,0,0-.37.26.26,0,0,0-.37,0c-20.27,15.66-28.12,41.07-19.58,62.68a49.43,49.43,0,0,0,10.33,16Z" transform="translate(-20.39 -36.25)"/><path class="cls-2" d="M97.14,199h12.6a1.94,1.94,0,0,0,1.94-1.94v-1.8H97.14a5.54,5.54,0,0,0,0,11.08h9a1.8,1.8,0,1,1,0,3.6H93.55a1.94,1.94,0,0,0-2,1.94v1.8h14.54a5.54,5.54,0,1,0,0-11.08h-9a1.8,1.8,0,1,1,0-3.6" transform="translate(-20.39 -36.25)"/><path class="cls-2" d="M265.41,199H278a1.94,1.94,0,0,0,1.94-1.94v-1.8H265.41a5.54,5.54,0,1,0,0,11.08h9a1.8,1.8,0,0,1,0,3.6h-12.6a1.94,1.94,0,0,0-1.94,1.94v1.8h14.54a5.54,5.54,0,0,0,0-11.08h-9a1.8,1.8,0,0,1,0-3.6" transform="translate(-20.39 -36.25)"/><path class="cls-2" d="M130.92,195.25H119A4.73,4.73,0,0,0,114.3,200v9a4.74,4.74,0,0,0,4.73,4.74h11.89a4.74,4.74,0,0,0,4.73-4.74v-9a4.73,4.73,0,0,0-4.73-4.73m1,12.52v.56a1.59,1.59,0,0,1-1.59,1.6H119.63a1.6,1.6,0,0,1-1.6-1.6v-7.74a1.6,1.6,0,0,1,1.6-1.6h10.69a1.59,1.59,0,0,1,1.59,1.6v7.18Z" transform="translate(-20.39 -36.25)"/><path class="cls-2" d="M227.7,195.25H215.82a4.74,4.74,0,0,0-4.74,4.73v9a4.74,4.74,0,0,0,4.74,4.74H227.7a4.74,4.74,0,0,0,4.74-4.74v-9a4.74,4.74,0,0,0-4.74-4.73m1,12.52v.56a1.59,1.59,0,0,1-1.6,1.6H216.42a1.59,1.59,0,0,1-1.6-1.6v-7.74a1.59,1.59,0,0,1,1.6-1.6H227.1a1.59,1.59,0,0,1,1.6,1.6v7.18Z" transform="translate(-20.39 -36.25)"/><path class="cls-2" d="M176,195.25v13.09a1.59,1.59,0,0,1-1.6,1.59H163.74a1.59,1.59,0,0,1-1.59-1.59V195.25h-3.74v13.68a4.74,4.74,0,0,0,4.74,4.74H175a4.74,4.74,0,0,0,4.74-4.74V195.25Z" transform="translate(-20.39 -36.25)"/><rect class="cls-2" x="183.91" y="159" width="3.74" height="18.31"/><path class="cls-2" d="M253.15,196.87v11.26l-13.92-12.39-.59-.49h-.95a2.19,2.19,0,0,0-2.2,2.2v16.11h2.3a1.44,1.44,0,0,0,1.44-1.44v-11l13.92,12.4h2.23a1.51,1.51,0,0,0,1.51-1.51v-16.8h-2.12a1.62,1.62,0,0,0-1.62,1.62" transform="translate(-20.39 -36.25)"/><path class="cls-2" d="M201.88,195.25H182.23V197a2,2,0,0,0,2,2h6v14.57H194V199h6.27a1.6,1.6,0,0,0,1.6-1.61Z" transform="translate(-20.39 -36.25)"/><path class="cls-2" d="M143.72,209.93a1.6,1.6,0,0,1-1.6-1.6V195.25h-3.73v13.68a4.73,4.73,0,0,0,4.73,4.74h13.71a3.73,3.73,0,0,0-3.74-3.74Z" transform="translate(-20.39 -36.25)"/><path class="cls-2" d="M87.53,135.87h0c-26.63,32.69-57,53.5-58.52,45.37a9,9,0,0,1,.8-4.76,25.65,25.65,0,0,0-3,6.52c-2.59,12.74,26-2.24,58.13-40.07a10.93,10.93,0,0,0,2.6-7.06" transform="translate(-20.39 -36.25)"/><path class="cls-4" d="M23.54,188.15c-.41-2.19.85-5.31,2.76-8.57,4.57-8,12.27-16.66,14.47-19.08l-.46-.72s-26,24-18.61,34.28c3.18,4.43,15.49.7,27.45-8.48a248.29,248.29,0,0,0,36.16-35,9.91,9.91,0,0,0,2.22-6.26c-36.79,42.75-62.34,52.75-64,43.79" transform="translate(-20.39 -36.25)"/><path class="cls-4" d="M36.26,171.8c.05-3.41,5.6-9.6,5.6-9.6l-.58-.9a75.21,75.21,0,0,0-7.7,9.94,14.5,14.5,0,0,0-1.44,3.69c-2.37,11.65,26.71-8.45,53.42-41.11a8.86,8.86,0,0,0,2-5.59s-1.17,1.31-1.84,2c-4.24,4.42-15.13,16.58-24.69,25.84-12.2,11.8-24.8,19.77-24.74,15.73" transform="translate(-20.39 -36.25)"/></g></g></g></g></svg>