<svg xmlns="http://www.w3.org/2000/svg" viewBox="0 0 1270.28 1243.85"><defs><style>.cls-1{opacity:0.27;}.cls-2{opacity:0.85;}.cls-3{fill:#4d4d4d;}</style></defs><title>Right</title><g id="Layer_2" data-name="Layer 2"><g id="Layer_3" data-name="Layer 3"><g class="cls-1"><g class="cls-2"><path class="cls-3" d="M1266.35,363.27a4.33,4.33,0,0,0-4.7,3.93,4.28,4.28,0,0,0,.42,2.25l-156.43,80.7a4.31,4.31,0,0,0-7.67.24l-179.09-79a6.38,6.38,0,0,0-8.54-8.27l-14.79-30.9a2.56,2.56,0,0,0,1-1,2.53,2.53,0,0,0-3.2-3.61l-10-20.9a3,3,0,0,0,1.18-1.1,2.92,2.92,0,0,0-3.7-4.17L859,255.93a4.23,4.23,0,0,0,1.74-1.62,4.39,4.39,0,1,0-3.71,2.1L860.35,361,679.74,334.35c0-.09,0-.16,0-.25a3.5,3.5,0,0,0-7,.34,3.68,3.68,0,0,0,.44,1.51l-46.08,30.24a3.52,3.52,0,0,0-3-1.43,3.8,3.8,0,0,0-.65.1L592.41,259.45l19.87-22,114.35,28a6.39,6.39,0,1,0,11.62-2l28.56-18.94a2.58,2.58,0,0,0,1.08.87,2.54,2.54,0,0,0,3.32-1.37,2.51,2.51,0,0,0-.18-2.3l19.31-12.82a2.86,2.86,0,0,0,1.25,1,2.93,2.93,0,0,0,3.83-1.58,2.9,2.9,0,0,0-.21-2.66l42.1-27.94a4.13,4.13,0,0,0,1.86,1.5,4.32,4.32,0,1,0-2.33-5.66,4.2,4.2,0,0,0-.3,1.33l-173.79-8.77c0-.1,0-.2,0-.3a4.33,4.33,0,0,0-4.54-4.11,4.22,4.22,0,0,0-1.22.26L622.89,93.21a3.48,3.48,0,0,0-1.52-6.7,3.9,3.9,0,0,0-1,.21l-27.5-71.5a5.37,5.37,0,1,0-2.36.41l-6.92,212.1a2.55,2.55,0,0,0-2.3,1.56,2.48,2.48,0,0,0-.19.92l-29,1.4a3.48,3.48,0,0,0-6.69-1,4.4,4.4,0,0,0-.18.62L436.07,212.3,400.6,126.67a4.19,4.19,0,0,0,2.22-2.27,4.33,4.33,0,0,0-8-3.34,4.08,4.08,0,0,0-.28,1.21l-94.78-7.34a3.48,3.48,0,0,0-6.93-.54l-76.39-5.92a5.42,5.42,0,1,0-.69,2.35l171.88,92c0,.08-.09.15-.13.25a4.29,4.29,0,0,0,1.17,4.91l-67.16,82a3.15,3.15,0,0,0-.76-.44,3.49,3.49,0,0,0-4.57,1.88,4.09,4.09,0,0,0-.24,1l-105-5.86a5.63,5.63,0,0,0-.4-2.23,5.4,5.4,0,1,0-3.56,7.23l56.51,186.58c-.08,0-.17,0-.27.08a4.31,4.31,0,0,0-2.65,4.31L155.11,492.94a3,3,0,0,0-.22-.86,3.49,3.49,0,1,0-1.89,4.55,3.44,3.44,0,0,0,1.87-1.84l121.78,47.3a4.26,4.26,0,0,0,.07,3.08,4.33,4.33,0,0,0,7.12,1.35l70.27,63.79a3.42,3.42,0,0,0-.6,3.58,3.52,3.52,0,0,0,4.57,1.91,3.57,3.57,0,0,0,1.18-.82l21.48,19.49a2.49,2.49,0,0,0-.44,2.61,2.56,2.56,0,0,0,1,1.19L368,662.67l-20.29,1.07a4.32,4.32,0,1,0-7.21,3.56,4.28,4.28,0,0,0,1.54.89l-19.83,65.86L276,753a2.71,2.71,0,0,0-.6-.8,2.54,2.54,0,0,0-3.41,3.76,2.54,2.54,0,0,0,3.59-.17,2.51,2.51,0,0,0,.56-1.07l34.24,7.1a3.49,3.49,0,0,0,1.09,3.22,3.54,3.54,0,0,0,1.24.72l-8.36,27.77a2.49,2.49,0,0,0-2.54.72,2.56,2.56,0,0,0,.17,3.61,2.5,2.5,0,0,0,.91.51l-6.67,22.16L254.13,845a4.71,4.71,0,0,0-.45-.65,5.4,5.4,0,1,0-.67,7.6,5.12,5.12,0,0,0,1-1.18l24.27,15.12a4.32,4.32,0,0,0,.45,5L224,920a4.38,4.38,0,0,0-.36-.39,6.39,6.39,0,1,0-2.87,11l8.31,33.23a2.45,2.45,0,0,0-1.18.73,2.53,2.53,0,0,0,2.4,4.19l5.61,22.49a2.81,2.81,0,0,0-1.36.84,2.93,2.93,0,0,0,2.79,4.82l12.26,49a4.19,4.19,0,0,0-2,1.25,4.32,4.32,0,0,0,.31,6.11,3.91,3.91,0,0,0,1.71.94L238.65,1097l-70.83-41.66a4.45,4.45,0,0,0,.4-3.16,4.33,4.33,0,0,0-8.38,2.15,4,4,0,0,0,.49,1.14l-80.06,51.22A3.49,3.49,0,0,0,74,1109.5a3.36,3.36,0,0,0,.4.91L9.87,1151.69a5.38,5.38,0,1,0,.88,2.3l192.58-30.12c0,.1,0,.19,0,.28a4.3,4.3,0,0,0,3.9,3.22L203,1233.25a3.28,3.28,0,0,0-.88.08,3.5,3.5,0,1,0,4.25,2.52,3.45,3.45,0,0,0-2.39-2.47l31.92-124.75,11.77-6.05,19.05,11.2a4.28,4.28,0,0,0-.4,3.15,4.32,4.32,0,1,0,8.38-2.14,4.12,4.12,0,0,0-.8-1.59l72.89-60.77a3.48,3.48,0,0,0,6-3.17,3.09,3.09,0,0,0-.64-1.28l22.27-18.57a2.53,2.53,0,0,0,4.36-2.3,2.36,2.36,0,0,0-.47-.95l25.91-21.59-5.37,61.56a4.27,4.27,0,0,0-3,1,4.32,4.32,0,1,0,6.65,5.23L488.7,1112a3.47,3.47,0,0,0,4.53,4.58l47.61,103a3,3,0,0,0-.53.35,2.93,2.93,0,0,0,3.75,4.5,3,3,0,0,0,1-1.92l87.69,6.46a6.3,6.3,0,0,0,1.46,4.44,6.4,6.4,0,0,0,11.28-4.65l34.07-3.63a2.41,2.41,0,0,0,.55,1.28,2.54,2.54,0,0,0,4.49-1.8l23-2.45a2.88,2.88,0,0,0,.63,1.47,2.94,2.94,0,0,0,5.18-2.1l50.23-5.33a4.33,4.33,0,1,0,1.51-3.91,4.41,4.41,0,0,0-1.3,1.89l-167.68-53.55a4.32,4.32,0,0,0-6.92-4.51,4.18,4.18,0,0,0-1.1,1.39L526.05,1129a2.53,2.53,0,0,0-4-2.85,2.6,2.6,0,0,0-.6.73l-26.34-12.14a3.48,3.48,0,0,0-4.49-4.55l-37.5-87,59.59-51.85a6.39,6.39,0,1,0,7-10.26l11.38-32.32a2.62,2.62,0,0,0,1.39,0,2.54,2.54,0,0,0,.3-4.83l7.69-21.86a2.79,2.79,0,0,0,1.62,0,2.92,2.92,0,0,0,.33-5.55l16.78-47.67a4.09,4.09,0,0,0,2.38.08,4.32,4.32,0,1,0-2.14-8.37,4.24,4.24,0,0,0-2.24,1.42l-89.79-70.76a6.51,6.51,0,0,0,1.14-2.46l33.59,6.79a2.66,2.66,0,0,0,.14,1.39,2.55,2.55,0,0,0,3.32,1.38,2.51,2.51,0,0,0,1.49-1.76l22.72,4.6a3,3,0,0,0,.17,1.6,2.92,2.92,0,0,0,3.82,1.59,2.89,2.89,0,0,0,1.74-2l49.53,10a4.23,4.23,0,0,0,.24,2.37,4.33,4.33,0,1,0,2.69-5.75l-78-222.11a3.63,3.63,0,0,0,1.26-.89,3.47,3.47,0,0,0,.38-4.14l123.28-84.7a5.37,5.37,0,0,0,9.73-2.67,5.57,5.57,0,0,0-.12-1.58l27.88-6.46a4.29,4.29,0,0,0,3.83,3.19l-4,73.44h-.53a6.39,6.39,0,1,0,5.73,9.79l29.38,17.62a2.53,2.53,0,0,0,2.35,3.76,2.47,2.47,0,0,0,2-1.15L731,585.08a3.13,3.13,0,0,0-.37,1.56,2.94,2.94,0,0,0,3.06,2.79,2.88,2.88,0,0,0,2.31-1.34l43.33,26a4.36,4.36,0,0,0-.55,2.32,4.23,4.23,0,0,0,1.3,2.86l-53.22,57.29a4.5,4.5,0,0,0-.65-.47,4.33,4.33,0,1,0-4.4,7.45A4,4,0,0,0,723,684l-20.41,92.84a3.48,3.48,0,0,0-2.4,6.42,3.23,3.23,0,0,0,.91.37l-16.44,74.83a5.39,5.39,0,1,0,2.24,1L801.76,702a1.31,1.31,0,0,0,.24.17,4.32,4.32,0,0,0,5-.47l71.85,77.86a3.87,3.87,0,0,0-.54.67,3.5,3.5,0,1,0,4.79-1.21,3.58,3.58,0,0,0-2.62-.39L844.92,652.9a4.32,4.32,0,0,0,.91-7.85,4.4,4.4,0,0,0-1.69-.57l8.58-94.5a3.44,3.44,0,0,0,3.21-1.69,3.48,3.48,0,0,0-1.22-4.78,3.39,3.39,0,0,0-1.37-.47L856,514.17a2.54,2.54,0,0,0,2.35-1.23,2.57,2.57,0,0,0-.89-3.48,2.41,2.41,0,0,0-1-.33l3.05-33.6,39.73,47.34a4.32,4.32,0,1,0,7.19,3.61.71.71,0,0,1,0-.14L1108,532a2.92,2.92,0,0,0,5.83.21,2.88,2.88,0,0,0-1-2.47L1164,464.51l14.21,2.77a3.28,3.28,0,0,0-.08.52,6.39,6.39,0,1,0,10.48-4.31l21.53-26.66a2.51,2.51,0,0,0,4-1.8,2.49,2.49,0,0,0-.88-2.14l14.58-18a3,3,0,0,0,1.49.59,2.92,2.92,0,0,0,2.17-5.14l31.75-39.3a4.33,4.33,0,1,0,3-7.75Zm-4.18,6.41c0,.05.08.1.11.16L1214.69,401a2.53,2.53,0,0,0-4.58,1.26,2.48,2.48,0,0,0,.87,2.13l-47,59.87-57.84-11.29c0-.11,0-.2.05-.3a4.21,4.21,0,0,0-.43-2.26Zm-164.63,82.18a4.47,4.47,0,0,0,.21,1.76l-64.19,23.73a2.53,2.53,0,0,0-4.83.82,2.22,2.22,0,0,0,.09.93l-27.22,10.06a3.47,3.47,0,0,0-6.67,1,3.52,3.52,0,0,0,.15,1.38l-89,32.9a4.33,4.33,0,0,0-3.57-2.7l10.19-146.45a6.36,6.36,0,0,0,5.8-3.12,6.19,6.19,0,0,0,.3-.56l179.07,79A4.52,4.52,0,0,0,1097.54,451.86Zm-238.39-17.4a4.3,4.3,0,0,0,3.22,6.49l-3.09,34L825.5,434.68a4.3,4.3,0,0,0,.74-5.58l35.48-24.52.89,27.77A4.26,4.26,0,0,0,859.15,434.46ZM676.56,337.74a3.49,3.49,0,0,0,2.72-1.71L819,429.17a4.36,4.36,0,0,0-.66,1.9,4.28,4.28,0,0,0,.09,1.24l-92.59,21.51a3.48,3.48,0,0,0-6.84.57,3.22,3.22,0,0,0,.07,1l-38.33,8.9a4.35,4.35,0,0,0-4.06-3.19Zm4.29,127.44a3.55,3.55,0,0,0-.1-.64l38.35-8.91a3.49,3.49,0,0,0,6.84-.61,3.82,3.82,0,0,0-.06-1l92.59-21.51a4.16,4.16,0,0,0,.7,1.47L696.45,530.2l-18.53-60.72A4.31,4.31,0,0,0,680.85,465.18Zm226.82-92.7L862,404.09l-1.35-42.75,46,6.8A6.49,6.49,0,0,0,907.67,372.48Zm.14.22A6.4,6.4,0,0,0,909.1,374l-43.77,59.12-.25-.19a4.24,4.24,0,0,0-2.22-.58l-.89-28ZM866.6,438.87a4.33,4.33,0,0,0-1.07-5.6l43.77-59.11a5,5,0,0,0,.45.29,6.26,6.26,0,0,0,2.67.86L902.25,521.78a4.31,4.31,0,0,0-1.79.31l-35.74-81.52A4.33,4.33,0,0,0,866.6,438.87Zm-9.32-182.46a4.24,4.24,0,0,0,1.48-.37l21.84,45.58a2.72,2.72,0,0,0-1.12,1.06,2.93,2.93,0,0,0,3.63,4.2l10,20.9a2.64,2.64,0,0,0-.94.91,2.55,2.55,0,0,0,.89,3.49,2.49,2.49,0,0,0,2.23.16l14.82,30.91a6.37,6.37,0,0,0-2.63,2.45,6.66,6.66,0,0,0-.8,2.19l-46.09-6.81Zm3.07,104.9,1.37,43L826.1,428.9a4.29,4.29,0,0,0-7,.06L679.38,335.81a3.32,3.32,0,0,0,.35-1.21Zm-187-25.15a3.53,3.53,0,0,0,3,1.6l.1,123.32a.14.14,0,0,1-.09,0,4.36,4.36,0,0,0-1.72.47l-32.39-60.3A2.54,2.54,0,0,0,643.4,399a2.57,2.57,0,0,0-2.67-2.41,2.76,2.76,0,0,0-.92.22l-13.72-25.55a3.49,3.49,0,0,0,1.71-3.15,3.55,3.55,0,0,0-.54-1.68Zm-87.48,454.4L442.05,689.05a4.3,4.3,0,0,0-.5-5.38l22.35-22.82,0,0a4.34,4.34,0,0,0,5.7.07L586.31,790A5.5,5.5,0,0,0,585.86,790.56ZM557.45,847.9,437,976.24a4.32,4.32,0,0,0-7.05,4.31,4.07,4.07,0,0,0,.79,1.6L404.54,1004l4.57-52.33a4.39,4.39,0,0,0,3-1A4.32,4.32,0,0,0,413,945l144-97.69A4.7,4.7,0,0,0,557.45,847.9ZM401.78,1067.51a4.42,4.42,0,0,0-1.47-1l32.38-82.9a4.31,4.31,0,0,0,2.52.11,2.82,2.82,0,0,0,.51-.19l17.1,39.64ZM406.59,944a4.35,4.35,0,0,0-.82,1L325.1,894.7a3.5,3.5,0,0,0-.31-4l62-55.53,21.58,107.94A4.31,4.31,0,0,0,406.59,944Zm-152.9,102.81a4.15,4.15,0,0,0-2.05-1l7.9-45.95,84.56,20.35,2.22,12.76L255,1049.16A4.23,4.23,0,0,0,253.69,1046.83ZM315,759.12l7.5-24.87,8.49-3.48-15.55,28.55A3.49,3.49,0,0,0,315,759.12Zm1.19.71a2.78,2.78,0,0,0-.53-.39l15.69-28.81,86.93-35.57,40.63,67a6.37,6.37,0,0,0-3,5.8L378,774.65a3.38,3.38,0,0,0-1.1-2.1,3.5,3.5,0,0,0-4.95.23,3.6,3.6,0,0,0-.74,1.37l-54-11.19A3.42,3.42,0,0,0,316.16,759.83ZM436.8,682.65a4.71,4.71,0,0,0-1.47,1l-25.25-22.91L462.53,658a4.41,4.41,0,0,0,1.19,2.65l-22.35,22.81A4.37,4.37,0,0,0,436.8,682.65Zm25.72-24.87-52.71,2.73-25.17-22.84a2.16,2.16,0,0,0,.42-.81l77.57,19.87A5.27,5.27,0,0,0,462.52,657.78Zm-78-19.91,25,22.66-11.47.6-13.91-22.91A2.36,2.36,0,0,0,384.48,637.87Zm25.24,22.91,25.45,23.08a4.28,4.28,0,0,0-.77,4.32l-16,6.56-20.23-33.37Zm8.39,34.06-86.59,35.42,36.66-67.32,29.64-1.55Zm-45.87,82.88a3.71,3.71,0,0,0,1,.63l-49.86,111.4a3.46,3.46,0,0,0-3.57.53,3.26,3.26,0,0,0-.63.75l-33.42-20.82a4.3,4.3,0,0,0-.83-5.37,4.39,4.39,0,0,0-1.54-.9l13-43.26,75.2-43.7A3.37,3.37,0,0,0,372.24,777.72Zm-87,93.23a3.87,3.87,0,0,0,.39-.54l33.41,20.82a3.49,3.49,0,0,0,3.5,5.19l21.49,123.52-84.46-20.33,21.86-127.28A4.31,4.31,0,0,0,285.26,871Zm59.11,149.33,29.46,7.09a2.43,2.43,0,0,0,0,.71l-27.28,4.83Zm29.52,6.85L344.32,1020l-21.5-123.65a2.68,2.68,0,0,0,.45-.11l51.85,129.28A2.53,2.53,0,0,0,373.89,1027.13ZM324.61,890.55a3.32,3.32,0,0,0-1-.71l49.88-111.39a3.56,3.56,0,0,0,1.94.06l11.29,56.41Zm51.1-112.12a3.75,3.75,0,0,0,1.47-1,3.47,3.47,0,0,0,.89-2.57l77.87-6.76a6.47,6.47,0,0,0,.45,1.74,6.12,6.12,0,0,0,1.07,1.74L387,834.73Zm84.16-16.87a4.33,4.33,0,0,0-.78.38l-40.61-67,16-6.56a4.29,4.29,0,0,0,5,2.41l20.83,70.55A4.29,4.29,0,0,0,459.87,761.56Zm3.75-106.79a4.26,4.26,0,0,0-.92,1.71l-77.56-19.86a2.45,2.45,0,0,0-.14-1.46,2.42,2.42,0,0,0-.41-.68l49.9-46.76L505.37,565a3.49,3.49,0,0,0,.9,1.34,3,3,0,0,0,.8.53l-38.61,86.85A4.33,4.33,0,0,0,463.62,654.77ZM268.85,480.53a3.86,3.86,0,0,0-.62-1l56.54-47.27a4.17,4.17,0,0,0,1.44,1.08L290.83,518.8l-23.39-33.18A4.33,4.33,0,0,0,268.85,480.53Zm-4.5-130.61a3,3,0,0,0-.69-1.05l53.4-53.62a3.76,3.76,0,0,0,1,.67,3.66,3.66,0,0,0,1.44.26l8.08,128.91a3.92,3.92,0,0,0-1.25.29,4.28,4.28,0,0,0-1.07.64l-61.81-72.2A3.46,3.46,0,0,0,264.35,349.92ZM442.23,238.73a4.37,4.37,0,0,0,2.23,2.15c.14.06.31.09.46.14l-5.1,19.63-117.07,31c0-.08,0-.18-.07-.27ZM356.32,609.11,328.79,433.63a4.78,4.78,0,0,0,.84-.25,4.33,4.33,0,0,0,2.57-5l129.2-33.58a5.41,5.41,0,0,0,1.57,2.54,5.52,5.52,0,0,0,1.09.74L358.2,609.39A3.64,3.64,0,0,0,356.32,609.11ZM322.66,294a3.41,3.41,0,0,0,.16-2.11l116.93-31-14.29,55a4.47,4.47,0,0,0-1.17-.13,4.34,4.34,0,0,0-2.75,7.48L330.75,426.06a4.36,4.36,0,0,0-2.9-1l-8.08-128.91A3.5,3.5,0,0,0,322.66,294Zm250-13.21L470.2,389.36a5.37,5.37,0,0,0-6.18-.71l-37.26-64.81a4.29,4.29,0,0,0,2.07-3.88,3.07,3.07,0,0,0-.13-.83l142.91-40.06A4.05,4.05,0,0,0,572.68,280.82Zm16.11,112.09-43.23,87.82a5.34,5.34,0,0,0-5.59.66l-69.85-84a4.57,4.57,0,0,0,.47-.42,5.36,5.36,0,0,0,1.38-3.63l115.53-2.49A2.52,2.52,0,0,0,588.79,392.91ZM331,426.23l90.79-102.75a4.24,4.24,0,0,0,4.8.49l37.26,64.81a5,5,0,0,0-1.21,1,5.36,5.36,0,0,0-1.25,4.86L332.12,428.18a3.81,3.81,0,0,0-.13-.45A4.21,4.21,0,0,0,331,426.23Zm139-28.64,69.85,84c-.16.14-.32.26-.47.41a5.4,5.4,0,0,0,0,7.21l-39.71,37.21L468,398.57A5.35,5.35,0,0,0,469.93,397.59Zm75.87,83.24L589,393a2.4,2.4,0,0,0,1.13.21,2.72,2.72,0,0,0,1.05-.28l7.34,12.44L546.26,481.1C546.11,481,546,480.92,545.8,480.83Zm45.61-88a2.52,2.52,0,0,0,1.15-2.25,2.35,2.35,0,0,0-.35-1.15l29.23-19.19a3.46,3.46,0,0,0,.8.82l-23.54,34.1Zm29.41-24.4a3.44,3.44,0,0,0,.48,1.59L592.07,389.2a2.53,2.53,0,0,0-4.57,1.42L472,393.13a5.36,5.36,0,0,0-1.61-3.58L572.85,281a4.35,4.35,0,0,0,4.81.63l44.93,83.59A3.44,3.44,0,0,0,620.82,368.42ZM571.41,278a5.85,5.85,0,0,0,.11.84L428.61,318.88a4.27,4.27,0,0,0-2.9-2.85L440,260.86,545.38,233a3.4,3.4,0,0,0,2,2.21,3.48,3.48,0,0,0,3-.15l23.11,39.12A4.31,4.31,0,0,0,571.41,278ZM545.3,232.71,440.11,260.58l5.06-19.49a4.28,4.28,0,0,0,5.27-4.29l94.79-4.61A4.34,4.34,0,0,0,545.3,232.71ZM326.45,433.42a4.45,4.45,0,0,0,2.08.23l27.54,175.49a3,3,0,0,0-.65.19,3.46,3.46,0,0,0-.57.31L291,519.05Zm32,176.09L464.3,398.22a5.32,5.32,0,0,0,3.46.41l31.6,128-65,60.9L360,611.38a.66.66,0,0,0,0-.15A3.48,3.48,0,0,0,358.42,609.51Zm141-82.64,8.27,33.46a3.61,3.61,0,0,0-1.7,1,3.51,3.51,0,0,0-.74,3.35l-70.34,22.6ZM508,560.29l-8.3-33.62,39.8-37.3c.08.08.14.17.22.24a5.82,5.82,0,0,0,1.32.85l-31.11,70A3.55,3.55,0,0,0,508,560.29Zm39-78.69c-.15-.13-.31-.23-.46-.35l52.22-75.63,37.68,63.88a5.31,5.31,0,0,0-2.53,4.08,5.46,5.46,0,0,0,0,1l-85.21,10.26A5.46,5.46,0,0,0,546.93,481.6Zm89.65-12.25-37.73-64,23.6-34.2a3.37,3.37,0,0,0,2,.54,3.5,3.5,0,0,0,1.4-.37L639.6,396.9a2.58,2.58,0,0,0-1.29,2.33,2.53,2.53,0,0,0,2.45,2.4l-1.55,67.05A5.41,5.41,0,0,0,636.58,469.35ZM623.24,364.94a1.89,1.89,0,0,0-.45.17l-44.91-83.6a4.32,4.32,0,0,0,2.17-3.95,4.25,4.25,0,0,0-1.33-2.91l13.5-15ZM592.13,259.39l-13.6,15.09a4.53,4.53,0,0,0-2-.94l6.81-40.76a2.35,2.35,0,0,0,.88-.05Zm63.33-70.28-35.33,39.21-34,1.64a2.67,2.67,0,0,0-.27-.87l68.9-40.8A3.67,3.67,0,0,0,655.46,189.11Zm-69.26,41.1,33.69-1.63-7.7,8.54-26-6.37A2.41,2.41,0,0,0,586.2,230.21Zm6.12,29-7.82-26.52a2.56,2.56,0,0,0,1.51-1.41,2.33,2.33,0,0,0,.07-.25L612,237.35Zm20.15-22,7.77-8.63,34.33-1.67a4.29,4.29,0,0,0,8,1.83l64.62,35.15a3.12,3.12,0,0,0-.23.49,5.13,5.13,0,0,0-.27.81Zm224-42.1a4.4,4.4,0,0,0,.65,2.38l-42.11,27.93a2.82,2.82,0,0,0-1.21-1,2.92,2.92,0,0,0-3.63,4.18l-19.32,12.82a2.53,2.53,0,0,0-4.21,2.79l-28.56,18.95a6.27,6.27,0,0,0-2.8-2.26,6.38,6.38,0,0,0-8,2.74L662.7,228.51a2.54,2.54,0,0,0,.16-.28,4.33,4.33,0,1,0-8-3.33,4.29,4.29,0,0,0-.33,1.75l-34,1.65,35.16-39a4.3,4.3,0,0,0,7.09-2.94ZM590.8,15.63h.31a5.61,5.61,0,0,0,1.55-.31l27.5,71.49a3.48,3.48,0,0,0,1.55,6.68,3.1,3.1,0,0,0,.95-.2L656.77,182a4.27,4.27,0,0,0-2.1,6.06l-68.89,40.8a2.46,2.46,0,0,0-1.13-1,2.37,2.37,0,0,0-.77-.17Zm-9.66,214.83a2.54,2.54,0,0,0,1.55,2.15,1.76,1.76,0,0,0,.43.13l-6.81,40.76a4.19,4.19,0,0,0-.79,0,4.11,4.11,0,0,0-1.87.54l-23.11-39.1a3.49,3.49,0,0,0,1.38-1.62,3.35,3.35,0,0,0,.27-1.42Zm-35.88,1a2.85,2.85,0,0,0-.06.49l-94.78,4.59a4.29,4.29,0,0,0-5.83-3.69l-8.4-20.26ZM393.18,200.72a4.27,4.27,0,0,0-1.16-.28L398.58,127a4.1,4.1,0,0,0,1.8-.27l35.4,85.49-40-6.93A4.29,4.29,0,0,0,393.18,200.72ZM215.89,110.6c.06-.12.13-.22.18-.34a5,5,0,0,0,.36-1.53l76.4,5.91A3.46,3.46,0,0,0,295,118a3.52,3.52,0,0,0,4.58-1.89,3.38,3.38,0,0,0,.21-.93l94.77,7.35a4.33,4.33,0,0,0,2.64,4.19,3.66,3.66,0,0,0,1.17.29l-6.56,73.4a4.31,4.31,0,0,0-4,2.16Zm173,97.53a4.23,4.23,0,0,0,1,.58,4.35,4.35,0,0,0,5.67-2.33,3.48,3.48,0,0,0,.24-.8l40.15,6.95,8.46,20.41a4.31,4.31,0,0,0-2.25,5.57L322.56,291.18a3.4,3.4,0,0,0-.83-1.09Zm-72.94,84.5a3.55,3.55,0,0,0,.94,2.44l-53.39,53.61a3.49,3.49,0,0,0-3.69-.66,2.94,2.94,0,0,0-.85.52l-49.83-58.21a5.36,5.36,0,0,0,1.77-3.57Zm-108.73-1.19c.12,0,.25-.06.38-.11a5.35,5.35,0,0,0,1.33-.84l49.83,58.21a3.48,3.48,0,0,0,3.7,5.77,3.13,3.13,0,0,0,.82-.49l61.82,72.21A4.31,4.31,0,0,0,324,431a3.82,3.82,0,0,0,.62,1l-56.54,47.27a4.3,4.3,0,0,0-4.35-1.29Zm53.36,191.28a5.55,5.55,0,0,0,.28,1.1,4.32,4.32,0,0,0,5.64,2.35,3.72,3.72,0,0,0,.74-.39l23.48,33.3-8.46,20.41a4.34,4.34,0,0,0-5.53,2.35L155,494.54a3.38,3.38,0,0,0,.19-1.35ZM284,546.33a4.31,4.31,0,0,0,.73-4.45,4.4,4.4,0,0,0-2.24-2.29l8.39-20.26,63.77,90.47a3,3,0,0,0-.38.3Zm75.43,68.45a3.43,3.43,0,0,0,.67-3.15l73.83-23.73-49.51,46.39a2.51,2.51,0,0,0-2.73-.53,2.68,2.68,0,0,0-.77.52Zm22.13,23.61a2.45,2.45,0,0,0,2.07.06,1.63,1.63,0,0,0,.23-.11l13.83,22.81-29.34,1.52Zm-39.22,29.87a4.3,4.3,0,0,0,5.43-4.27l20.14-1-36.75,67.47-8.6,3.51Zm-66.11,86.18a2.86,2.86,0,0,0-.12-1.23l46.06-18.85-7.43,24.69a3.48,3.48,0,0,0-3.5,1,3.24,3.24,0,0,0-.78,1.47Zm26.93,44a2.53,2.53,0,0,0,2.25-4.36,2.65,2.65,0,0,0-.8-.49L313,765.79a3.48,3.48,0,0,0,3.45-1,3.38,3.38,0,0,0,.8-1.56l54,11.2a3.45,3.45,0,0,0,.33,2.36l-75,43.56Zm-49,52.1a5.38,5.38,0,0,0,.1-5.34l41.85-24.31-13,43a4.28,4.28,0,0,0-4.32,1.26,3.07,3.07,0,0,0-.38.51Zm-33.14,80a6.3,6.3,0,0,0,3.07-1.87,6.39,6.39,0,0,0,.1-8.47L278.93,871l.22.24a4.46,4.46,0,0,0,.77.54l-49,92.15a2.57,2.57,0,0,0-1.54-.21Zm9.54,38.16a2.46,2.46,0,0,0,1.11-.72,2.52,2.52,0,0,0-.18-3.58,2.14,2.14,0,0,0-.39-.3l49-92.14a4.4,4.4,0,0,0,1.06.35L259.34,999.55l-19.78-4.76a2.91,2.91,0,0,0-3.35-3.65Zm7,28.13a2.82,2.82,0,0,0,1.31-.82,2.79,2.79,0,0,0,.56-.93l19.82,4.78-7.91,45.93a4.56,4.56,0,0,0-1.52.07Zm1,100.44-2.87,11.24L211.34,1121a4.33,4.33,0,0,0-4.85-2.1,3.85,3.85,0,0,0-1.1.47l-39-62.55a4.26,4.26,0,0,0,1.28-1.29ZM10.71,1153.73c0-.12-.05-.25-.07-.37a6,6,0,0,0-.63-1.47l64.52-41.26a3.49,3.49,0,0,0,6.24-2.88,3.93,3.93,0,0,0-.37-.87l80.06-51.22a4.31,4.31,0,0,0,4.65,1.76,5.28,5.28,0,0,0,1.09-.47l39,62.54a4.26,4.26,0,0,0-1.88,4.13Zm193,79.58-.48,0,4.25-105.88a4.23,4.23,0,0,0,1.11-.11,4.32,4.32,0,0,0,3.1-5.27,3.49,3.49,0,0,0-.26-.79l24.14-12.41Zm32.24-125,2.82-11,8.62,5.07Zm2.87-11.2,11-42.87a4.3,4.3,0,0,0,5.22-4.83l91.31-16.2,2.34,13.51a.77.77,0,0,1-.15,0,3.49,3.49,0,0,0-2.51,4.25,4.7,4.7,0,0,0,.22.63l-98.56,50.67Zm34.89,15.9a4.3,4.3,0,0,0-4.31-1.33,4.19,4.19,0,0,0-2.57,1.89L248,1102.45l98.43-50.62a1.87,1.87,0,0,0,.25.41ZM352,1047.78a3.49,3.49,0,0,0-3-1.1l-2.35-13.51,27.27-4.83v0a2.34,2.34,0,0,0,.4.84Zm26.17-21.8a2.55,2.55,0,0,0-2.45-.71,1.09,1.09,0,0,0-.37.14L323.5,896.15a3.48,3.48,0,0,0,.83-.52,3.58,3.58,0,0,0,.64-.71l80.67,50.26a4.33,4.33,0,0,0,.4,4.94,4.18,4.18,0,0,0,2.82,1.51l-4.59,52.58Zm26.34-21.64,26.39-22a4.66,4.66,0,0,0,1.54,1.11l-32.37,82.93a4.39,4.39,0,0,0-.95-.23Zm140.59,218a2.85,2.85,0,0,0-.66-2,2.13,2.13,0,0,0-.34-.33L589.52,1163a4.31,4.31,0,0,0,4.88.18l41.09,61-.43.31a6.38,6.38,0,0,0-2.26,4.32Zm100.4,6.24a6.32,6.32,0,0,0-1.44-3.29,6.4,6.4,0,0,0-8.37-1.28l-41.08-61,.27-.18a4.06,4.06,0,0,0,.64-.67L680,1223.45a2.5,2.5,0,0,0-.42,1.49Zm118.34-14.1a5.31,5.31,0,0,0-.15,1.54l-50.24,5.33a2.92,2.92,0,0,0-5.8.63l-23,2.44a2.52,2.52,0,0,0-.54-1.2,2.55,2.55,0,0,0-3.58-.33,2.38,2.38,0,0,0-.35.37l-84.47-61.32a4.71,4.71,0,0,0,.51-1Zm-242.48-87.4a2.54,2.54,0,0,0,4,3,2.5,2.5,0,0,0,.64-.82l62.18,28.62a4.31,4.31,0,0,0,.63,4.46,6.51,6.51,0,0,0,.54.51l-45.4,57.08a2.94,2.94,0,0,0-2.82-.33l-47.62-103a3.39,3.39,0,0,0,.66-.43A3.53,3.53,0,0,0,495,1115Zm-31-16.8a3.33,3.33,0,0,0-.74.45,3.49,3.49,0,0,0-.87,1.09l-86.21-39.67a4.34,4.34,0,0,0-.62-4.44l51-44.33ZM453,1023,436,983.4a4.33,4.33,0,0,0,2.44-4.43l72.75-10.86a3.58,3.58,0,0,0,.11.53,6.17,6.17,0,0,0,1.29,2.49Zm62.85-62.09a6.4,6.4,0,0,0-4.74,7l-72.75,10.85a1.81,1.81,0,0,0-.05-.31,4,4,0,0,0-1.15-2L557.63,848.07a4.66,4.66,0,0,0,1.31.8l-16.78,47.66a2.87,2.87,0,0,0-1.54,0,2.92,2.92,0,0,0-.4,5.53l-7.7,21.87a2.43,2.43,0,0,0-1.31,0,2.54,2.54,0,0,0-.37,4.8L519.46,961A6.37,6.37,0,0,0,515.86,960.86ZM557,842.27a4.28,4.28,0,0,0-.73,3.64,5,5,0,0,0,.55,1.24l-144,97.67a2.07,2.07,0,0,0-.17-.24,4.28,4.28,0,0,0-4-1.48L387,835l70.6-63.2a6.35,6.35,0,0,0,9.6-.3Zm-21.46-60.13a2.92,2.92,0,0,0-5.72-1.14l-22.73-4.6a2.68,2.68,0,0,0-.15-1.31,2.55,2.55,0,0,0-3.32-1.38,2.51,2.51,0,0,0-1.47,1.68l-33.6-6.79a6.22,6.22,0,0,0-.38-3.57,6.35,6.35,0,0,0-7.58-3.73l-20.84-70.54c.11,0,.21,0,.3-.09a4.27,4.27,0,0,0,1.81-1.42l143.8,101.51a4.29,4.29,0,0,0-.6,1.41Zm52.18,7s-.07,0-.09,0a4.19,4.19,0,0,0-1.16.72L469.83,660.79l.21-.21a4.31,4.31,0,0,0-.3-6.1,3.66,3.66,0,0,0-1-.68l38.6-86.87a3.48,3.48,0,0,0,2.4.09ZM511.46,561.69a3.29,3.29,0,0,0-.5-.56,3.62,3.62,0,0,0-.83-.55l31.11-70a5.36,5.36,0,0,0,7.43-5.48l85.21-10.26a5.22,5.22,0,0,0,.83,2.17Zm133-89a5.36,5.36,0,0,0-4.72-4h-.22l1.54-67a2.69,2.69,0,0,0,1-.27l32.39,60.3a4.32,4.32,0,0,0-2.19,3.94,4.14,4.14,0,0,0,.11.63Zm32-3,.32,0a5.2,5.2,0,0,0,.92-.15l18.56,60.8L677,545.48a6.33,6.33,0,0,0-4.49-2.33Zm1.11,83a6.35,6.35,0,0,0-.41-7l19.18-15,11.85,38.76a2.55,2.55,0,0,0-1.22,1Zm102.72,66.74a4.33,4.33,0,0,0,7.18-3.46,4.39,4.39,0,0,0-1.19-2.74l64.29-64.17a3.78,3.78,0,0,0,.61.44,4.6,4.6,0,0,0,.59.29L817.89,655.32,728.16,678.6a4.26,4.26,0,0,0-1.11-1.88Zm25.14,74.82a4.32,4.32,0,0,0-4.92,1.94,4,4,0,0,0-.45,1.11l-71.79-16.66a4,4,0,0,0,0-1.81l89.58-23.23Zm-118.73,165a2.27,2.27,0,0,1-.32-.22,5,5,0,0,0-1.47-.58l16.45-74.82a3.49,3.49,0,0,0,2.38-6.44,3.36,3.36,0,0,0-.89-.35l20.4-92.83a4.23,4.23,0,0,0,5-3.15L800,697.55a4.3,4.3,0,0,0,1.59,4.26Zm193.61-80.62a3.42,3.42,0,0,0-1.2.68l-71.86-77.87a4.41,4.41,0,0,0,.71-.87,4.33,4.33,0,0,0-1.53-5.93,4.62,4.62,0,0,0-.75-.35l12.44-38.79L839.47,650a4.36,4.36,0,0,0,1.95,2.53,4.3,4.3,0,0,0,3.25.46Zm-36.39-134.2a4.3,4.3,0,0,0-4.48,5.27l-21.23,5.51L852,549.86a4.81,4.81,0,0,0,.48.12ZM853.09,543a3.48,3.48,0,0,0-2.71,5.85l-64.31,64.17c-.12-.12-.26-.22-.38-.32l69.09-98.94.05,0a2.49,2.49,0,0,0,.89.31Zm3.08-33.91a2.52,2.52,0,0,0-1.59,4.52l-69.1,98.94a4.43,4.43,0,0,0-2.58-.71,4.34,4.34,0,0,0-3.43,2l-43.32-26a2.83,2.83,0,0,0,.33-1.5,2.92,2.92,0,0,0-3.05-2.78,2.85,2.85,0,0,0-2.27,1.28l-19.88-11.93a2.5,2.5,0,0,0,.27-1.29,2.52,2.52,0,0,0-2.65-2.41,2.49,2.49,0,0,0-.5.08l-11.87-38.85,122.78-96.23a4.32,4.32,0,0,0,2.92,1.54,4.27,4.27,0,0,0,3.07-.93l33.94,40.42Zm3.34-33.94,3.1-34.22a4.16,4.16,0,0,0,1.88-.3l35.74,81.53a4.48,4.48,0,0,0-.84.51Zm46.87,50.9a3.9,3.9,0,0,0-.22-1.37l89-32.91a3.48,3.48,0,0,0,6.7-1,3.31,3.31,0,0,0-.17-1.44l27.2-10.05a2.53,2.53,0,0,0,4.88-.71,2.62,2.62,0,0,0-.13-1.05l64.2-23.73a4.3,4.3,0,0,0,3.61,2.71,6.09,6.09,0,0,0,.74,0l8.25,72.46a2.94,2.94,0,0,0-2.46,2.62l0,.05Zm206.25,3.45a2.92,2.92,0,0,0-1.45-.55h-.46l-8.25-72.46a4.32,4.32,0,0,0,3.58-3.32l57.71,11.26Zm51.59-65.24,47-59.77a3,3,0,0,0,.35.21l-24.61,57.72a6.07,6.07,0,0,0-1.81-.43,6.38,6.38,0,0,0-6.82,5Zm67.18-54.12a3,3,0,0,0-1.45-.55,2.92,2.92,0,0,0-2.22,5.08l-14.57,18a2.75,2.75,0,0,0-1.24-.47,2.54,2.54,0,0,0-1.94,4.4l-21.53,26.66a6.27,6.27,0,0,0-1.3-.77l24.61-57.73a3.35,3.35,0,0,0,.66.16,2.55,2.55,0,0,0,2.75-2.32,2.49,2.49,0,0,0-.34-1.5l47.6-31.12a5,5,0,0,0,.71.82Z"/><path class="cls-3" d="M737,277.42a11.38,11.38,0,1,1,6.44-14.75A11.4,11.4,0,0,1,737,277.42Zm-8.21-21a11.13,11.13,0,1,0,14.42,6.3A11.14,11.14,0,0,0,728.81,256.46Z"/><path class="cls-3" d="M578.83,285.69a8.5,8.5,0,1,1,4.8-11A8.53,8.53,0,0,1,578.83,285.69Zm-6.1-15.59a8.25,8.25,0,1,0,10.67,4.67A8.25,8.25,0,0,0,572.73,270.1Z"/><path class="cls-3" d="M866,444.57a8.5,8.5,0,1,1,4.81-11A8.5,8.5,0,0,1,866,444.57ZM859.86,429a8.24,8.24,0,1,0,10.69,4.67A8.26,8.26,0,0,0,859.86,429Z"/><path class="cls-3" d="M884.39,310.29a6.57,6.57,0,1,1,3.71-8.51A6.58,6.58,0,0,1,884.39,310.29Zm-4.7-12a6.31,6.31,0,1,0,8.18,3.57A6.32,6.32,0,0,0,879.69,298.3Z"/><path class="cls-3" d="M678.93,341.11a7.35,7.35,0,1,1,4.18-9.53A7.33,7.33,0,0,1,678.93,341.11Zm-5.27-13.45a7.1,7.1,0,1,0,9.2,4A7.12,7.12,0,0,0,673.66,327.66Z"/><path class="cls-3" d="M661.58,194a8.58,8.58,0,1,1,4.87-11.12A8.58,8.58,0,0,1,661.58,194Zm-6.17-15.75A8.33,8.33,0,1,0,666.2,183,8.35,8.35,0,0,0,655.41,178.23Z"/><path class="cls-3" d="M594.58,19.77a10.24,10.24,0,1,1,5.8-13.27A10.25,10.25,0,0,1,594.58,19.77ZM587.2.94a10,10,0,1,0,12.95,5.65A10,10,0,0,0,587.2.94Z"/><path class="cls-3" d="M214.83,117.71a10.24,10.24,0,1,1,5.78-13.26A10.24,10.24,0,0,1,214.83,117.71Zm-7.37-18.82a10,10,0,1,0,12.92,5.65A10,10,0,0,0,207.46,98.89Z"/><path class="cls-3" d="M449.86,246.41a10.23,10.23,0,1,1,5.79-13.26A10.24,10.24,0,0,1,449.86,246.41Zm-7.37-18.83a10,10,0,1,0,12.93,5.66A10,10,0,0,0,442.49,227.58Z"/><path class="cls-3" d="M402.21,131.34a9.25,9.25,0,1,1,5.24-12A9.25,9.25,0,0,1,402.21,131.34Zm-6.66-17a9,9,0,1,0,11.66,5.1A9,9,0,0,0,395.55,114.36Z"/><path class="cls-3" d="M263.93,358.41a7.69,7.69,0,1,1,4.35-10A7.71,7.71,0,0,1,263.93,358.41Zm-5.52-14.09a7.44,7.44,0,1,0,9.64,4.22A7.46,7.46,0,0,0,258.41,344.32Z"/><path class="cls-3" d="M471,404.66a12.13,12.13,0,1,1,6.86-15.72A12.15,12.15,0,0,1,471,404.66Zm-8.76-22.34A11.87,11.87,0,1,0,477.65,389,11.86,11.86,0,0,0,462.26,382.32Z"/><path class="cls-3" d="M268.25,490.85a9.33,9.33,0,1,1,5.28-12.09A9.32,9.32,0,0,1,268.25,490.85Zm-6.72-17.13a9.08,9.08,0,1,0,11.76,5.14A9.08,9.08,0,0,0,261.53,473.72Z"/><path class="cls-3" d="M359.57,619.77a7.73,7.73,0,1,1,4.37-10A7.76,7.76,0,0,1,359.57,619.77ZM354,605.6a7.47,7.47,0,1,0,9.68,4.24A7.51,7.51,0,0,0,354,605.6Z"/><path class="cls-3" d="M276,759.83a6.21,6.21,0,1,1,3.53-8.05A6.22,6.22,0,0,1,276,759.83Zm-4.43-11.32a5.95,5.95,0,1,0,7.72,3.37A6,6,0,0,0,271.53,748.51Z"/><path class="cls-3" d="M441.48,694.42a8.33,8.33,0,1,1,4.72-10.8A8.34,8.34,0,0,1,441.48,694.42Zm-6-15.27A8.07,8.07,0,1,0,446,683.71,8.08,8.08,0,0,0,435.51,679.15Z"/><path class="cls-3" d="M592.65,801.7a9.18,9.18,0,1,1,5.19-11.89A9.21,9.21,0,0,1,592.65,801.7Zm-6.6-16.85a8.92,8.92,0,1,0,11.56,5A8.92,8.92,0,0,0,586.05,784.85Z"/><path class="cls-3" d="M522.06,978.81a12.63,12.63,0,1,1,7.16-16.37A12.66,12.66,0,0,1,522.06,978.81ZM513,955.53a12.37,12.37,0,1,0,16,7A12.36,12.36,0,0,0,513,955.53Z"/><path class="cls-3" d="M325.16,900.8a8.43,8.43,0,1,1,4.78-10.91A8.41,8.41,0,0,1,325.16,900.8Zm-6.05-15.45A8.17,8.17,0,1,0,329.69,890,8.19,8.19,0,0,0,319.11,885.35Z"/><path class="cls-3" d="M223.89,935.85a12.38,12.38,0,1,1,7-16A12.39,12.39,0,0,1,223.89,935.85ZM215,913a12.12,12.12,0,1,0,15.71,6.87A12.16,12.16,0,0,0,215,913Z"/><path class="cls-3" d="M352.29,1057.4a7.82,7.82,0,1,1,4.41-10.11A7.85,7.85,0,0,1,352.29,1057.4Zm-5.61-14.31a7.56,7.56,0,1,0,9.79,4.28A7.58,7.58,0,0,0,346.68,1043.09Z"/><path class="cls-3" d="M253.83,1057.78a8.33,8.33,0,1,1,4.72-10.79A8.34,8.34,0,0,1,253.83,1057.78Zm-6-15.27a8.08,8.08,0,1,0,10.46,4.58A8.08,8.08,0,0,0,247.84,1042.51Z"/><path class="cls-3" d="M205.62,1243.35a7.12,7.12,0,1,1,4-9.22A7.12,7.12,0,0,1,205.62,1243.35Zm-5.11-13a6.87,6.87,0,1,0,8.9,3.9A6.89,6.89,0,0,0,200.51,1230.32Z"/><path class="cls-3" d="M494.5,1120a7.13,7.13,0,1,1,4-9.23A7.13,7.13,0,0,1,494.5,1120Zm-5.11-13a6.87,6.87,0,1,0,8.89,3.89A6.88,6.88,0,0,0,489.39,1107Z"/><path class="cls-3" d="M544.57,1228.28a6.5,6.5,0,1,1,3.67-8.42A6.5,6.5,0,0,1,544.57,1228.28Zm-4.65-11.86A6.24,6.24,0,1,0,548,1220,6.24,6.24,0,0,0,539.92,1216.42Z"/><path class="cls-3" d="M684.27,1230.36a5.95,5.95,0,1,1,3.37-7.7A5.94,5.94,0,0,1,684.27,1230.36ZM680,1219.53a5.69,5.69,0,1,0,7.37,3.23A5.7,5.7,0,0,0,680,1219.53Z"/><path class="cls-3" d="M771.12,1223.61a8.54,8.54,0,1,1,4.83-11.06A8.54,8.54,0,0,1,771.12,1223.61ZM765,1208a8.29,8.29,0,1,0,10.73,4.69A8.3,8.3,0,0,0,765,1208Z"/><path class="cls-3" d="M80.55,1116.7a8.66,8.66,0,1,1,4.91-11.23A8.69,8.69,0,0,1,80.55,1116.7Zm-6.23-15.9a8.41,8.41,0,1,0,10.89,4.76A8.41,8.41,0,0,0,74.32,1100.8Z"/><path class="cls-3" d="M1189,479.74a12.21,12.21,0,1,1,6.91-15.81A12.22,12.22,0,0,1,1189,479.74Zm-8.81-22.49a11.95,11.95,0,1,0,15.48,6.77A12,12,0,0,0,1180.18,457.25Z"/><path class="cls-3" d="M1033.74,484.72a6.79,6.79,0,1,1,3.83-8.8A6.8,6.8,0,0,1,1033.74,484.72Zm-4.86-12.41a6.54,6.54,0,1,0,8.45,3.71A6.56,6.56,0,0,0,1028.88,472.31Z"/><path class="cls-3" d="M846.43,655.93a7.68,7.68,0,1,1,4.34-9.94A7.69,7.69,0,0,1,846.43,655.93Zm-5.51-14.07a7.43,7.43,0,1,0,9.62,4.22A7.44,7.44,0,0,0,840.92,641.86Z"/><path class="cls-3" d="M687.47,873.6a10.61,10.61,0,1,1,6-13.75A10.62,10.62,0,0,1,687.47,873.6Zm-7.64-19.52a10.35,10.35,0,1,0,13.4,5.87A10.37,10.37,0,0,0,679.83,854.08Z"/><path class="cls-3" d="M676.68,561.45a12.81,12.81,0,1,1,7.25-16.6A12.83,12.83,0,0,1,676.68,561.45Zm-9.25-23.62a12.56,12.56,0,1,0,16.27,7.11A12.57,12.57,0,0,0,667.43,537.83Z"/><path class="cls-3" d="M547.21,495.58a10.71,10.71,0,1,1,6.07-13.88A10.71,10.71,0,0,1,547.21,495.58Zm-7.72-19.71A10.45,10.45,0,1,0,553,481.8,10.47,10.47,0,0,0,539.49,475.87Z"/><path class="cls-3" d="M727.69,689.14a10,10,0,1,1,5.67-13A10,10,0,0,1,727.69,689.14Zm-7.23-18.44a9.78,9.78,0,1,0,12.67,5.54A9.78,9.78,0,0,0,720.46,670.7Z"/></g></g></g></g></svg>