<svg xmlns="http://www.w3.org/2000/svg" xmlns:xlink="http://www.w3.org/1999/xlink" viewBox="0 0 77.41 77.41"><defs><style>.cls-1{fill:url(#linear-gradient);}</style><linearGradient id="linear-gradient" y1="38.7" x2="325.75" y2="38.7" gradientUnits="userSpaceOnUse"><stop offset="0" stop-color="#7ca5d6"/><stop offset="1" stop-color="#fff"/></linearGradient></defs><title>Twitter_fl</title><g id="Layer_2" data-name="Layer 2"><g id="footer"><path class="cls-1" d="M0,77.41H77.41V0H0ZM29.89,47.15c-2.38-.82-4.52-2.71-5.06-4.49-.16-.57-.11-.6,1.41-.6l1.57,0-1.33-.63a8.72,8.72,0,0,1-3.7-3.5,9.93,9.93,0,0,1-1-3.66c.06-.09.63.08,1.27.3,1.87.68,2.11.52,1-.63a7.88,7.88,0,0,1-1.67-8.09l.46-1.31,1.78,1.77a22,22,0,0,0,12.87,6.34l1.35.17-.08-1.34a7.81,7.81,0,0,1,5.27-7.87,9.22,9.22,0,0,1,4.73-.11,10.9,10.9,0,0,1,2.3,1.2l1.32.9,1.46-.46a15.59,15.59,0,0,0,2.38-.93c.46-.25.87-.38.87-.3a7.93,7.93,0,0,1-1.84,2.92c-1.14,1.23-.81,1.34,1.49.52,1.37-.46,1.4-.46,1.13.06A18.57,18.57,0,0,1,56,29.49c-1.52,1.5-1.6,1.67-1.6,2.93a28.19,28.19,0,0,1-1.84,8.19,23.72,23.72,0,0,1-9,10.61,22.79,22.79,0,0,1-17.73,2c-1.92-.6-5.22-2.13-5.22-2.41a8,8,0,0,1,2.22-.21,15.22,15.22,0,0,0,7.24-2l1.46-.87Z"/></g></g></svg>