<svg xmlns="http://www.w3.org/2000/svg" xmlns:xlink="http://www.w3.org/1999/xlink" viewBox="0 0 77.41 77.41"><defs><style>.cls-1{fill:none;}.cls-2{fill:url(#linear-gradient);}.cls-3{fill:url(#linear-gradient-2);}.cls-4{fill:url(#linear-gradient-3);}.cls-5{fill:url(#linear-gradient-4);}.cls-6{fill:url(#linear-gradient-5);}.cls-7{fill:url(#linear-gradient-6);}.cls-8{fill:url(#linear-gradient-7);}.cls-9{fill:url(#linear-gradient-8);}.cls-10{fill:url(#linear-gradient-9);}.cls-11{fill:url(#linear-gradient-10);}</style><linearGradient id="linear-gradient" x1="-166.73" y1="38.7" x2="159.03" y2="38.7" gradientUnits="userSpaceOnUse"><stop offset="0" stop-color="#7ca5d6"/><stop offset="1" stop-color="#fff"/></linearGradient><linearGradient id="linear-gradient-2" x1="-166.73" y1="50.14" x2="159.03" y2="50.14" xlink:href="#linear-gradient"/><linearGradient id="linear-gradient-3" x1="-127.23" y1="50.14" x2="135.89" y2="50.14" xlink:href="#linear-gradient"/><linearGradient id="linear-gradient-4" x1="-166.73" y1="52.26" x2="159.03" y2="52.26" xlink:href="#linear-gradient"/><linearGradient id="linear-gradient-5" x1="-127.23" y1="52.26" x2="135.89" y2="52.26" xlink:href="#linear-gradient"/><linearGradient id="linear-gradient-6" x1="-166.73" y1="52.19" x2="159.03" y2="52.19" xlink:href="#linear-gradient"/><linearGradient id="linear-gradient-7" x1="-127.23" y1="52.19" x2="135.89" y2="52.19" xlink:href="#linear-gradient"/><linearGradient id="linear-gradient-8" x1="-166.73" y1="50.22" x2="159.03" y2="50.22" xlink:href="#linear-gradient"/><linearGradient id="linear-gradient-9" x1="-127.23" y1="50.22" x2="135.89" y2="50.22" xlink:href="#linear-gradient"/><linearGradient id="linear-gradient-10" x1="-166.73" y1="26.27" x2="159.03" y2="26.27" xlink:href="#linear-gradient"/></defs><title>Youtube_mr</title><g id="Layer_2" data-name="Layer 2"><g id="footer"><path class="cls-1" d="M45.52,32.76a3.1,3.1,0,0,0,1.47-.4,5.37,5.37,0,0,0,1.46-1.17v1.39H51V20H48.45v9.58a3.53,3.53,0,0,1-.78.68,1.44,1.44,0,0,1-.71.26.61.61,0,0,1-.52-.2,1.07,1.07,0,0,1-.16-.64V20H43.75V30.51a2.75,2.75,0,0,0,.44,1.69A1.61,1.61,0,0,0,45.52,32.76Z"/><path class="cls-1" d="M38,32.9A3.84,3.84,0,0,0,40.71,32a3.34,3.34,0,0,0,1-2.54V22.92a3,3,0,0,0-1-2.36,3.68,3.68,0,0,0-2.58-.91,4.1,4.1,0,0,0-2.75.87,2.86,2.86,0,0,0-1,2.33v6.54a3.39,3.39,0,0,0,1,2.56A3.73,3.73,0,0,0,38,32.9Z"/><path class="cls-1" d="M38.7,37.39s-15.59,0-17.44,1.87-1.86,11-1.86,11,0,9.19,1.86,11S38.7,63.21,38.7,63.21s15.58,0,17.43-1.88,1.88-11,1.88-11,0-9.18-1.88-11S38.7,37.38,38.7,37.39Z"/><polygon class="cls-1" points="27.95 32.58 30.81 32.58 30.81 25.49 34.13 15.48 31.23 15.48 29.46 22.32 29.28 22.32 27.43 15.48 24.55 15.48 27.95 25.81 27.95 32.58"/><path class="cls-2" d="M0,0V77.41H77.41V0ZM43.75,20h2.53v9.68a1.07,1.07,0,0,0,.16.64.61.61,0,0,0,.52.2,1.44,1.44,0,0,0,.71-.26,3.53,3.53,0,0,0,.78-.68V20H51V32.58H48.45V31.19A5.37,5.37,0,0,1,47,32.36a3.1,3.1,0,0,1-1.47.4,1.61,1.61,0,0,1-1.33-.56,2.75,2.75,0,0,1-.44-1.69Zm-9.42,2.89a2.86,2.86,0,0,1,1-2.33,4.1,4.1,0,0,1,2.75-.87,3.68,3.68,0,0,1,2.58.91,3,3,0,0,1,1,2.36v6.52a3.34,3.34,0,0,1-1,2.54A3.84,3.84,0,0,1,38,32.9,3.73,3.73,0,0,1,35.33,32a3.39,3.39,0,0,1-1-2.56Zm-6.9-7.37,1.85,6.84h.18l1.77-6.84h2.9l-3.32,10v7.09H28V25.81l-3.4-10.33Zm28.7,45.85c-1.85,1.84-17.43,1.88-17.43,1.88s-15.59,0-17.44-1.88-1.86-11-1.86-11,0-9.18,1.86-11S38.7,37.38,38.7,37.39s15.58,0,17.43,1.87,1.88,11,1.88,11S58,59.47,56.13,61.33Z"/><polygon class="cls-3" points="25.73 57.91 28.27 57.91 28.27 44.64 30.9 44.64 30.9 42.38 23.11 42.38 23.11 44.64 25.73 44.64 25.73 57.91"/><polygon class="cls-4" points="25.73 57.91 28.27 57.91 28.27 44.64 30.9 44.64 30.9 42.38 23.11 42.38 23.11 44.64 25.73 44.64 25.73 57.91"/><path class="cls-5" d="M33.46,58.07a2.79,2.79,0,0,0,1.31-.36,5,5,0,0,0,1.3-1.06V57.9h2.25V46.45H36.07v8.7a3.3,3.3,0,0,1-.7.61,1.25,1.25,0,0,1-.63.25.52.52,0,0,1-.46-.19,1,1,0,0,1-.14-.58V46.45H31.89V56a2.5,2.5,0,0,0,.39,1.53A1.41,1.41,0,0,0,33.46,58.07Z"/><path class="cls-6" d="M33.46,58.07a2.79,2.79,0,0,0,1.31-.36,5,5,0,0,0,1.3-1.06V57.9h2.25V46.45H36.07v8.7a3.3,3.3,0,0,1-.7.61,1.25,1.25,0,0,1-.63.25.52.52,0,0,1-.46-.19,1,1,0,0,1-.14-.58V46.45H31.89V56a2.5,2.5,0,0,0,.39,1.53A1.41,1.41,0,0,0,33.46,58.07Z"/><path class="cls-7" d="M50.92,58.22a3.31,3.31,0,0,0,2.53-.89,3.68,3.68,0,0,0,.84-2.65v-.59H52v.52a2.44,2.44,0,0,1-.23,1.31.91.91,0,0,1-.78.29.83.83,0,0,1-.76-.34A2.55,2.55,0,0,1,50,54.61V52.46h4.3V49.54a3.49,3.49,0,0,0-.82-2.5,3.15,3.15,0,0,0-2.38-.87,3.36,3.36,0,0,0-2.47.94,3.28,3.28,0,0,0-.95,2.43v5.14a3.7,3.7,0,0,0,.87,2.6A3.07,3.07,0,0,0,50.92,58.22ZM50,49.51a1.67,1.67,0,0,1,.23-1,.89.89,0,0,1,.77-.32.84.84,0,0,1,.75.32,1.68,1.68,0,0,1,.24,1v1.16H50Z"/><path class="cls-8" d="M50.92,58.22a3.31,3.31,0,0,0,2.53-.89,3.68,3.68,0,0,0,.84-2.65v-.59H52v.52a2.44,2.44,0,0,1-.23,1.31.91.91,0,0,1-.78.29.83.83,0,0,1-.76-.34A2.55,2.55,0,0,1,50,54.61V52.46h4.3V49.54a3.49,3.49,0,0,0-.82-2.5,3.15,3.15,0,0,0-2.38-.87,3.36,3.36,0,0,0-2.47.94,3.28,3.28,0,0,0-.95,2.43v5.14a3.7,3.7,0,0,0,.87,2.6A3.07,3.07,0,0,0,50.92,58.22ZM50,49.51a1.67,1.67,0,0,1,.23-1,.89.89,0,0,1,.77-.32.84.84,0,0,1,.75.32,1.68,1.68,0,0,1,.24,1v1.16H50Z"/><path class="cls-9" d="M42.29,57a2.75,2.75,0,0,0,1,.77,2.59,2.59,0,0,0,1.18.25A1.85,1.85,0,0,0,46,57.4a2.88,2.88,0,0,0,.53-1.86V49.18A3.45,3.45,0,0,0,45.92,47a2,2,0,0,0-1.63-.73,2.14,2.14,0,0,0-1,.28,3.16,3.16,0,0,0-1,.79v-5H40V57.9h2.28Zm0-8.44a1.75,1.75,0,0,1,.46-.35,1.2,1.2,0,0,1,.48-.11.85.85,0,0,1,.7.3,1.38,1.38,0,0,1,.24.88v5.91A1.25,1.25,0,0,1,44,56a.73.73,0,0,1-.6.25,1.34,1.34,0,0,1-.55-.13,2,2,0,0,1-.53-.4Z"/><path class="cls-1" d="M43.23,48.13a1.2,1.2,0,0,0-.48.11,1.75,1.75,0,0,0-.46.35v7.14a2,2,0,0,0,.53.4,1.34,1.34,0,0,0,.55.13A.73.73,0,0,0,44,56a1.25,1.25,0,0,0,.2-.79V49.31a1.38,1.38,0,0,0-.24-.88A.85.85,0,0,0,43.23,48.13Z"/><path class="cls-10" d="M45.92,47a2,2,0,0,0-1.63-.73,2.14,2.14,0,0,0-1,.28,3.16,3.16,0,0,0-1,.79v-5H40V57.9h2.28V57a2.75,2.75,0,0,0,1,.77,2.59,2.59,0,0,0,1.18.25A1.85,1.85,0,0,0,46,57.4a2.88,2.88,0,0,0,.53-1.86V49.18A3.45,3.45,0,0,0,45.92,47Zm-1.75,8.18A1.25,1.25,0,0,1,44,56a.73.73,0,0,1-.6.25,1.34,1.34,0,0,1-.55-.13,2,2,0,0,1-.53-.4V48.59a1.75,1.75,0,0,1,.46-.35,1.2,1.2,0,0,1,.48-.11.85.85,0,0,1,.7.3,1.38,1.38,0,0,1,.24.88Z"/><path class="cls-11" d="M38,30.71a1.17,1.17,0,0,0,.82-.28,1.09,1.09,0,0,0,.3-.8V22.76a.81.81,0,0,0-.31-.67,1.25,1.25,0,0,0-.81-.26,1.13,1.13,0,0,0-.76.26.86.86,0,0,0-.29.67v6.87a1.13,1.13,0,0,0,.28.8A1,1,0,0,0,38,30.71Z"/></g></g></svg>